<svg width="23" height="23" viewBox="0 0 23 23" fill="none" xmlns="http://www.w3.org/2000/svg">
<path d="M17.17 17.17C15.5383 18.4138 13.5514 19.1028 11.5 19.1364C4.81818 19.1364 1 11.5 1 11.5C2.18735 9.28726 3.83417 7.35403 5.83 5.83M9.49545 4.09273C10.1525 3.93893 10.8252 3.86205 11.5 3.86364C18.1818 3.86364 22 11.5 22 11.5C21.4206 12.584 20.7296 13.6045 19.9382 14.545M13.5236 13.5236C13.2615 13.805 12.9453 14.0306 12.5941 14.1872C12.2428 14.3437 11.8636 14.4278 11.4791 14.4346C11.0946 14.4414 10.7127 14.3707 10.3561 14.2267C9.99951 14.0826 9.6756 13.8683 9.40367 13.5963C9.13175 13.3244 8.91737 13.0005 8.77335 12.6439C8.62932 12.2873 8.55859 11.9054 8.56538 11.5209C8.57216 11.1364 8.65632 10.7572 8.81284 10.4059C8.96935 10.0547 9.19501 9.73853 9.47636 9.47636M1 1L22 22" stroke="#7F7F7F" stroke-width="1.5" stroke-linecap="round" stroke-linejoin="round"/>
</svg>
