<svg width="23" height="26" viewBox="0 0 23 26" fill="none" xmlns="http://www.w3.org/2000/svg">
<path d="M5.66667 11.5V6.83333C5.66667 5.28624 6.28125 3.80251 7.37521 2.70854C8.46917 1.61458 9.9529 1 11.5 1C13.0471 1 14.5308 1.61458 15.6248 2.70854C16.7188 3.80251 17.3333 5.28624 17.3333 6.83333V11.5M3.33333 11.5H19.6667C20.9553 11.5 22 12.5447 22 13.8333V22C22 23.2887 20.9553 24.3333 19.6667 24.3333H3.33333C2.04467 24.3333 1 23.2887 1 22V13.8333C1 12.5447 2.04467 11.5 3.33333 11.5Z" stroke="#7F7F7F" stroke-width="1.6" stroke-linecap="round" stroke-linejoin="round"/>
</svg>
