<svg width="20" height="21" viewBox="0 0 20 21" fill="none" xmlns="http://www.w3.org/2000/svg">
<path d="M14.0314 6.50092H14.0426M8.71858 19.1748L1.32474 11.7156C1.11675 11.5063 1 11.2232 1 10.928C1 10.6329 1.11675 10.3498 1.32474 10.1405L9.56899 1.82177C9.67159 1.71946 9.79335 1.63838 9.9273 1.58317C10.0613 1.52796 10.2048 1.4997 10.3497 1.5L16.7997 1.50788C17.3861 1.51145 17.947 1.74753 18.3595 2.16432C18.772 2.58111 19.0024 3.14456 19 3.73101V9.91887C19.0001 10.0723 18.9687 10.2242 18.9075 10.3649C18.8463 10.5056 18.7568 10.6322 18.6445 10.7368L10.2754 19.1748C10.1736 19.2777 10.0524 19.3595 9.91887 19.4153C9.7853 19.4711 9.64199 19.4999 9.49723 19.5C9.35247 19.5001 9.20913 19.4715 9.07548 19.4159C8.94183 19.3603 8.82053 19.2787 8.71858 19.1759V19.1748Z" stroke="black" stroke-width="2" stroke-linecap="round" stroke-linejoin="round"/>
</svg>
