<svg width="13" height="22" viewBox="0 0 13 22" fill="none" xmlns="http://www.w3.org/2000/svg">
<path d="M2.29593 11.6881C2.25655 11.5276 2.22086 11.3884 2.18886 11.2703C1.88924 10.1616 1.58937 9.05309 1.28922 7.94479C1.27079 7.8766 1.26065 7.81196 1.2588 7.75088C1.24221 7.1891 1.40736 6.5657 1.77677 6.13247C2.16041 5.68304 2.73864 5.45517 3.32575 5.41034C3.39924 5.40481 3.47299 5.4085 3.54701 5.4214C3.84544 5.47327 4.12648 5.56305 4.39014 5.69074C5.37769 6.16939 5.5946 7.12137 5.38421 8.12349C5.36471 8.21591 5.34476 8.30832 5.32435 8.40073C5.30947 8.46774 5.28872 8.52599 5.26212 8.57549C5.06062 8.95087 4.69575 9.25338 4.36426 9.50791C3.69945 10.0184 3.03588 10.5308 2.37357 11.0452C2.37082 11.0474 2.36863 11.0502 2.36719 11.0534C2.36574 11.0566 2.36509 11.06 2.36527 11.0635C2.36698 11.0924 2.37396 11.1251 2.38621 11.1617C2.51514 11.5469 2.63249 11.9342 2.73824 12.3237C2.73866 12.3253 2.73945 12.3267 2.74054 12.3278C2.74162 12.329 2.74298 12.3298 2.74448 12.3304C2.74598 12.3309 2.74759 12.331 2.74915 12.3307C2.75072 12.3305 2.75219 12.3298 2.75345 12.3289C3.69945 11.61 4.64597 10.8929 5.59302 10.1775C5.63648 10.1446 5.6669 10.119 5.68428 10.1007C5.88591 9.88704 6.05962 9.65259 6.20542 9.39733C6.83145 8.30121 6.84883 7.08325 6.33837 5.92612C6.30399 5.84819 6.26218 5.77513 6.21292 5.70693C5.97046 5.37151 5.69074 5.08124 5.37374 4.83612C4.42485 4.10274 3.37455 3.94391 2.22284 4.35964C2.05097 4.42164 1.86975 4.50241 1.67918 4.60193C1.47808 4.70698 1.33664 4.84086 1.17702 5.00298C0.494092 5.69686 0.00417095 6.61467 2.24309e-05 7.59725C-0.000965312 7.82019 0.0306424 8.05833 0.0999819 8.27771C0.149567 8.4347 0.198361 8.59049 0.243402 8.75202C0.851457 10.9293 1.44693 13.1098 2.02983 15.2938C2.05947 15.4048 2.09898 15.476 2.16812 15.5594C2.71691 16.2217 3.41801 16.4378 4.27142 16.2078C4.33555 16.1905 4.37651 16.1753 4.39429 16.1622C5.48812 15.3558 6.6422 14.638 7.72061 13.8102C8.20566 13.4378 8.66088 13.0322 9.08627 12.5935C10.6829 10.9468 11.232 8.63019 10.8846 6.40299C10.4612 3.68668 8.77394 1.24485 6.16709 0.217447C5.61692 0.000434125 4.91384 -0.112318 4.36071 0.160774C4.10113 0.288731 3.88541 0.492118 3.72401 0.731444C3.71677 0.742239 3.64887 0.855056 3.52034 1.0699C2.88871 2.12606 2.25906 3.18197 1.63138 4.23761C1.63068 4.23871 1.63039 4.24001 1.63053 4.2413C1.63067 4.24259 1.63125 4.24379 1.63217 4.24471C1.63309 4.24563 1.6343 4.24621 1.63559 4.24635C1.63688 4.2465 1.63818 4.2462 1.63928 4.24551C1.91558 4.0799 2.20763 3.95313 2.51541 3.86519C2.79435 3.78542 3.0775 3.76251 3.36487 3.79647C3.36999 3.79707 3.37518 3.7962 3.37984 3.79396C3.38449 3.79172 3.38841 3.78821 3.39114 3.78384C3.86565 3.01583 4.34069 2.24875 4.81625 1.4826C4.85458 1.42072 4.88717 1.3811 4.91404 1.36372C5.3364 1.09201 7.29983 2.75446 7.66095 3.05895C8.04644 3.3841 8.36179 3.73875 8.60701 4.12288C9.19808 5.04839 9.51277 6.15537 9.57105 7.24695C9.63051 8.36104 9.44442 9.46427 8.90827 10.4364C8.59299 11.0082 8.21224 11.5408 7.76605 12.0341C7.60472 12.2123 7.45912 12.3513 7.32927 12.4511C6.22985 13.2955 5.13088 14.1405 4.03238 14.9861C3.99577 15.0143 3.94507 15.0317 3.88027 15.0383C3.49545 15.0778 3.1606 14.9472 3.07052 14.5391C3.04418 14.4201 3.03081 14.3598 3.03042 14.3582C2.87106 13.7699 2.71197 13.1815 2.55314 12.5931C2.47135 12.2906 2.36981 11.9888 2.29593 11.6881Z" fill="#161615"/>
<path d="M4.77055 18.4876C4.1376 19.4684 3.61094 20.5383 3.28814 21.6623C3.27418 21.7108 3.28143 21.7142 3.30987 21.6723C4.07557 20.5438 4.92905 19.4711 5.8703 18.4543C5.96525 18.3516 6.05665 18.2569 6.1445 18.1701C7.00186 17.3238 7.97538 16.5863 8.95897 15.9165C9.67627 15.4277 10.7367 14.7386 11.6237 14.087C11.8912 13.8905 12.1857 13.7096 12.4574 13.5043C12.6587 13.3522 12.9174 13.1318 12.9992 12.8562C12.9999 12.854 13.0001 12.8516 12.9998 12.8493C12.9995 12.847 12.9986 12.8448 12.9974 12.8428C12.9961 12.8408 12.9945 12.8391 12.9925 12.8378C12.9905 12.8365 12.9883 12.8356 12.986 12.8353C12.4747 12.7539 11.9341 12.8175 11.4343 12.9405C10.0674 13.277 8.82622 14.0423 7.73911 14.9175C7.63849 14.9985 7.54057 15.0864 7.44535 15.1813C6.43535 16.1871 5.54375 17.2892 4.77055 18.4876Z" fill="#161615"/>
</svg>
