<svg fill="none" height="38" viewBox="0 0 28 38" width="28" xmlns="http://www.w3.org/2000/svg">
    <path
        d="M9.20915 15.0708C9.16531 14.8931 9.12557 14.7388 9.08994 14.608C8.75634 13.38 8.42245 12.1523 8.08827 10.9247C8.06774 10.8492 8.05645 10.7776 8.0544 10.7099C8.03592 10.0877 8.2198 9.39722 8.63111 8.91736C9.05826 8.41958 9.70206 8.16718 10.3558 8.11753C10.4376 8.11141 10.5197 8.11549 10.6021 8.12978C10.9344 8.18723 11.2473 8.28667 11.5409 8.42811C12.6404 8.95826 12.8819 10.0127 12.6477 11.1226C12.626 11.225 12.6038 11.3274 12.581 11.4297C12.5645 11.5039 12.5414 11.5684 12.5117 11.6233C12.2874 12.039 11.8811 12.3741 11.5121 12.656C10.7718 13.2215 10.033 13.789 9.29559 14.3587C9.29253 14.3611 9.29009 14.3642 9.28848 14.3678C9.28688 14.3713 9.28615 14.3752 9.28635 14.379C9.28826 14.411 9.29603 14.4472 9.30967 14.4877C9.45322 14.9144 9.58388 15.3434 9.70162 15.7749C9.70209 15.7766 9.70297 15.7781 9.70418 15.7794C9.70539 15.7807 9.7069 15.7816 9.70857 15.7822C9.71024 15.7827 9.71203 15.7829 9.71377 15.7826C9.71551 15.7823 9.71716 15.7816 9.71856 15.7805C10.7718 14.9843 11.8257 14.19 12.8802 13.3977C12.9286 13.3612 12.9624 13.3329 12.9818 13.3126C13.2063 13.076 13.3997 12.8163 13.562 12.5335C14.259 11.3195 14.2784 9.97046 13.71 8.68881C13.6718 8.60249 13.6252 8.52157 13.5704 8.44604C13.3004 8.07452 12.989 7.75301 12.636 7.48152C11.5795 6.66922 10.4101 6.49331 9.12777 6.95377C8.93641 7.02244 8.73464 7.1119 8.52246 7.22213C8.29854 7.33848 8.14106 7.48677 7.96334 7.66633C7.20296 8.43489 6.65748 9.45146 6.65286 10.5398C6.65176 10.7867 6.68695 11.0505 6.76415 11.2935C6.81936 11.4673 6.87369 11.6399 6.92384 11.8188C7.60085 14.2303 8.26387 16.6456 8.91287 19.0645C8.94587 19.1874 8.98986 19.2664 9.06684 19.3587C9.67787 20.0922 10.4585 20.3317 11.4087 20.0769C11.4801 20.0577 11.5257 20.0408 11.5455 20.0264C12.7634 19.1332 14.0483 18.3382 15.2491 17.4213C15.7891 17.0088 16.296 16.5596 16.7696 16.0736C18.5472 14.2498 19.1587 11.6839 18.7718 9.217C18.3005 6.2084 16.4218 3.5038 13.5193 2.36585C12.9068 2.12548 12.124 2.0006 11.5081 2.30307C11.2191 2.4448 10.9789 2.67007 10.7992 2.93515C10.7911 2.94711 10.7155 3.07207 10.5724 3.31003C9.86915 4.47984 9.16809 5.64937 8.46923 6.8186C8.46846 6.81982 8.46812 6.82126 8.46828 6.82269C8.46844 6.82412 8.46909 6.82546 8.47011 6.82647C8.47114 6.82749 8.47248 6.82813 8.47391 6.82829C8.47535 6.82845 8.4768 6.82812 8.47803 6.82735C8.78567 6.64393 9.11083 6.50351 9.45352 6.40611C9.76409 6.31775 10.0794 6.29238 10.3993 6.33C10.405 6.33066 10.4108 6.3297 10.416 6.32722C10.4212 6.32474 10.4255 6.32085 10.4286 6.316C10.9569 5.46536 11.4858 4.61574 12.0153 3.76713C12.058 3.6986 12.0943 3.65472 12.1242 3.63547C12.5944 3.33452 14.7806 5.17586 15.1826 5.51311C15.6118 5.87326 15.9629 6.26606 16.236 6.69153C16.8941 7.71664 17.2445 8.94273 17.3094 10.1518C17.3756 11.3857 17.1684 12.6077 16.5714 13.6844C16.2204 14.3178 15.7964 14.9077 15.2996 15.454C15.12 15.6514 14.9579 15.8054 14.8133 15.9159C13.5892 16.8511 12.3656 17.7871 11.1425 18.7238C11.1018 18.755 11.0453 18.7742 10.9732 18.7815C10.5447 18.8252 10.1719 18.6807 10.0716 18.2286C10.0423 18.0968 10.0274 18.03 10.0269 18.0283C9.84951 17.3766 9.67237 16.7249 9.49553 16.0732C9.40447 15.7381 9.29141 15.4039 9.20915 15.0708Z"
        stroke="#F9D0CA" stroke-width="2" />
    <path
        d="M11.9648 22.6026C11.2601 23.689 10.6737 24.8739 10.3143 26.1188C10.2988 26.1726 10.3068 26.1764 10.3385 26.13C11.191 24.88 12.1413 23.6919 13.1893 22.5656C13.295 22.4519 13.3968 22.347 13.4946 22.2509C14.4492 21.3135 15.5331 20.4966 16.6283 19.7548C17.4269 19.2134 18.6076 18.4501 19.5952 17.7284C19.893 17.5108 20.221 17.3104 20.5234 17.083C20.7476 16.9146 21.0357 16.6705 21.1268 16.3652C21.1275 16.3627 21.1277 16.3601 21.1274 16.3575C21.127 16.355 21.1261 16.3525 21.1247 16.3503C21.1233 16.3481 21.1215 16.3462 21.1193 16.3448C21.1171 16.3434 21.1146 16.3424 21.112 16.342C20.5428 16.2519 19.9408 16.3223 19.3843 16.4585C17.8624 16.8312 16.4805 17.679 15.2701 18.6483C15.158 18.738 15.049 18.8354 14.943 18.9405C13.8185 20.0545 12.8257 21.2752 11.9648 22.6026Z"
        stroke="#F9D0CA" stroke-width="2" />
    <path
        d="M27.7809 8.28109V20.0233C27.7809 22.2195 26.9035 24.3258 25.3418 25.8788C23.78 27.4317 21.6618 28.3042 19.4531 28.3042H8.32786C6.11917 28.3042 4.00095 27.4317 2.43917 25.8788C0.877397 24.3258 0 22.2195 0 20.0233V8.28087C0 6.08465 0.877397 3.97838 2.43917 2.42541C4.00095 0.872447 6.11917 0 8.32786 0L19.4531 0.000218712C21.6618 0.000218712 23.78 0.872666 25.3418 2.42563C26.9035 3.9786 27.7809 6.08487 27.7809 8.28109ZM9.20899 15.0706C9.16514 14.8928 9.1254 14.7386 9.08977 14.6078C8.75618 13.3798 8.42229 12.152 8.08811 10.9244C8.06758 10.8489 8.05629 10.7773 8.05423 10.7097C8.03576 10.0874 8.21964 9.39696 8.63095 8.91711C9.0581 8.41932 9.7019 8.16693 10.3556 8.11728C10.4374 8.11115 10.5195 8.11524 10.6019 8.12953C10.9342 8.18697 11.2471 8.28642 11.5407 8.42785C12.6403 8.95801 12.8818 10.0124 12.6475 11.1224C12.6258 11.2247 12.6036 11.3271 12.5809 11.4295C12.5643 11.5037 12.5412 11.5682 12.5116 11.623C12.2872 12.0388 11.881 12.3739 11.5119 12.6558C10.7717 13.2212 10.0329 13.7888 9.29543 14.3584C9.29237 14.3609 9.28993 14.364 9.28832 14.3675C9.28671 14.3711 9.28598 14.3749 9.28619 14.3788C9.2881 14.4107 9.29587 14.4469 9.3095 14.4875C9.45306 14.9141 9.58371 15.3432 9.70146 15.7746C9.70193 15.7763 9.7028 15.7779 9.70402 15.7791C9.70523 15.7804 9.70673 15.7814 9.70841 15.7819C9.71008 15.7825 9.71187 15.7826 9.71361 15.7823C9.71535 15.7821 9.71699 15.7814 9.7184 15.7803C10.7717 14.984 11.8255 14.1897 12.88 13.3974C12.9284 13.361 12.9623 13.3326 12.9816 13.3123C13.2061 13.0757 13.3995 12.816 13.5619 12.5333C14.2589 11.3192 14.2782 9.97021 13.7099 8.68855C13.6716 8.60223 13.6251 8.52131 13.5702 8.44578C13.3003 8.07426 12.9888 7.75276 12.6359 7.48126C11.5793 6.66897 10.4099 6.49305 9.1276 6.95351C8.93624 7.02219 8.73447 7.11164 8.52229 7.22187C8.29838 7.33823 8.14089 7.48651 7.96317 7.66607C7.2028 8.43463 6.65731 9.4512 6.65269 10.5395C6.65159 10.7864 6.68679 11.0502 6.76399 11.2932C6.8192 11.4671 6.87353 11.6396 6.92368 11.8185C7.60069 14.2301 8.2637 16.6453 8.91271 19.0643C8.9457 19.1872 8.98969 19.2661 9.06668 19.3584C9.67771 20.092 10.4583 20.3314 11.4085 20.0767C11.4799 20.0574 11.5255 20.0406 11.5453 20.0261C12.7632 19.1329 14.0482 18.3379 15.2489 17.4211C15.7889 17.0086 16.2958 16.5593 16.7694 16.0734C18.5471 14.2495 19.1586 11.6836 18.7717 9.21674C18.3003 6.20814 16.4217 3.50355 13.5192 2.36559C12.9066 2.12522 12.1238 2.00034 11.5079 2.30282C11.2189 2.44454 10.9787 2.66982 10.799 2.9349C10.791 2.94685 10.7154 3.07181 10.5723 3.30977C9.86899 4.47959 9.16793 5.64911 8.46906 6.81835C8.46829 6.81956 8.46796 6.82101 8.46812 6.82244C8.46828 6.82387 8.46893 6.8252 8.46995 6.82622C8.47097 6.82723 8.47231 6.82787 8.47375 6.82803C8.47519 6.82819 8.47664 6.82786 8.47786 6.8271C8.7855 6.64367 9.11067 6.50326 9.45335 6.40586C9.76393 6.3175 10.0792 6.29213 10.3992 6.32974C10.4049 6.3304 10.4106 6.32944 10.4158 6.32696C10.421 6.32448 10.4254 6.32059 10.4284 6.31575C10.9567 5.4651 11.4856 4.61548 12.0151 3.76688C12.0578 3.69835 12.0941 3.65446 12.124 3.63521C12.5943 3.33426 14.7804 5.1756 15.1825 5.51286C15.6117 5.873 15.9628 6.26581 16.2358 6.69128C16.8939 7.71638 17.2443 8.94248 17.3092 10.1515C17.3754 11.3855 17.1682 12.6074 16.5712 13.6842C16.2202 14.3175 15.7963 14.9074 15.2995 15.4538C15.1199 15.6512 14.9577 15.8052 14.8132 15.9157C13.5891 16.8509 12.3655 17.7868 11.1424 18.7235C11.1016 18.7547 11.0452 18.7739 10.973 18.7812C10.5445 18.825 10.1717 18.6804 10.0714 18.2283C10.0421 18.0965 10.0272 18.0297 10.0268 18.028C9.84934 17.3764 9.67221 16.7247 9.49537 16.0729C9.4043 15.7379 9.29125 15.4037 9.20899 15.0706ZM11.9646 22.6024C11.2598 23.6887 10.6734 24.8737 10.314 26.1186C10.2985 26.1724 10.3066 26.1761 10.3382 26.1297C11.1908 24.8797 12.141 23.6916 13.189 22.5654C13.2948 22.4517 13.3965 22.3468 13.4943 22.2507C14.4489 21.3133 15.5329 20.4964 16.628 19.7545C17.4266 19.2132 18.6074 18.4499 19.5949 17.7281C19.8928 17.5105 20.2207 17.3102 20.5231 17.0827C20.7473 16.9143 21.0354 16.6702 21.1265 16.3649C21.1272 16.3624 21.1274 16.3598 21.1271 16.3573C21.1267 16.3547 21.1258 16.3523 21.1244 16.3501C21.123 16.3479 21.1212 16.346 21.119 16.3446C21.1168 16.3431 21.1143 16.3422 21.1117 16.3417C20.5425 16.2516 19.9405 16.322 19.384 16.4583C17.8622 16.831 16.4802 17.6787 15.2698 18.648C15.1578 18.7377 15.0487 18.8351 14.9427 18.9402C13.8182 20.0542 12.8254 21.2749 11.9646 22.6024Z"
        fill="#F3A195" />
    <path
        d="M9.20915 15.0708C9.29141 15.4039 9.40447 15.7381 9.49553 16.0732C9.67237 16.7249 9.84951 17.3766 10.0269 18.0283C10.0274 18.03 10.0423 18.0968 10.0716 18.2286C10.1719 18.6807 10.5447 18.8252 10.9732 18.7815C11.0453 18.7742 11.1018 18.755 11.1425 18.7238C12.3656 17.7871 13.5892 16.8511 14.8133 15.9159C14.9579 15.8054 15.12 15.6514 15.2996 15.454C15.7964 14.9077 16.2204 14.3178 16.5714 13.6844C17.1684 12.6077 17.3756 11.3857 17.3094 10.1518C17.2445 8.94274 16.8941 7.71664 16.236 6.69153C15.9629 6.26606 15.6118 5.87326 15.1826 5.51311C14.7806 5.17586 12.5944 3.33452 12.1242 3.63547C12.0943 3.65472 12.058 3.6986 12.0153 3.76713C11.4858 4.61574 10.9569 5.46536 10.4286 6.316C10.4255 6.32085 10.4212 6.32474 10.416 6.32722C10.4108 6.3297 10.405 6.33066 10.3993 6.33C10.0794 6.29238 9.76409 6.31775 9.45352 6.40611C9.11083 6.50351 8.78567 6.64393 8.47803 6.82735C8.4768 6.82812 8.47535 6.82845 8.47391 6.82829C8.47248 6.82813 8.47114 6.82749 8.47011 6.82647C8.46909 6.82546 8.46844 6.82412 8.46828 6.82269C8.46812 6.82126 8.46846 6.81982 8.46923 6.8186C9.16809 5.64937 9.86915 4.47984 10.5724 3.31002C10.7155 3.07207 10.7911 2.94711 10.7992 2.93515C10.9789 2.67007 11.2191 2.4448 11.5081 2.30307C12.124 2.0006 12.9068 2.12548 13.5193 2.36585C16.4218 3.5038 18.3005 6.2084 18.7718 9.217C19.1587 11.6839 18.5472 14.2498 16.7696 16.0736C16.296 16.5596 15.7891 17.0088 15.2491 17.4213C14.0483 18.3382 12.7634 19.1332 11.5455 20.0264C11.5257 20.0408 11.4801 20.0577 11.4087 20.0769C10.4585 20.3317 9.67787 20.0922 9.06684 19.3587C8.98986 19.2664 8.94587 19.1874 8.91287 19.0645C8.26387 16.6456 7.60085 14.2303 6.92384 11.8188C6.87369 11.6399 6.81936 11.4673 6.76415 11.2935C6.68695 11.0505 6.65176 10.7867 6.65286 10.5398C6.65748 9.45146 7.20296 8.43489 7.96334 7.66633C8.14106 7.48677 8.29854 7.33848 8.52246 7.22213C8.73464 7.1119 8.93641 7.02244 9.12777 6.95377C10.4101 6.49331 11.5795 6.66922 12.636 7.48152C12.989 7.75301 13.3004 8.07452 13.5704 8.44604C13.6252 8.52157 13.6718 8.60249 13.71 8.68881C14.2784 9.97046 14.259 11.3195 13.562 12.5335C13.3997 12.8163 13.2063 13.076 12.9818 13.3126C12.9624 13.3329 12.9286 13.3612 12.8802 13.3977C11.8257 14.19 10.7718 14.9843 9.71856 15.7805C9.71716 15.7816 9.71551 15.7823 9.71377 15.7826C9.71203 15.7829 9.71024 15.7827 9.70857 15.7822C9.7069 15.7816 9.70539 15.7807 9.70418 15.7794C9.70297 15.7781 9.70209 15.7766 9.70162 15.7749C9.58388 15.3434 9.45322 14.9144 9.30967 14.4877C9.29603 14.4472 9.28826 14.411 9.28635 14.379C9.28615 14.3752 9.28688 14.3713 9.28848 14.3678C9.29009 14.3642 9.29253 14.3611 9.29559 14.3587C10.033 13.789 10.7718 13.2215 11.5121 12.656C11.8811 12.3741 12.2874 12.039 12.5117 11.6233C12.5414 11.5684 12.5645 11.5039 12.581 11.4297C12.6038 11.3274 12.626 11.225 12.6477 11.1226C12.8819 10.0127 12.6404 8.95826 11.5409 8.42811C11.2473 8.28667 10.9344 8.18723 10.6021 8.12978C10.5197 8.11549 10.4376 8.11141 10.3558 8.11753C9.70206 8.16718 9.05826 8.41958 8.63111 8.91736C8.2198 9.39722 8.03592 10.0877 8.0544 10.7099C8.05645 10.7776 8.06774 10.8492 8.08827 10.9247C8.42245 12.1523 8.75634 13.38 9.08994 14.608C9.12557 14.7388 9.16531 14.8931 9.20915 15.0708Z"
        fill="white" />
    <path
        d="M10.3143 26.119C10.6737 24.8741 11.2601 23.6891 11.9648 22.6027C12.8257 21.2753 13.8185 20.0546 14.943 18.9406C15.049 18.8355 15.158 18.7381 15.2701 18.6484C16.4805 17.6791 17.8624 16.8314 19.3843 16.4587C19.9408 16.3224 20.5428 16.252 21.112 16.3421C21.1146 16.3425 21.1171 16.3435 21.1193 16.3449C21.1215 16.3464 21.1233 16.3482 21.1247 16.3504C21.1261 16.3526 21.127 16.3551 21.1274 16.3577C21.1277 16.3602 21.1275 16.3628 21.1268 16.3653C21.0357 16.6706 20.7476 16.9147 20.5234 17.0831C20.221 17.3106 19.893 17.5109 19.5952 17.7285C18.6076 18.4503 17.4269 19.2136 16.6283 19.7549C15.5331 20.4968 14.4492 21.3136 13.4946 22.251C13.3968 22.3471 13.295 22.452 13.1893 22.5658C12.1413 23.692 11.191 24.8801 10.3385 26.1301C10.3068 26.1765 10.2988 26.1728 10.3143 26.119Z"
        fill="white" />
    <path
        d="M21.5291 32.8306L22.9553 32.8302C22.9596 32.8302 22.9637 32.8319 22.9668 32.8349C22.9698 32.838 22.9715 32.8421 22.9715 32.8464L22.9724 33.0762C22.9725 33.0784 22.9721 33.0805 22.9713 33.0825C22.9704 33.0845 22.9693 33.0863 22.9677 33.0878C22.9662 33.0894 22.9644 33.0906 22.9624 33.0914C22.9604 33.0922 22.9583 33.0926 22.9562 33.0926L21.5315 33.092C21.5208 33.092 21.5155 33.0973 21.5155 33.108C21.5147 34.2937 21.5147 35.4806 21.5155 36.6688C21.5157 36.8851 21.5438 37.2753 21.6716 37.4568C21.925 37.8166 22.7611 37.5745 23.0848 37.4288L23.0888 37.4279L23.0929 37.4286L23.0964 37.431L23.0987 37.4345L23.1836 37.6639C23.1853 37.6685 23.1851 37.6735 23.183 37.6779C23.1809 37.6824 23.1772 37.6858 23.1726 37.6876C22.701 37.8685 22.2162 37.9351 21.718 37.8875C21.3199 37.8492 20.9363 37.7035 20.7793 37.3026C20.7045 37.1118 20.667 36.8888 20.6667 36.6336C20.6655 35.4577 20.6651 34.2833 20.6656 33.1106C20.6656 33.1056 20.6636 33.1008 20.66 33.0973C20.6565 33.0938 20.6517 33.0918 20.6466 33.0918L20.4832 33.0924C20.4807 33.0924 20.4781 33.0919 20.4758 33.0909C20.4734 33.09 20.4713 33.0885 20.4695 33.0867C20.4677 33.0849 20.4662 33.0828 20.4653 33.0804C20.4643 33.078 20.4638 33.0755 20.4639 33.073L20.4654 32.8411C20.4655 32.8381 20.4667 32.8353 20.4688 32.8332C20.471 32.8311 20.4738 32.83 20.4768 32.83L20.6475 32.8304C20.6499 32.8304 20.6522 32.83 20.6543 32.8291C20.6565 32.8282 20.6585 32.8269 20.6601 32.8253C20.6618 32.8237 20.6631 32.8217 20.664 32.8196C20.6649 32.8175 20.6653 32.8152 20.6653 32.8129L20.666 31.8797C20.666 31.8712 20.6703 31.867 20.6788 31.867L21.5001 31.8652C21.5041 31.8652 21.508 31.8668 21.5108 31.8697C21.5136 31.8725 21.5152 31.8763 21.5152 31.8803V32.8169C21.5152 32.8205 21.5167 32.824 21.5193 32.8266C21.5219 32.8292 21.5254 32.8306 21.5291 32.8306Z"
        fill="black" />
    <path
        d="M1.15305 34.9473C1.15011 34.9473 1.14727 34.9484 1.14511 34.9504C1.14295 34.9523 1.14162 34.9551 1.1414 34.958C1.09286 35.4666 1.12233 35.9675 1.22982 36.4608C1.34111 36.9725 1.6816 37.4681 2.21697 37.6C2.32621 37.6269 2.47175 37.6394 2.65357 37.6377C3.20859 37.6324 3.74938 37.5282 4.27595 37.3249C4.27829 37.324 4.27998 37.3247 4.281 37.3269L4.36987 37.539C4.37108 37.5419 4.37171 37.5449 4.37171 37.548C4.37171 37.5511 4.37109 37.5542 4.36988 37.557C4.36867 37.5599 4.36689 37.5625 4.36466 37.5646C4.36243 37.5668 4.35979 37.5685 4.35689 37.5696C3.80363 37.7866 3.23066 37.8962 2.63796 37.8984C2.4576 37.8991 2.31103 37.8936 2.19827 37.882C1.55975 37.8159 0.961476 37.4804 0.629347 36.9275C0.451405 36.6314 0.350667 36.2648 0.313934 35.9186C0.254987 35.3646 0.2871 34.7826 0.471421 34.2575C0.839842 33.2081 1.8547 32.6655 2.93423 32.8061C3.36197 32.8619 3.72775 33.035 4.03158 33.3253C4.47258 33.7468 4.56496 34.3594 4.54561 34.937C4.54549 34.9399 4.54426 34.9426 4.54217 34.9446C4.54008 34.9466 4.53729 34.9477 4.53439 34.9477L1.15305 34.9473ZM2.91224 33.1024C2.49015 32.9566 2.06916 33.095 1.76078 33.4075C1.42228 33.7505 1.24565 34.2082 1.17593 34.6763L1.17613 34.6806L1.17819 34.6845L1.18171 34.6871L1.18605 34.6881L3.69901 34.6883L3.7045 34.6872L3.70912 34.6841L3.71214 34.6794L3.71309 34.6739C3.69989 34.0941 3.54856 33.3227 2.91224 33.1024Z"
        fill="black" />
    <path
        d="M11.0122 34.9472C11.0076 34.9472 11.0031 34.9489 10.9997 34.952C10.9963 34.9552 10.9942 34.9594 10.9937 34.9641C10.9568 35.4038 10.973 35.8362 11.0426 36.2612C11.1202 36.7367 11.3263 37.186 11.7176 37.4488C11.8826 37.5597 12.0709 37.6199 12.2826 37.6295C12.9157 37.6581 13.5317 37.5567 14.1307 37.3253L14.1334 37.3253L14.1353 37.327L14.2246 37.5379C14.2259 37.5409 14.2265 37.5442 14.2265 37.5475C14.2265 37.5508 14.2258 37.5541 14.2245 37.5571C14.2232 37.5601 14.2213 37.5629 14.219 37.5652C14.2166 37.5675 14.2138 37.5693 14.2108 37.5705C13.5273 37.8368 12.8167 37.9412 12.079 37.8836C11.7266 37.8562 11.394 37.7416 11.0813 37.5398C10.512 37.1731 10.2461 36.5952 10.1715 35.9415C10.0756 35.101 10.1828 34.1555 10.7795 33.5009C11.1288 33.1178 11.5621 32.8878 12.0794 32.8108C12.4709 32.7527 12.8798 32.78 13.2493 32.9224C13.8501 33.1538 14.2181 33.5871 14.3533 34.2224C14.4008 34.4448 14.4056 34.6981 14.4017 34.9345C14.4015 34.9433 14.3971 34.9477 14.3883 34.9477L11.0122 34.9472ZM13.5665 34.6747C13.5588 33.9783 13.3085 33.0451 12.4298 33.0455C11.5876 33.046 11.1253 33.9742 11.0322 34.6791L11.0325 34.6825L11.0342 34.6854L11.0369 34.6874L11.0401 34.688L13.5531 34.6883L13.5583 34.6872L13.5627 34.6843L13.5656 34.6799L13.5665 34.6747Z"
        fill="black" />
    <path
        d="M15.9384 33.6129C16.1118 33.3645 16.3369 33.1582 16.6134 32.9939C16.8965 32.8259 17.1809 32.7715 17.5031 32.7839C17.8012 32.7957 18.0981 32.8237 18.3706 32.9263C18.8305 33.0995 19.0107 33.4781 19.0408 33.9486C19.0423 33.9728 19.0431 34.0802 19.0432 34.2707C19.0437 35.2304 19.0451 36.1902 19.0476 37.1499C19.0481 37.3607 19.1521 37.5978 19.398 37.598C19.5203 37.5981 19.6426 37.5982 19.7649 37.5982C19.7722 37.5982 19.7759 37.6019 19.7759 37.6094L19.777 37.8449C19.777 37.8483 19.7757 37.8514 19.7733 37.8538C19.771 37.8562 19.7678 37.8576 19.7645 37.8576C19.3756 37.8621 19.1161 37.862 18.986 37.8572C18.642 37.8443 18.2536 37.6352 18.2032 37.2642C18.1933 37.1915 18.1883 37.1278 18.1883 37.0733C18.1887 36.0573 18.1886 35.0413 18.1878 34.0251C18.1876 33.7425 18.1557 33.357 17.9105 33.1724C17.8484 33.1257 17.7654 33.0922 17.6613 33.0718C17.0021 32.9423 16.501 33.2931 16.126 33.7926C15.9905 33.9729 15.9111 34.1406 15.9111 34.3659C15.911 35.5253 15.9109 36.6849 15.9109 37.8445C15.9109 37.8465 15.9105 37.8485 15.9097 37.8503C15.9089 37.8522 15.9078 37.8538 15.9064 37.8552C15.9049 37.8566 15.9032 37.8578 15.9014 37.8585C15.8995 37.8592 15.8975 37.8596 15.8955 37.8596L15.0869 37.8594C15.0693 37.8592 15.0605 37.8505 15.0605 37.8331V32.8305C15.0605 32.828 15.0616 32.8256 15.0634 32.8239C15.0652 32.8221 15.0677 32.8211 15.0702 32.8211L15.8968 32.8202C15.9005 32.8202 15.9041 32.8217 15.9068 32.8243C15.9094 32.827 15.9109 32.8305 15.9109 32.8342L15.9104 33.6041C15.9104 33.6365 15.9198 33.6394 15.9384 33.6129Z"
        fill="black" />
    <path
        d="M25.4908 34.5947C25.9001 34.7627 26.3073 34.9405 26.7001 35.1441C27.2231 35.4155 27.5128 35.8374 27.5306 36.4441C27.5522 37.186 26.9647 37.691 26.2848 37.8295C25.8835 37.9111 25.4775 37.9233 25.0669 37.866C24.6796 37.8117 24.298 37.665 24.0167 37.3888C24.0145 37.3866 24.0127 37.384 24.0115 37.3812C24.0103 37.3784 24.0097 37.3754 24.0097 37.3723C24.0097 37.3693 24.0102 37.3663 24.0114 37.3634C24.0126 37.3606 24.0143 37.3581 24.0164 37.3559L24.1768 37.1945C24.1785 37.1928 24.1805 37.1914 24.1828 37.1905C24.1851 37.1895 24.1875 37.1891 24.19 37.1891C24.1924 37.1891 24.1949 37.1896 24.1971 37.1906C24.1994 37.1916 24.2015 37.193 24.2032 37.1948C24.5767 37.5812 25.4178 37.7356 25.9305 37.5779C26.5109 37.3995 26.8186 36.8689 26.6385 36.2753C26.5298 35.9177 26.1478 35.6528 25.8143 35.5177C25.5067 35.393 25.1991 35.2679 24.8916 35.1424C24.7566 35.0872 24.6119 34.9963 24.4577 34.8696C24.1247 34.5962 23.9584 34.2881 24.0013 33.8476C24.0519 33.3244 24.3442 33.0484 24.8215 32.91C25.3406 32.7593 25.8696 32.7419 26.4087 32.8577C26.6544 32.9105 26.8783 33.0088 27.0802 33.1527C27.0833 33.155 27.0855 33.1584 27.0861 33.1622C27.0868 33.166 27.0859 33.1699 27.0837 33.1731L26.9398 33.3809L26.9363 33.3841L26.9317 33.3857L26.927 33.3852L26.9229 33.3828C26.8503 33.3155 26.7769 33.2657 26.7025 33.2337C26.3425 33.0782 25.9571 33.0192 25.5462 33.0565C25.204 33.0878 24.9552 33.277 24.8622 33.6053C24.7243 34.0912 25.0826 34.4272 25.4908 34.5947Z"
        fill="black" />
    <path
        d="M7.57972 36.6912L7.58223 36.6946L7.58621 36.696L7.59031 36.695L7.59314 36.6919C8.05049 35.7457 8.50565 34.805 8.95861 33.8698C9.0067 33.7704 9.0375 33.6878 9.05099 33.6222C9.09718 33.3976 9.08596 33.1568 8.89196 33.0015C8.88976 32.9998 8.88796 32.9976 8.88667 32.9951C8.88538 32.9926 8.88462 32.9898 8.88446 32.987C8.88429 32.9842 8.88472 32.9814 8.88571 32.9788C8.8867 32.9762 8.88823 32.9738 8.8902 32.9718L9.03691 32.8248C9.04248 32.8193 9.04915 32.8173 9.05693 32.8189C9.1559 32.8386 9.25246 32.988 9.29206 33.0724C9.37982 33.2594 9.35738 33.5067 9.30855 33.7053C9.28861 33.7867 9.24315 33.9029 9.17218 34.054C8.57669 35.3225 7.98018 36.5906 7.38264 37.8582C7.38095 37.8618 7.37829 37.8648 7.37498 37.8668C7.37167 37.8689 7.36785 37.8701 7.36395 37.8701L7.16929 37.8714C7.16505 37.8714 7.16091 37.8701 7.15744 37.8677C7.15397 37.8652 7.15135 37.8618 7.14993 37.8578L5.32081 32.8421L5.32039 32.838L5.3219 32.8341L5.32498 32.8314L5.32894 32.8305L6.16697 32.8309C6.17116 32.8309 6.17526 32.8322 6.17872 32.8346C6.18218 32.8371 6.18484 32.8405 6.18632 32.8445L7.57972 36.6912Z"
        fill="black" />
</svg>
