<svg width="32" height="44" viewBox="0 0 32 44" fill="none" xmlns="http://www.w3.org/2000/svg">
<path d="M10.6082 17.3601C10.703 17.7438 10.8332 18.1288 10.9381 18.5147C11.1418 19.2655 11.3458 20.0161 11.5502 20.7667C11.5507 20.7687 11.5679 20.8456 11.6017 20.9975C11.7172 21.5182 12.1466 21.6847 12.6402 21.6343C12.7233 21.6259 12.7883 21.6038 12.8352 21.5678C14.2441 20.4889 15.6535 19.4108 17.0635 18.3336C17.2301 18.2063 17.4168 18.0289 17.6237 17.8015C18.1959 17.1722 18.6842 16.4928 19.0886 15.7632C19.7762 14.5229 20.0149 13.1154 19.9386 11.694C19.8639 10.3014 19.4603 8.88908 18.7022 7.70829C18.3877 7.21821 17.9833 6.76575 17.4889 6.3509C17.0258 5.96243 14.5077 3.84145 13.966 4.1881C13.9315 4.21027 13.8897 4.26083 13.8406 4.33977C13.2307 5.31725 12.6214 6.2959 12.0129 7.27573C12.0093 7.28131 12.0043 7.28579 11.9984 7.28865C11.9924 7.2915 11.9857 7.29261 11.9792 7.29185C11.6106 7.24852 11.2475 7.27775 10.8897 7.37952C10.495 7.49172 10.1204 7.65345 9.76608 7.86474L9.76134 7.86582L9.75697 7.86372L9.75486 7.85937L9.75595 7.85466C10.5609 6.50785 11.3685 5.16071 12.1785 3.81324C12.3434 3.53914 12.4305 3.3952 12.4398 3.38143C12.6468 3.0761 12.9234 2.81661 13.2563 2.65336C13.9657 2.30495 14.8674 2.4488 15.573 2.72566C18.9163 4.03644 21.0802 7.15178 21.6232 10.6173C22.0688 13.4588 21.3645 16.4144 19.3169 18.5152C18.7713 19.075 18.1875 19.5925 17.5654 20.0676C16.1823 21.1237 14.7022 22.0394 13.2994 23.0683C13.2766 23.0849 13.2241 23.1043 13.1418 23.1265C12.0473 23.4199 11.1481 23.1442 10.4443 22.2992C10.3556 22.1929 10.305 22.1019 10.267 21.9603C9.5194 19.174 8.75569 16.392 7.97586 13.6142C7.9181 13.4082 7.85552 13.2094 7.79192 13.0091C7.703 12.7292 7.66246 12.4254 7.66372 12.141C7.66905 10.8874 8.29737 9.71641 9.17323 8.83113C9.37794 8.6243 9.55934 8.45349 9.81726 8.31947C10.0617 8.1925 10.2941 8.08946 10.5145 8.01035C11.9916 7.47996 13.3386 7.68259 14.5555 8.61825C14.9621 8.93098 15.3208 9.30131 15.6318 9.72925C15.695 9.81625 15.7486 9.90947 15.7927 10.0089C16.4474 11.4852 16.4251 13.0391 15.6222 14.4375C15.4352 14.7632 15.2124 15.0623 14.9538 15.3349C14.9315 15.3582 14.8925 15.3909 14.8368 15.4329C13.6222 16.3455 12.4083 17.2605 11.195 18.1776C11.1934 18.1789 11.1915 18.1797 11.1895 18.18C11.1875 18.1803 11.1854 18.1802 11.1835 18.1795C11.1816 18.1789 11.1798 18.1778 11.1784 18.1763C11.1771 18.1748 11.176 18.173 11.1755 18.1711C11.0399 17.6741 10.8894 17.1799 10.724 16.6885C10.7083 16.6418 10.6994 16.6001 10.6972 16.5633C10.6969 16.5588 10.6978 16.5544 10.6996 16.5503C10.7015 16.5462 10.7043 16.5427 10.7078 16.5399C11.5572 15.8837 12.4083 15.2299 13.2609 14.5786C13.686 14.2539 14.154 13.8679 14.4124 13.389C14.4465 13.3259 14.4731 13.2515 14.4922 13.1661C14.5184 13.0482 14.544 12.9302 14.569 12.8123C14.8388 11.5338 14.5606 10.3193 13.2941 9.7086C12.9559 9.54568 12.5955 9.43114 12.2128 9.36497C12.1178 9.34851 12.0232 9.3438 11.929 9.35086C11.176 9.40805 10.4344 9.69877 9.94242 10.2722C9.46864 10.8249 9.25683 11.6202 9.27812 12.337C9.28048 12.4149 9.29349 12.4974 9.31713 12.5844C9.70207 13.9983 10.0867 15.4126 10.4709 16.8271C10.512 16.9777 10.5577 17.1554 10.6082 17.3601Z" fill="white"/>
<path d="M11.8803 30.0859C12.2943 28.6519 12.9697 27.287 13.7815 26.0357C14.7731 24.5066 15.9166 23.1005 17.212 21.8174C17.3341 21.6963 17.4597 21.5841 17.5887 21.4808C18.9829 20.3643 20.5748 19.3878 22.3277 18.9585C22.9687 18.8016 23.6622 18.7204 24.3179 18.8242C24.3208 18.8247 24.3237 18.8258 24.3262 18.8275C24.3287 18.8292 24.3309 18.8313 24.3325 18.8339C24.3341 18.8364 24.3351 18.8392 24.3355 18.8422C24.3359 18.8451 24.3357 18.8481 24.3348 18.8509C24.2299 19.2026 23.898 19.4838 23.6399 19.6778C23.2915 19.9398 22.9138 20.1705 22.5707 20.4212C21.4331 21.2526 20.0731 22.1318 19.1532 22.7553C17.8917 23.6099 16.6432 24.5508 15.5436 25.6306C15.4309 25.7413 15.3137 25.8621 15.1919 25.9931C13.9848 27.2904 12.8902 28.6589 11.9082 30.0988C11.8717 30.1522 11.8624 30.1479 11.8803 30.0859Z" fill="white"/>
<path d="M32 9.53874V23.0642C32 25.594 30.9894 28.0201 29.1904 29.809C27.3914 31.5978 24.9515 32.6027 22.4074 32.6027H9.5926C7.04849 32.6027 4.60857 31.5978 2.80961 29.809C1.01065 28.0201 0 25.594 0 23.0642V9.53848C0 7.00872 1.01065 4.58257 2.80961 2.79376C4.60857 1.00494 7.04849 0 9.5926 0L22.4074 0.000251927C24.9515 0.000251927 27.3914 1.0052 29.1904 2.79401C30.9894 4.58282 32 7.00897 32 9.53874ZM10.6075 17.3593C10.557 17.1546 10.5113 16.9769 10.4702 16.8262C10.086 15.4118 9.70138 13.9975 9.31644 12.5835C9.2928 12.4965 9.27979 12.4141 9.27743 12.3361C9.25614 11.6194 9.46795 10.8241 9.94173 10.2713C10.4337 9.69796 11.1753 9.40723 11.9283 9.35004C12.0225 9.34299 12.1171 9.34769 12.2121 9.36415C12.5948 9.43032 12.9552 9.54487 13.2934 9.70778C14.5599 10.3185 14.8381 11.533 14.5683 12.8115C14.5433 12.9294 14.5177 13.0473 14.4915 13.1652C14.4724 13.2507 14.4458 13.325 14.4117 13.3882C14.1533 13.8671 13.6853 14.2531 13.2602 14.5778C12.4076 15.2291 11.5565 15.8829 10.7071 16.5391C10.7036 16.5418 10.7008 16.5454 10.6989 16.5495C10.6971 16.5536 10.6962 16.558 10.6965 16.5625C10.6987 16.5993 10.7076 16.641 10.7233 16.6877C10.8887 17.1791 11.0392 17.6733 11.1748 18.1703C11.1754 18.1722 11.1764 18.174 11.1778 18.1755C11.1792 18.177 11.1809 18.1781 11.1828 18.1787C11.1847 18.1794 11.1868 18.1795 11.1888 18.1792C11.1908 18.1789 11.1927 18.1781 11.1943 18.1768C12.4076 17.2596 13.6215 16.3447 14.8361 15.4321C14.8918 15.3901 14.9308 15.3574 14.9531 15.3341C15.2117 15.0615 15.4345 14.7624 15.6215 14.4367C16.4244 13.0383 16.4467 11.4844 15.792 10.0081C15.7479 9.90865 15.6943 9.81544 15.6311 9.72844C15.3202 9.3005 14.9614 8.93016 14.5549 8.61744C13.3379 7.68178 11.9909 7.47914 10.5138 8.00954C10.2934 8.08864 10.061 8.19168 9.81657 8.31865C9.55865 8.45268 9.37725 8.62348 9.17254 8.83032C8.29668 9.71559 7.66836 10.8865 7.66303 12.1401C7.66177 12.4246 7.70231 12.7284 7.79123 13.0083C7.85483 13.2086 7.91741 13.4073 7.97517 13.6134C8.755 16.3912 9.51871 19.1732 10.2663 21.9595C10.3043 22.1011 10.355 22.1921 10.4436 22.2984C11.1475 23.1433 12.0466 23.4191 13.1411 23.1257C13.2234 23.1035 13.2759 23.0841 13.2987 23.0675C14.7015 22.0386 16.1817 21.1229 17.5647 20.0668C18.1868 19.5917 18.7706 19.0742 19.3162 18.5144C21.3638 16.4136 22.0682 13.458 21.6225 10.6165C21.0796 7.15097 18.9156 4.03563 15.5723 2.72485C14.8667 2.44798 13.965 2.30413 13.2556 2.65255C12.9227 2.8158 12.6461 3.07528 12.4391 3.38062C12.4298 3.39439 12.3427 3.53832 12.1779 3.81242C11.3678 5.1599 10.5603 6.50704 9.75526 7.85384L9.75417 7.85855L9.75628 7.86291L9.76065 7.865L9.76539 7.86392C10.1198 7.65264 10.4943 7.4909 10.889 7.37871C11.2468 7.27693 11.6099 7.24771 11.9785 7.29104C11.985 7.2918 11.9917 7.29069 11.9977 7.28783C12.0036 7.28498 12.0087 7.2805 12.0122 7.27491C12.6207 6.29508 13.23 5.31643 13.8399 4.33895C13.889 4.26001 13.9308 4.20946 13.9653 4.18729C14.507 3.84064 17.0251 5.96162 17.4882 6.35009C17.9826 6.76493 18.387 7.21739 18.7015 7.70747C19.4596 8.88826 19.8632 10.3006 19.9379 11.6932C20.0142 13.1146 19.7755 14.5221 19.0879 15.7624C18.6836 16.4919 18.1953 17.1714 17.623 17.8007C17.4161 18.0281 17.2294 18.2055 17.0628 18.3328C15.6528 19.41 14.2434 20.4881 12.8346 21.567C12.7876 21.603 12.7226 21.6251 12.6395 21.6335C12.1459 21.6839 11.7165 21.5174 11.601 20.9967C11.5672 20.8448 11.55 20.7679 11.5495 20.7659C11.3452 20.0153 11.1411 19.2647 10.9374 18.5139C10.8325 18.128 10.7023 17.743 10.6075 17.3593ZM13.7815 26.0357C12.9697 27.287 12.2943 28.6519 11.8803 30.0859C11.8624 30.1479 11.8717 30.1522 11.9082 30.0988C12.8902 28.6589 13.9848 27.2904 15.1919 25.9931C15.3137 25.8621 15.4309 25.7413 15.5436 25.6306C16.6432 24.5508 17.8917 23.6099 19.1532 22.7553C20.0731 22.1318 21.4331 21.2526 22.5707 20.4212C22.9138 20.1705 23.2915 19.9398 23.6399 19.6778C23.898 19.4838 24.2299 19.2026 24.3348 18.8509C24.3357 18.8481 24.3359 18.8451 24.3355 18.8422C24.3351 18.8392 24.3341 18.8364 24.3325 18.8339C24.3309 18.8313 24.3287 18.8292 24.3262 18.8275C24.3237 18.8258 24.3208 18.8247 24.3179 18.8242C23.6622 18.7204 22.9687 18.8016 22.3277 18.9585C20.5748 19.3878 18.9829 20.3643 17.5887 21.4808C17.4597 21.5841 17.3341 21.6963 17.212 21.8174C15.9166 23.1005 14.7731 24.5066 13.7815 26.0357Z" fill="#F3A195"/>
<path d="M24.7991 37.8161L26.4418 37.8156C26.4468 37.8156 26.4516 37.8176 26.4551 37.8211C26.4586 37.8246 26.4606 37.8293 26.4606 37.8342L26.4616 38.099C26.4616 38.1015 26.4612 38.1039 26.4602 38.1062C26.4593 38.1085 26.4579 38.1106 26.4562 38.1124C26.4544 38.1141 26.4524 38.1155 26.4501 38.1165C26.4478 38.1174 26.4453 38.1179 26.4428 38.1179L24.8018 38.1172C24.7895 38.1172 24.7833 38.1233 24.7833 38.1356C24.7825 39.5013 24.7825 40.8685 24.7833 42.2372C24.7836 42.4863 24.816 42.9358 24.9632 43.1449C25.2551 43.5593 26.2181 43.2804 26.591 43.1126L26.5957 43.1115L26.6004 43.1124L26.6044 43.1151L26.607 43.1192L26.7048 43.3835C26.7067 43.3887 26.7065 43.3945 26.7041 43.3996C26.7018 43.4047 26.6975 43.4087 26.6921 43.4107C26.1489 43.6191 25.5905 43.6959 25.0167 43.6409C24.5581 43.5968 24.1163 43.4291 23.9354 42.9673C23.8492 42.7474 23.806 42.4905 23.8056 42.1966C23.8043 40.8421 23.8039 39.4894 23.8044 38.1386C23.8044 38.1328 23.8021 38.1273 23.798 38.1233C23.7939 38.1192 23.7884 38.1169 23.7826 38.1169L23.5943 38.1177C23.5914 38.1177 23.5885 38.1171 23.5858 38.116C23.583 38.1148 23.5806 38.1132 23.5785 38.1111C23.5764 38.109 23.5748 38.1065 23.5737 38.1038C23.5726 38.1011 23.572 38.0982 23.572 38.0952L23.5738 37.8282C23.5739 37.8248 23.5753 37.8215 23.5778 37.8191C23.5802 37.8167 23.5835 37.8154 23.587 37.8154L23.7836 37.8159C23.7863 37.8159 23.789 37.8153 23.7915 37.8143C23.7939 37.8133 23.7962 37.8118 23.7981 37.81C23.8 37.8081 23.8015 37.8059 23.8026 37.8034C23.8036 37.801 23.8041 37.7984 23.8041 37.7957L23.8049 36.7207C23.8049 36.711 23.8098 36.7061 23.8196 36.7061L24.7656 36.7041C24.7702 36.7041 24.7747 36.7059 24.778 36.7092C24.7812 36.7125 24.7831 36.7169 24.7831 36.7215V37.8002C24.7831 37.8044 24.7848 37.8085 24.7878 37.8115C24.7908 37.8144 24.7948 37.8161 24.7991 37.8161Z" fill="white"/>
<path d="M1.32851 40.2542C1.32512 40.2542 1.32185 40.2555 1.31936 40.2578C1.31687 40.26 1.31534 40.2632 1.31508 40.2666C1.25918 40.8524 1.29313 41.4294 1.41693 41.9976C1.54513 42.5871 1.93733 43.1579 2.554 43.3098C2.67983 43.3407 2.84747 43.3552 3.05691 43.3532C3.69622 43.3471 4.31914 43.227 4.92567 42.9929C4.92838 42.9919 4.93032 42.9927 4.9315 42.9952L5.03386 43.2396C5.03525 43.2428 5.03598 43.2464 5.03598 43.2499C5.03598 43.2535 5.03526 43.257 5.03387 43.2603C5.03248 43.2636 5.03044 43.2666 5.02787 43.2691C5.0253 43.2716 5.02225 43.2735 5.01891 43.2748C4.38163 43.5247 3.72164 43.651 3.03892 43.6535C2.83117 43.6543 2.66235 43.648 2.53246 43.6346C1.79697 43.5585 1.10784 43.172 0.725268 42.5352C0.520302 42.1941 0.404264 41.7718 0.361954 41.373C0.294054 40.7349 0.331044 40.0645 0.543357 39.4596C0.96773 38.2509 2.13672 37.6258 3.3802 37.7878C3.87289 37.8522 4.29422 38.0515 4.64419 38.3859C5.15217 38.8714 5.25858 39.577 5.23629 40.2424C5.23616 40.2457 5.23474 40.2488 5.23233 40.2511C5.22992 40.2534 5.22671 40.2547 5.22337 40.2547L1.32851 40.2542ZM3.35486 38.1292C2.86867 37.9612 2.38374 38.1206 2.02854 38.4806C1.63862 38.8757 1.43517 39.403 1.35486 39.9421L1.35509 39.9471L1.35746 39.9515L1.36152 39.9546L1.36651 39.9557L4.26112 39.9559L4.26744 39.9547L4.27277 39.951L4.27625 39.9456L4.27733 39.9393C4.26213 39.2714 4.08782 38.3829 3.35486 38.1292Z" fill="white"/>
<path d="M12.685 40.2541C12.6796 40.2541 12.6745 40.2561 12.6706 40.2597C12.6666 40.2633 12.6642 40.2682 12.6637 40.2735C12.6211 40.7801 12.6399 41.2781 12.7199 41.7677C12.8094 42.3154 13.0468 42.8329 13.4975 43.1357C13.6875 43.2633 13.9044 43.3327 14.1483 43.3438C14.8775 43.3767 15.5871 43.2599 16.2771 42.9934L16.2802 42.9934L16.2824 42.9954L16.3852 43.2382C16.3867 43.2418 16.3874 43.2455 16.3874 43.2493C16.3874 43.2531 16.3866 43.2569 16.3851 43.2604C16.3836 43.2639 16.3815 43.267 16.3788 43.2697C16.376 43.2723 16.3728 43.2744 16.3693 43.2758C15.582 43.5826 14.7635 43.7029 13.9137 43.6365C13.5079 43.605 13.1248 43.4729 12.7645 43.2405C12.1088 42.818 11.8025 42.1524 11.7166 41.3994C11.6062 40.4313 11.7295 39.3422 12.4169 38.5882C12.8192 38.1469 13.3184 37.882 13.9142 37.7933C14.3652 37.7263 14.8362 37.7578 15.2619 37.9218C15.9539 38.1883 16.3777 38.6875 16.5335 39.4193C16.5882 39.6755 16.5938 39.9672 16.5892 40.2395C16.589 40.2496 16.5839 40.2547 16.5737 40.2547L12.685 40.2541ZM15.6272 39.9402C15.6183 39.1381 15.33 38.0631 14.3178 38.0636C13.3477 38.0641 12.8152 39.1333 12.708 39.9453L12.7084 39.9492L12.7103 39.9525L12.7134 39.9548L12.7171 39.9556L15.6117 39.9559L15.6177 39.9547L15.6228 39.9513L15.6261 39.9462L15.6272 39.9402Z" fill="white"/>
<path d="M18.3593 38.7171C18.5591 38.4311 18.8183 38.1935 19.1368 38.0042C19.4629 37.8107 19.7905 37.748 20.1617 37.7623C20.505 37.7759 20.847 37.8082 21.1609 37.9263C21.6907 38.1259 21.8982 38.5619 21.9329 39.1038C21.9346 39.1317 21.9355 39.2554 21.9357 39.4749C21.9362 40.5804 21.9379 41.6858 21.9407 42.7913C21.9412 43.0342 22.0611 43.3073 22.3443 43.3075C22.4852 43.3077 22.6261 43.3078 22.7669 43.3078C22.7754 43.3078 22.7796 43.312 22.7796 43.3206L22.7809 43.5919C22.7809 43.5958 22.7793 43.5994 22.7766 43.6022C22.7739 43.6049 22.7703 43.6065 22.7664 43.6065C22.3185 43.6117 22.0196 43.6116 21.8698 43.606C21.4735 43.5912 21.0261 43.3503 20.9681 42.9231C20.9566 42.8393 20.9509 42.7659 20.9509 42.7031C20.9514 41.5328 20.9512 40.3625 20.9504 39.192C20.9501 38.8665 20.9134 38.4224 20.6309 38.2097C20.5594 38.156 20.4637 38.1174 20.3438 38.0939C19.5845 37.9447 19.0074 38.3488 18.5754 38.9242C18.4193 39.1318 18.3279 39.325 18.3279 39.5845C18.3277 40.9201 18.3276 42.2557 18.3276 43.5914C18.3276 43.5937 18.3271 43.596 18.3263 43.5981C18.3254 43.6003 18.324 43.6022 18.3224 43.6038C18.3207 43.6054 18.3188 43.6067 18.3166 43.6076C18.3145 43.6084 18.3122 43.6088 18.3099 43.6088L17.3785 43.6086C17.3583 43.6084 17.3481 43.5983 17.3481 43.5783V37.816C17.3481 37.8131 17.3493 37.8104 17.3514 37.8083C17.3535 37.8063 17.3563 37.8051 17.3593 37.8051L18.3114 37.8041C18.3157 37.8041 18.3198 37.8058 18.3229 37.8089C18.3259 37.8119 18.3276 37.816 18.3276 37.8203L18.3271 38.7071C18.3271 38.7443 18.3378 38.7477 18.3593 38.7171Z" fill="white"/>
<path d="M29.3624 39.8481C29.8339 40.0416 30.3029 40.2464 30.7554 40.4809C31.3578 40.7936 31.6915 41.2795 31.712 41.9784C31.7369 42.8329 31.0602 43.4146 30.277 43.5741C29.8147 43.6682 29.3471 43.6822 28.8742 43.6162C28.428 43.5537 27.9884 43.3847 27.6644 43.0665C27.6619 43.064 27.6599 43.061 27.6585 43.0578C27.6571 43.0546 27.6564 43.0511 27.6563 43.0476C27.6563 43.044 27.657 43.0406 27.6583 43.0373C27.6597 43.0341 27.6617 43.0312 27.6642 43.0287L27.8489 42.8428C27.8508 42.8408 27.8532 42.8392 27.8558 42.8381C27.8584 42.837 27.8612 42.8365 27.864 42.8365C27.8669 42.8365 27.8697 42.8371 27.8723 42.8382C27.8749 42.8393 27.8773 42.841 27.8793 42.843C28.3095 43.2882 29.2783 43.466 29.8689 43.2844C30.5375 43.0788 30.8919 42.4676 30.6844 41.7839C30.5593 41.372 30.1192 41.0669 29.7351 40.9112C29.3807 40.7676 29.0265 40.6235 28.6723 40.4789C28.5167 40.4154 28.3501 40.3107 28.1724 40.1648C27.7888 39.8499 27.5973 39.4949 27.6467 38.9875C27.7049 38.3849 28.0417 38.067 28.5914 37.9075C29.1894 37.734 29.7988 37.7139 30.4197 37.8473C30.7027 37.9081 30.9606 38.0214 31.1932 38.1871C31.1968 38.1897 31.1993 38.1936 31.2 38.198C31.2008 38.2024 31.1998 38.2069 31.1972 38.2106L31.0315 38.4499L31.0274 38.4537L31.0222 38.4554L31.0167 38.4549L31.012 38.4522C30.9284 38.3746 30.8438 38.3173 30.7581 38.2803C30.3435 38.1013 29.8995 38.0333 29.4263 38.0763C29.032 38.1123 28.7455 38.3302 28.6383 38.7084C28.4795 39.2682 28.8922 39.6551 29.3624 39.8481Z" fill="white"/>
<path d="M8.73119 42.263L8.73408 42.2669L8.73866 42.2685L8.74339 42.2673L8.74665 42.2637C9.27346 41.1739 9.79774 40.0904 10.3195 39.0131C10.3749 38.8986 10.4104 38.8035 10.4259 38.7279C10.4791 38.4692 10.4662 38.1918 10.2427 38.013C10.2402 38.0109 10.2381 38.0084 10.2366 38.0055C10.2351 38.0027 10.2343 37.9995 10.2341 37.9963C10.2339 37.993 10.2344 37.9898 10.2355 37.9868C10.2367 37.9838 10.2384 37.981 10.2407 37.9787L10.4097 37.8094C10.4161 37.803 10.4238 37.8008 10.4327 37.8026C10.5467 37.8253 10.658 37.9973 10.7036 38.0946C10.8047 38.31 10.7788 38.5949 10.7226 38.8237C10.6996 38.9174 10.6472 39.0512 10.5655 39.2252C9.87957 40.6864 9.19247 42.1471 8.50418 43.6073C8.50223 43.6113 8.49917 43.6148 8.49536 43.6172C8.49155 43.6196 8.48714 43.6209 8.48265 43.6209L8.25843 43.6224C8.25354 43.6224 8.24877 43.6209 8.24478 43.6181C8.24078 43.6153 8.23776 43.6113 8.23613 43.6068L6.12922 37.8293L6.12874 37.8245L6.13048 37.8201L6.13402 37.817L6.13859 37.816L7.10388 37.8165C7.10871 37.8164 7.11344 37.8179 7.11742 37.8207C7.12141 37.8235 7.12447 37.8275 7.12618 37.8321L8.73119 42.263Z" fill="white"/>
</svg>
