<svg width="28" height="29" viewBox="0 0 28 29" fill="none" xmlns="http://www.w3.org/2000/svg">
<path d="M27.7809 8.28109V20.0233C27.7809 22.2195 26.9035 24.3258 25.3418 25.8788C23.78 27.4317 21.6618 28.3042 19.4531 28.3042H8.32786C6.11917 28.3042 4.00095 27.4317 2.43917 25.8788C0.877397 24.3258 0 22.2195 0 20.0233V8.28087C0 6.08465 0.877397 3.97838 2.43917 2.42541C4.00095 0.872447 6.11917 0 8.32786 0L19.4531 0.000218712C21.6618 0.000218712 23.78 0.872666 25.3418 2.42563C26.9035 3.9786 27.7809 6.08487 27.7809 8.28109ZM9.20899 15.0706C9.16514 14.8928 9.1254 14.7386 9.08977 14.6078C8.75618 13.3798 8.42229 12.152 8.08811 10.9244C8.06758 10.8489 8.05629 10.7773 8.05423 10.7097C8.03576 10.0874 8.21964 9.39696 8.63095 8.91711C9.0581 8.41932 9.7019 8.16693 10.3556 8.11728C10.4374 8.11115 10.5195 8.11524 10.6019 8.12953C10.9342 8.18697 11.2471 8.28642 11.5407 8.42785C12.6403 8.95801 12.8818 10.0124 12.6475 11.1224C12.6258 11.2247 12.6036 11.3271 12.5809 11.4295C12.5643 11.5037 12.5412 11.5682 12.5116 11.623C12.2872 12.0388 11.881 12.3739 11.5119 12.6558C10.7717 13.2212 10.0329 13.7888 9.29543 14.3584C9.29237 14.3609 9.28993 14.364 9.28832 14.3675C9.28671 14.3711 9.28598 14.3749 9.28619 14.3788C9.2881 14.4107 9.29587 14.4469 9.3095 14.4875C9.45306 14.9141 9.58371 15.3432 9.70146 15.7746C9.70193 15.7763 9.7028 15.7779 9.70402 15.7791C9.70523 15.7804 9.70673 15.7814 9.70841 15.7819C9.71008 15.7825 9.71187 15.7826 9.71361 15.7823C9.71535 15.7821 9.71699 15.7814 9.7184 15.7803C10.7717 14.984 11.8255 14.1897 12.88 13.3974C12.9284 13.361 12.9623 13.3326 12.9816 13.3123C13.2061 13.0757 13.3995 12.816 13.5619 12.5333C14.2589 11.3192 14.2782 9.97021 13.7099 8.68855C13.6716 8.60223 13.6251 8.52131 13.5702 8.44578C13.3003 8.07426 12.9888 7.75276 12.6359 7.48126C11.5793 6.66897 10.4099 6.49305 9.1276 6.95351C8.93624 7.02219 8.73447 7.11164 8.52229 7.22187C8.29838 7.33823 8.14089 7.48651 7.96317 7.66607C7.2028 8.43463 6.65731 9.4512 6.65269 10.5395C6.65159 10.7864 6.68679 11.0502 6.76399 11.2932C6.8192 11.4671 6.87353 11.6396 6.92368 11.8185C7.60069 14.2301 8.2637 16.6453 8.91271 19.0643C8.9457 19.1872 8.98969 19.2661 9.06668 19.3584C9.67771 20.092 10.4583 20.3314 11.4085 20.0767C11.4799 20.0574 11.5255 20.0406 11.5453 20.0261C12.7632 19.1329 14.0482 18.3379 15.2489 17.4211C15.7889 17.0086 16.2958 16.5593 16.7694 16.0734C18.5471 14.2495 19.1586 11.6836 18.7717 9.21674C18.3003 6.20814 16.4217 3.50355 13.5192 2.36559C12.9066 2.12522 12.1238 2.00034 11.5079 2.30282C11.2189 2.44454 10.9787 2.66982 10.799 2.9349C10.791 2.94685 10.7154 3.07181 10.5723 3.30977C9.86899 4.47959 9.16793 5.64911 8.46906 6.81835C8.46829 6.81956 8.46796 6.82101 8.46812 6.82244C8.46828 6.82387 8.46893 6.8252 8.46995 6.82622C8.47097 6.82723 8.47231 6.82787 8.47375 6.82803C8.47519 6.82819 8.47664 6.82786 8.47786 6.8271C8.7855 6.64367 9.11067 6.50326 9.45335 6.40586C9.76393 6.3175 10.0792 6.29213 10.3992 6.32974C10.4049 6.3304 10.4106 6.32944 10.4158 6.32696C10.421 6.32448 10.4254 6.32059 10.4284 6.31575C10.9567 5.4651 11.4856 4.61548 12.0151 3.76688C12.0578 3.69835 12.0941 3.65446 12.124 3.63521C12.5943 3.33426 14.7804 5.1756 15.1825 5.51286C15.6117 5.873 15.9628 6.26581 16.2358 6.69128C16.8939 7.71638 17.2443 8.94248 17.3092 10.1515C17.3754 11.3855 17.1682 12.6074 16.5712 13.6842C16.2202 14.3175 15.7963 14.9074 15.2995 15.4538C15.1199 15.6512 14.9577 15.8052 14.8132 15.9157C13.5891 16.8509 12.3655 17.7868 11.1424 18.7235C11.1016 18.7547 11.0452 18.7739 10.973 18.7812C10.5445 18.825 10.1717 18.6804 10.0714 18.2283C10.0421 18.0965 10.0272 18.0297 10.0268 18.028C9.84934 17.3764 9.67221 16.7247 9.49537 16.0729C9.4043 15.7379 9.29125 15.4037 9.20899 15.0706ZM11.9646 22.6024C11.2598 23.6887 10.6734 24.8737 10.314 26.1186C10.2985 26.1724 10.3066 26.1761 10.3382 26.1297C11.1908 24.8797 12.141 23.6916 13.189 22.5654C13.2948 22.4517 13.3965 22.3468 13.4943 22.2507C14.4489 21.3133 15.5329 20.4964 16.628 19.7545C17.4266 19.2132 18.6074 18.4499 19.5949 17.7281C19.8928 17.5105 20.2207 17.3102 20.5231 17.0827C20.7473 16.9143 21.0354 16.6702 21.1265 16.3649C21.1272 16.3624 21.1274 16.3598 21.1271 16.3573C21.1267 16.3547 21.1258 16.3523 21.1244 16.3501C21.123 16.3479 21.1212 16.346 21.119 16.3446C21.1168 16.3431 21.1143 16.3422 21.1117 16.3417C20.5425 16.2516 19.9405 16.322 19.384 16.4583C17.8622 16.831 16.4802 17.6787 15.2698 18.648C15.1578 18.7377 15.0487 18.8351 14.9427 18.9402C13.8182 20.0542 12.8254 21.2749 11.9646 22.6024Z" fill="#F3A195"/>
</svg>
