<svg width="22" height="22" viewBox="0 0 22 22" fill="none" xmlns="http://www.w3.org/2000/svg">
<path d="M12.4888 1.03411C12.1184 1.01872 11.7487 1.07838 11.402 1.20951C11.0552 1.34064 10.7386 1.54052 10.471 1.79714C10.2035 2.05377 9.99061 2.36183 9.84517 2.70283C9.69972 3.04382 9.62473 3.41071 9.62468 3.78142C9.62552 4.51051 9.91552 5.2095 10.4311 5.72504C10.9466 6.24059 11.6456 6.53059 12.3747 6.53142C13.0929 6.52955 13.7819 6.24678 14.2943 5.74355C14.8068 5.24032 15.102 4.55658 15.1169 3.83852C15.1318 3.12045 14.8652 2.42504 14.3741 1.90098C13.883 1.37692 13.2063 1.06579 12.4888 1.03411ZM12.3848 1.71892C12.4742 1.72154 12.559 1.75891 12.6213 1.8231C12.6836 1.88728 12.7185 1.97322 12.7184 2.06267V2.11236C12.9172 2.17439 13.0911 2.29819 13.2147 2.46577C13.3383 2.63335 13.4053 2.83599 13.4059 3.04424V3.09392C13.4059 3.18509 13.3697 3.27252 13.3053 3.33699C13.2408 3.40146 13.1534 3.43767 13.0622 3.43767C12.971 3.43767 12.8836 3.40146 12.8191 3.33699C12.7546 3.27252 12.7184 3.18509 12.7184 3.09392V3.04424C12.7184 2.96637 12.6875 2.89168 12.6325 2.83655C12.5775 2.78143 12.5029 2.75036 12.425 2.75017H12.3243C12.2581 2.75005 12.1937 2.77235 12.1417 2.81345C12.0898 2.85454 12.0532 2.91201 12.038 2.97652C12.0229 3.04102 12.03 3.10876 12.0582 3.16871C12.0864 3.22867 12.134 3.27732 12.1934 3.30675L12.8635 3.64177C13.0382 3.7287 13.183 3.86597 13.2791 4.03589C13.3751 4.2058 13.4181 4.40059 13.4025 4.59517C13.3869 4.78974 13.3134 4.97519 13.1915 5.12763C13.0696 5.28007 12.9048 5.39252 12.7184 5.45049V5.50017C12.7184 5.59134 12.6822 5.67877 12.6178 5.74324C12.5533 5.80771 12.4659 5.84392 12.3747 5.84392C12.2835 5.84392 12.1961 5.80771 12.1316 5.74324C12.0671 5.67877 12.0309 5.59134 12.0309 5.50017V5.45049C11.8321 5.38846 11.6583 5.26466 11.5346 5.09708C11.411 4.9295 11.344 4.72686 11.3434 4.5186V4.46892C11.3434 4.37775 11.3796 4.29032 11.4441 4.22585C11.5086 4.16139 11.596 4.12517 11.6872 4.12517C11.7784 4.12517 11.8658 4.16139 11.9303 4.22585C11.9947 4.29032 12.0309 4.37775 12.0309 4.46892V4.5186C12.0309 4.59648 12.0618 4.67117 12.1168 4.72629C12.1718 4.78142 12.2465 4.81248 12.3243 4.81267H12.425C12.4913 4.81279 12.5557 4.79049 12.6076 4.7494C12.6596 4.7083 12.6962 4.65083 12.7113 4.58633C12.7265 4.52183 12.7194 4.45409 12.6912 4.39413C12.663 4.33417 12.6153 4.28552 12.556 4.25609L11.8859 3.92107C11.7112 3.83413 11.5664 3.69686 11.4704 3.52695C11.3743 3.35703 11.3313 3.16225 11.3469 2.96768C11.3625 2.77311 11.436 2.58767 11.5579 2.43523C11.6798 2.28279 11.8446 2.17034 12.0309 2.11236V2.06267C12.0309 2.01667 12.0401 1.97113 12.058 1.92876C12.0759 1.88638 12.1022 1.84803 12.1351 1.81597C12.1681 1.78392 12.2072 1.75881 12.2501 1.74214C12.293 1.72547 12.3388 1.71757 12.3848 1.71892ZM6.18718 6.53142C6.05171 6.53124 5.91753 6.55779 5.79233 6.60955C5.66713 6.66131 5.55337 6.73727 5.45758 6.83307C5.36178 6.92886 5.28582 7.04262 5.23406 7.16782C5.1823 7.29301 5.15575 7.4272 5.15593 7.56267V8.59392C5.15575 8.7294 5.1823 8.86358 5.23406 8.98878C5.28582 9.11398 5.36178 9.22773 5.45758 9.32353C5.55337 9.41933 5.66713 9.49528 5.79233 9.54704C5.91753 9.5988 6.05171 9.62535 6.18718 9.62517H18.9059C19.0414 9.62535 19.1756 9.5988 19.3008 9.54704C19.426 9.49528 19.5397 9.41933 19.6355 9.32353C19.7313 9.22773 19.8073 9.11398 19.8591 8.98878C19.9108 8.86358 19.9374 8.7294 19.9372 8.59392V7.56267C19.9374 7.4272 19.9108 7.29301 19.8591 7.16782C19.8073 7.04262 19.7313 6.92886 19.6355 6.83307C19.5397 6.73727 19.426 6.66131 19.3008 6.60955C19.1756 6.55779 19.0414 6.53124 18.9059 6.53142H14.4338C13.8401 6.97769 13.1174 7.21898 12.3747 7.21898C11.6319 7.21898 10.9093 6.97769 10.3155 6.53142H6.18718ZM4.12468 10.3127C3.85118 10.3127 3.58888 10.4213 3.39548 10.6147C3.20208 10.8081 3.09343 11.0704 3.09343 11.3439V12.3752C3.09343 12.6487 3.20208 12.911 3.39548 13.1044C3.58888 13.2978 3.85118 13.4064 4.12468 13.4064H16.1559C16.4294 13.4064 16.6917 13.2978 16.8851 13.1044C17.0785 12.911 17.1872 12.6487 17.1872 12.3752V11.3439C17.1872 11.0704 17.0785 10.8081 16.8851 10.6147C16.6917 10.4213 16.4294 10.3127 16.1559 10.3127H4.12468ZM4.81218 14.0939C5.66385 14.0956 6.4847 14.4127 7.11629 14.9841C7.74788 15.5554 8.14544 16.3404 8.23223 17.1877H17.8747C18.1482 17.1877 18.4105 17.079 18.6039 16.8856C18.7973 16.6922 18.9059 16.4299 18.9059 16.1564V15.1252C18.9059 14.8517 18.7973 14.5894 18.6039 14.396C18.4105 14.2026 18.1482 14.0939 17.8747 14.0939H4.81218ZM4.73162 14.7828C4.0105 14.8053 3.32711 15.1103 2.82878 15.632C2.33045 16.1537 2.05711 16.8503 2.06768 17.5717C2.07825 18.2931 2.37189 18.9814 2.88529 19.4883C3.39868 19.9952 4.09072 20.2801 4.81218 20.2814C5.54127 20.2806 6.24026 19.9906 6.7558 19.475C7.27135 18.9595 7.56135 18.2605 7.56218 17.5314C7.56216 17.1635 7.48832 16.7994 7.34503 16.4605C7.20174 16.1217 6.99191 15.815 6.72797 15.5587C6.46403 15.3024 6.15135 15.1017 5.80844 14.9684C5.46553 14.8351 5.09936 14.772 4.73162 14.7828ZM4.82225 15.4689C4.91167 15.4715 4.99653 15.5089 5.05884 15.5731C5.12114 15.6373 5.15597 15.7232 5.15593 15.8127V15.8624C5.35473 15.9244 5.52858 16.0482 5.65221 16.2158C5.77585 16.3834 5.84283 16.586 5.84343 16.7942V16.8439C5.84343 16.9351 5.80722 17.0225 5.74275 17.087C5.67829 17.1515 5.59085 17.1877 5.49968 17.1877C5.40851 17.1877 5.32108 17.1515 5.25661 17.087C5.19215 17.0225 5.15593 16.9351 5.15593 16.8439V16.7942C5.15592 16.7164 5.12503 16.6417 5.07003 16.5866C5.01503 16.5314 4.94041 16.5004 4.86254 16.5002H4.76183C4.69557 16.5001 4.63121 16.5224 4.57923 16.5634C4.52725 16.6045 4.4907 16.662 4.47553 16.7265C4.46036 16.791 4.46746 16.8588 4.49567 16.9187C4.52388 16.9787 4.57154 17.0273 4.63091 17.0568L5.30095 17.3918C5.47573 17.4787 5.62047 17.616 5.71655 17.7859C5.81263 17.9558 5.85564 18.1506 5.84004 18.3452C5.82444 18.5397 5.75094 18.7252 5.62902 18.8776C5.50709 19.0301 5.34233 19.1425 5.15593 19.2005V19.2502C5.15593 19.3413 5.11972 19.4288 5.05525 19.4932C4.99079 19.5577 4.90335 19.5939 4.81218 19.5939C4.72101 19.5939 4.63358 19.5577 4.56911 19.4932C4.50465 19.4288 4.46843 19.3413 4.46843 19.2502V19.2005C4.26963 19.1385 4.09578 19.0147 3.97215 18.8471C3.84851 18.6795 3.78153 18.4769 3.78093 18.2686V18.2189C3.78093 18.1278 3.81715 18.0403 3.88161 17.9759C3.94608 17.9114 4.03351 17.8752 4.12468 17.8752C4.21585 17.8752 4.30329 17.9114 4.36775 17.9759C4.43222 18.0403 4.46843 18.1278 4.46843 18.2189V18.2686C4.46844 18.3465 4.49934 18.4212 4.55434 18.4763C4.60934 18.5314 4.68396 18.5625 4.76183 18.5627H4.86254C4.9288 18.5628 4.99315 18.5405 5.04513 18.4994C5.09711 18.4583 5.13366 18.4008 5.14883 18.3363C5.16401 18.2718 5.15691 18.2041 5.1287 18.1441C5.10049 18.0842 5.05283 18.0355 4.99346 18.0061L4.32341 17.6711C4.14865 17.5841 4.00392 17.4469 3.90785 17.2769C3.81179 17.107 3.76879 16.9122 3.78439 16.7177C3.79999 16.5231 3.87347 16.3377 3.99539 16.1852C4.1173 16.0328 4.28205 15.9203 4.46843 15.8624V15.8127C4.46841 15.7667 4.47763 15.7211 4.49553 15.6788C4.51343 15.6364 4.53965 15.598 4.57265 15.566C4.60564 15.5339 4.64474 15.5088 4.68761 15.4921C4.73049 15.4755 4.77627 15.4676 4.82225 15.4689ZM8.23223 17.8752C8.14544 18.7224 7.74788 19.5075 7.11629 20.0788C6.4847 20.6501 5.66385 20.9672 4.81218 20.9689H15.8122C16.0857 20.9689 16.348 20.8603 16.5414 20.6669C16.7348 20.4735 16.8434 20.2112 16.8434 19.9377V18.9064C16.8434 18.6329 16.7348 18.3706 16.5414 18.1772C16.348 17.9838 16.0857 17.8752 15.8122 17.8752H8.23223Z" fill="#F2A6A2"/>
</svg>
