<svg width="22" height="22" viewBox="0 0 22 22" fill="none" xmlns="http://www.w3.org/2000/svg">
<path d="M19.7998 3.08008H2.19977C1.95742 3.08008 1.75977 3.27773 1.75977 3.52008V18.4801C1.75977 18.7241 1.95742 18.9201 2.19977 18.9201H19.7998C20.0438 18.9201 20.2398 18.7241 20.2398 18.4801V3.52008C20.2398 3.27773 20.0438 3.08008 19.7998 3.08008ZM14.9598 13.6401H14.5198V14.9601H13.6398V13.6401H13.1998L14.0798 12.3201L14.9598 13.6401ZM9.23977 7.48008C8.75508 7.48008 8.35977 7.08477 8.35977 6.60008C8.35977 6.11539 8.75508 5.72008 9.23977 5.72008H12.7598C13.2445 5.72008 13.6398 6.11539 13.6398 6.60008C13.6398 7.08477 13.2445 7.48008 12.7598 7.48008H9.23977ZM17.5998 16.2801H13.1998V15.4001H17.5998V16.2801ZM17.1598 13.6401V14.9601H16.2798V13.6401H15.8398L16.7198 12.3201L17.5998 13.6401H17.1598Z" fill="#F2A6A2"/>
</svg>
