<svg width="22" height="22" viewBox="0 0 22 22" fill="none" xmlns="http://www.w3.org/2000/svg">
<path d="M4.23084 1.69238C2.79304 1.69238 1.69238 2.79304 1.69238 4.23084V17.7693C1.69238 19.2071 2.79304 20.3078 4.23084 20.3078H17.7693C19.2071 20.3078 20.3078 19.2071 20.3078 17.7693V4.23084C20.3078 2.79304 19.2071 1.69238 17.7693 1.69238H13.5385C13.5385 3.13018 12.4379 4.23084 11.0001 4.23084C9.56227 4.23084 8.46161 3.13018 8.46161 1.69238H4.23084ZM11.0001 6.76931C13.793 6.76931 16.077 9.05326 16.077 11.8462C16.077 14.6392 13.793 16.9232 11.0001 16.9232C8.20711 16.9232 5.92315 14.6392 5.92315 11.8462C5.92315 9.05326 8.20711 6.76931 11.0001 6.76931ZM10.577 7.61546L10.1539 11.5818L8.62027 14.3847L9.57219 15.0722L11.8462 12.1107L11.4232 7.61546H10.577Z" fill="#F2A6A2"/>
</svg>
