<svg width="22" height="22" viewBox="0 0 22 22" fill="none" xmlns="http://www.w3.org/2000/svg">
<path d="M2.63965 0.439941V2.19994C2.63965 2.92354 3.23605 3.51994 3.95965 3.51994H4.83965V6.47619C4.83965 7.79963 5.49793 9.04229 6.59965 9.77619L8.44215 10.9999L6.59965 12.2237C5.49793 12.9576 4.83965 14.2003 4.83965 15.5237V18.4799H3.95965C3.23605 18.4799 2.63965 19.0763 2.63965 19.7999V21.5599H19.3596V19.7999C19.3596 19.0763 18.7632 18.4799 18.0396 18.4799H17.1596V15.5237C17.1596 14.2003 16.5014 12.9576 15.3996 12.2237L13.5571 10.9999L15.3996 9.77619C16.5014 9.04229 17.1596 7.79963 17.1596 6.47619V3.51994H18.0396C18.7632 3.51994 19.3596 2.92354 19.3596 2.19994V0.439941H2.63965ZM3.51965 1.31994H18.4796V2.19994C18.4796 2.44916 18.2889 2.63994 18.0396 2.63994H3.95965C3.71043 2.63994 3.51965 2.44916 3.51965 2.19994V1.31994ZM5.71965 3.51994H16.2796V6.47619C16.2796 7.50572 15.7623 8.46307 14.9046 9.03369L12.5121 10.6287L11.9621 10.9999L12.5121 11.3712L14.9046 12.9662C15.7623 13.5385 16.2796 14.4942 16.2796 15.5237V18.4799H14.9321C14.6228 15.2882 10.9996 14.0799 10.9996 14.0799C10.9996 14.0799 7.38684 15.357 7.06715 18.4799H5.71965V15.5237C5.71965 14.4942 6.23699 13.5385 7.09465 12.9662L9.48715 11.3712L10.0371 10.9999L9.48715 10.6287L7.09465 9.03369C6.23699 8.46307 5.71965 7.50572 5.71965 6.47619V3.51994ZM7.47965 6.59994C7.47965 8.83947 10.9996 9.67994 10.9996 9.67994C10.9996 9.67994 14.5196 8.79307 14.5196 6.59994H7.47965ZM3.95965 19.3599H18.0396C18.2889 19.3599 18.4796 19.5507 18.4796 19.7999V20.6799H3.51965V19.7999C3.51965 19.5507 3.71043 19.3599 3.95965 19.3599Z" fill="#F2A6A2"/>
</svg>
