<svg width="22" height="22" viewBox="0 0 22 22" fill="none" xmlns="http://www.w3.org/2000/svg">
<path d="M2.93652 1.81299C2.06319 1.81299 1.35645 2.51973 1.35645 3.39307V16.8234H20.6462V3.39307H20.6429C20.6429 2.51973 19.9362 1.81299 19.0628 1.81299H2.93652ZM2.93327 2.85661H19.0628C19.3595 2.85661 19.5999 3.0964 19.5999 3.39307V15.4465H19.6032C19.6032 15.6298 19.4532 15.7798 19.2699 15.7798H2.72949C2.54616 15.7798 2.39616 15.6298 2.39616 15.4465V3.39307C2.39616 3.0964 2.6366 2.85661 2.93327 2.85661ZM3.06283 3.52327V15.1131H18.9333V3.52327H3.06283ZM8.41634 4.34619H15.9098C16.4732 4.34619 16.9294 4.80637 16.9294 5.36637V11.5396C16.9294 12.1029 16.4698 12.5597 15.9098 12.5597H10.5029C10.1463 13.7531 9.03949 14.6268 7.72949 14.6268C6.13283 14.6268 4.83301 13.3263 4.83301 11.7297C4.83301 10.2463 5.95616 9.02002 7.39616 8.85335V5.36637C7.39616 4.80304 7.85634 4.34619 8.41634 4.34619ZM8.4196 5.01286C8.22293 5.01286 8.06608 5.17304 8.06608 5.36637V8.85661C9.50275 9.01994 10.6266 10.2463 10.6266 11.7297C10.6266 11.7863 10.6195 11.8397 10.6195 11.8931H15.9131C16.1098 11.8931 16.2666 11.7329 16.2666 11.5396V5.36637C16.2666 5.16971 16.1064 5.01286 15.9131 5.01286H13.7666V6.53304C13.7666 6.64971 13.7064 6.75624 13.6064 6.81624C13.5531 6.84958 13.4933 6.86637 13.4333 6.86637C13.3799 6.86637 13.3296 6.85325 13.2796 6.82992L12.1663 6.2596L11.0531 6.82992C10.9497 6.88325 10.8262 6.87958 10.7262 6.81624C10.6262 6.75624 10.5661 6.64971 10.5661 6.53304V5.01286H8.4196ZM11.2295 5.01286V5.99007L12.0094 5.58968C12.0594 5.56301 12.1131 5.55322 12.1631 5.55322C12.2164 5.55322 12.2661 5.56635 12.3161 5.58968L13.096 5.99007V5.01286H11.2295ZM7.72949 9.49984C6.49949 9.49984 5.49967 10.4997 5.49967 11.7297C5.49967 12.9597 6.49949 13.9601 7.72949 13.9601C8.95949 13.9601 9.95996 12.9597 9.95996 11.7297C9.95996 10.4997 8.95949 9.49984 7.72949 9.49984ZM13.4294 9.60661H15.4131C15.5964 9.60661 15.7464 9.75661 15.7464 9.93994C15.7464 10.1233 15.5964 10.2733 15.4131 10.2733H13.4294C13.246 10.2733 13.096 10.1233 13.096 9.93994C13.096 9.75661 13.246 9.60661 13.4294 9.60661ZM7.54134 9.96924C7.62634 9.96924 7.71137 10.0012 7.77637 10.0662C7.90637 10.1962 7.90637 10.4063 7.77637 10.5363L7.76986 10.5435C8.56319 10.5668 9.2028 11.2168 9.2028 12.0168C9.2028 12.8301 8.53957 13.4933 7.72624 13.4933C6.9129 13.4933 6.24967 12.8301 6.24967 12.0168C6.25301 11.8301 6.40293 11.6834 6.58626 11.6834C6.7696 11.6834 6.9196 11.8334 6.9196 12.0168C6.9196 12.4634 7.28283 12.8267 7.72949 12.8267C8.17616 12.8267 8.53939 12.4634 8.53939 12.0168C8.53939 11.5868 8.20296 11.24 7.77962 11.2134C7.90962 11.3434 7.90962 11.5534 7.77962 11.6834C7.71296 11.7501 7.62996 11.7798 7.54329 11.7798C7.45663 11.7798 7.37298 11.7468 7.30632 11.6834L6.73275 11.1099C6.60275 10.9799 6.60275 10.7698 6.73275 10.6398L7.30632 10.0662C7.37132 10.0012 7.45634 9.96924 7.54134 9.96924ZM13.4294 10.6899H15.4131C15.5964 10.6899 15.7464 10.8399 15.7464 11.0233C15.7464 11.2066 15.5964 11.3566 15.4131 11.3566H13.4294C13.246 11.3566 13.096 11.2066 13.096 11.0233C13.096 10.8399 13.246 10.6899 13.4294 10.6899ZM0.333008 17.4933V18.9998L1.51986 20.1867H20.4827L21.6663 19.0031V17.4933H0.333008ZM10.0094 18.5063H11.9899C12.1732 18.5063 12.3232 18.6563 12.3232 18.8397C12.3232 19.023 12.1732 19.173 11.9899 19.173H10.0094C9.82611 19.173 9.67611 19.023 9.67611 18.8397C9.67611 18.6563 9.82611 18.5063 10.0094 18.5063Z" fill="#F2A6A2"/>
</svg>
