<svg width="22" height="22" viewBox="0 0 22 22" fill="none" xmlns="http://www.w3.org/2000/svg">
<path d="M10.9996 1.75977C8.57965 1.75977 6.59965 3.73977 6.59965 6.15977C6.59965 8.57977 8.57965 10.5598 10.9996 10.5598C13.4196 10.5598 15.3996 8.57977 15.3996 6.15977C15.3996 3.73977 13.4196 1.75977 10.9996 1.75977ZM3.49645 2.19633C3.40511 2.20004 3.31719 2.23212 3.24492 2.28808C3.17264 2.34405 3.11959 2.42114 3.09313 2.50864C3.06667 2.59615 3.06812 2.68972 3.09727 2.77636C3.12643 2.863 3.18184 2.93841 3.25582 2.99211L5.01582 4.31211C5.06209 4.34677 5.11473 4.37198 5.17075 4.3863C5.22676 4.40061 5.28505 4.40376 5.34227 4.39554C5.3995 4.38733 5.45455 4.36792 5.50428 4.33843C5.554 4.30894 5.59743 4.26994 5.63209 4.22366C5.66674 4.17738 5.69193 4.12473 5.70623 4.06872C5.72054 4.0127 5.72366 3.95441 5.71543 3.89719C5.7072 3.83996 5.68778 3.78492 5.65828 3.7352C5.62877 3.68548 5.58976 3.64206 5.54348 3.60742L3.78348 2.28742C3.70149 2.22425 3.59986 2.19199 3.49645 2.19633ZM18.49 2.19633C18.3909 2.19498 18.2943 2.22707 18.2158 2.28742L16.4558 3.60742C16.4095 3.64206 16.3705 3.68548 16.341 3.7352C16.3115 3.78492 16.2921 3.83996 16.2839 3.89719C16.2756 3.95441 16.2788 4.0127 16.2931 4.06872C16.3074 4.12473 16.3326 4.17738 16.3672 4.22366C16.4019 4.26994 16.4453 4.30894 16.495 4.33843C16.5447 4.36792 16.5998 4.38733 16.657 4.39554C16.7143 4.40376 16.7725 4.40061 16.8286 4.3863C16.8846 4.37198 16.9372 4.34677 16.9835 4.31211L18.7435 2.99211C18.8182 2.93771 18.8739 2.86117 18.9027 2.77333C18.9315 2.6855 18.9318 2.59083 18.9038 2.50277C18.8757 2.4147 18.8207 2.3377 18.7464 2.2827C18.6721 2.22769 18.5824 2.19747 18.49 2.19633ZM11.352 4.39977H11.4396V7.91977H10.5596V5.32359L9.67965 5.54359V4.92742L11.352 4.39977ZM2.63965 5.71977C2.58134 5.71894 2.52346 5.72971 2.46935 5.75145C2.41524 5.7732 2.366 5.80548 2.32448 5.84641C2.28295 5.88735 2.24998 5.93614 2.22748 5.98993C2.20497 6.04372 2.19338 6.10145 2.19338 6.15977C2.19338 6.21808 2.20497 6.27581 2.22748 6.3296C2.24998 6.38339 2.28295 6.43218 2.32448 6.47312C2.366 6.51406 2.41524 6.54633 2.46935 6.56808C2.52346 6.58982 2.58134 6.60059 2.63965 6.59977H4.83965C4.89795 6.60059 4.95584 6.58982 5.00995 6.56808C5.06405 6.54633 5.1133 6.51406 5.15482 6.47312C5.19634 6.43218 5.22932 6.38339 5.25182 6.3296C5.27433 6.27581 5.28592 6.21808 5.28592 6.15977C5.28592 6.10145 5.27433 6.04372 5.25182 5.98993C5.22932 5.93614 5.19634 5.88735 5.15482 5.84641C5.1133 5.80548 5.06405 5.7732 5.00995 5.75145C4.95584 5.72971 4.89795 5.71894 4.83965 5.71977H2.63965ZM17.1596 5.71977C17.1013 5.71894 17.0435 5.72971 16.9894 5.75145C16.9352 5.7732 16.886 5.80548 16.8445 5.84641C16.803 5.88735 16.77 5.93614 16.7475 5.98993C16.725 6.04372 16.7134 6.10145 16.7134 6.15977C16.7134 6.21808 16.725 6.27581 16.7475 6.3296C16.77 6.38339 16.803 6.43218 16.8445 6.47312C16.886 6.51406 16.9352 6.54633 16.9894 6.56808C17.0435 6.58982 17.1013 6.60059 17.1596 6.59977H19.3596C19.418 6.60059 19.4758 6.58982 19.5299 6.56808C19.5841 6.54633 19.6333 6.51406 19.6748 6.47312C19.7163 6.43218 19.7493 6.38339 19.7718 6.3296C19.7943 6.27581 19.8059 6.21808 19.8059 6.15977C19.8059 6.10145 19.7943 6.04372 19.7718 5.98993C19.7493 5.93614 19.7163 5.88735 19.6748 5.84641C19.6333 5.80548 19.5841 5.7732 19.5299 5.75145C19.4758 5.72971 19.418 5.71894 19.3596 5.71977H17.1596ZM5.28996 7.91633C5.19093 7.91498 5.09435 7.94707 5.01582 8.00742L3.25582 9.32742C3.16237 9.39739 3.10055 9.50162 3.08395 9.61718C3.06735 9.73273 3.09733 9.85015 3.16731 9.94359C3.23728 10.037 3.3415 10.0989 3.45706 10.1155C3.57261 10.1321 3.69003 10.1021 3.78348 10.0321L5.54348 8.71211C5.6182 8.65771 5.67391 8.58117 5.70268 8.49333C5.73146 8.4055 5.73184 8.31083 5.70379 8.22277C5.67573 8.1347 5.62066 8.0577 5.54638 8.0027C5.4721 7.94769 5.38238 7.91747 5.28996 7.91633ZM16.6964 7.91633C16.6051 7.92004 16.5172 7.95212 16.4449 8.00808C16.3726 8.06405 16.3196 8.14114 16.2931 8.22864C16.2667 8.31615 16.2681 8.40972 16.2973 8.49636C16.3264 8.583 16.3818 8.6584 16.4558 8.71211L18.2158 10.0321C18.3093 10.1021 18.4267 10.1321 18.5422 10.1155C18.6578 10.0989 18.762 10.037 18.832 9.94359C18.902 9.85015 18.9319 9.73273 18.9153 9.61718C18.8987 9.50162 18.8369 9.39739 18.7435 9.32742L16.9835 8.00742C16.9015 7.94425 16.7999 7.91199 16.6964 7.91633ZM19.51 11.4406C19.191 11.4301 18.8664 11.5115 18.5776 11.6933L14.4638 14.2293C14.7757 14.5474 14.9579 14.9788 14.9579 15.4333C14.9579 16.3881 14.1819 17.1649 13.2271 17.1649C13.0925 17.1649 12.9582 17.1489 12.8293 17.1185C12.4909 17.0384 8.16923 15.7444 7.67731 15.5974C7.44455 15.5275 7.31216 15.2819 7.38168 15.0491C7.45164 14.8164 7.69764 14.6849 7.92996 14.7544C9.851 15.3299 12.7958 16.2071 13.0329 16.2634C13.0959 16.2784 13.1611 16.2858 13.2271 16.2858C13.6966 16.2858 14.0779 15.9036 14.0779 15.4341C14.0779 15.131 13.9204 14.8585 13.6568 14.7054C13.5288 14.631 9.18578 12.7322 8.31238 12.349C6.94398 11.7479 5.36701 11.7331 3.98629 12.3077L1.14863 13.4894C0.924233 13.5818 0.87793 13.7858 0.87793 14.0643V19.3641C0.87793 19.6069 1.07505 19.8041 1.31793 19.8041C1.45213 19.8041 1.55944 19.7317 1.5766 19.719L3.10973 18.5941C3.89117 18.0207 4.93289 17.8947 5.84941 18.2718L10.9954 20.0962C11.2844 20.1988 11.5839 20.2492 11.8814 20.2492C12.4494 20.2492 13.0091 20.0663 13.4764 19.7121L20.4012 14.4648C21.1365 13.9579 21.3384 12.9695 20.8618 12.2141C20.5571 11.7306 20.0417 11.4582 19.51 11.4406Z" fill="#F2A6A2"/>
</svg>
