<svg width="22" height="22" viewBox="0 0 22 22" fill="none" xmlns="http://www.w3.org/2000/svg">
<g clip-path="url(#clip0_3174_13663)">
<path d="M2.17219 2.15869C1.60672 2.15869 1.05156 2.38557 0.618437 2.81869C-0.247812 3.68494 -0.247812 5.07369 0.618437 5.93994L1.49844 6.81994C1.92984 7.25135 2.50906 7.4301 3.09344 7.41119L4.04219 8.35994L3.07969 9.30869C2.49875 9.29322 1.92641 9.47197 1.49844 9.89994L0.618437 10.7799C-0.247812 11.6462 -0.247812 13.0349 0.618437 13.9012C1.48469 14.7674 2.87344 14.7674 3.73969 13.9012L4.61969 13.0212C5.05109 12.5898 5.22984 12.0106 5.21094 11.4262L13.6809 2.95619C13.8098 2.83244 13.8494 2.64166 13.7841 2.47666C13.717 2.30994 13.5572 2.20166 13.3784 2.19994H11.4809C10.6731 2.19994 9.89109 2.50932 9.32219 3.12119C9.31703 3.12635 9.31359 3.12979 9.30844 3.13494L6.15969 6.24244L5.21094 5.29369C5.22984 4.70932 5.05109 4.1301 4.61969 3.69869L3.73969 2.81869C3.30656 2.38557 2.73766 2.15869 2.17219 2.15869ZM2.17219 3.02494C2.50734 3.02494 2.84938 3.16588 3.12094 3.43744L4.00094 4.31744C4.29313 4.60963 4.42203 5.04791 4.35844 5.43119C4.33438 5.57213 4.38078 5.71479 4.48219 5.81619L5.54094 6.87494L4.67469 7.74119L3.61594 6.68244C3.51453 6.58104 3.37188 6.53463 3.23094 6.55869C2.84766 6.62229 2.40938 6.49338 2.11719 6.20119L1.23719 5.32119C0.695781 4.77979 0.695781 3.97885 1.23719 3.43744C1.50875 3.16588 1.83703 3.02494 2.17219 3.02494ZM11.4809 3.07994H12.3059L4.48219 10.9037C4.38078 11.0051 4.33438 11.1478 4.35844 11.2887C4.42203 11.672 4.29313 12.1103 4.00094 12.4024L3.12094 13.2824C2.57953 13.8238 1.77859 13.8238 1.23719 13.2824C0.695781 12.741 0.695781 11.9401 1.23719 11.3987L2.11719 10.5187C2.40938 10.2265 2.84766 10.0976 3.23094 10.1612C3.37188 10.1853 3.51453 10.1388 3.61594 10.0374L9.94094 3.73994C9.94609 3.73479 9.94953 3.73135 9.95469 3.72619C10.3534 3.29135 10.8863 3.07994 11.4809 3.07994ZM2.41969 3.97369C2.24438 3.96854 2.07078 4.02869 1.93844 4.13869C1.67375 4.35869 1.67375 4.79525 1.93844 5.05994L2.37844 5.49994C2.64313 5.76463 3.07625 5.76119 3.34094 5.54119C3.60563 5.2765 3.60563 4.88463 3.34094 4.61994L2.90094 4.17994C2.76859 4.0476 2.595 3.97885 2.41969 3.97369ZM10.8209 7.03994L9.94094 7.91994H11.4397V7.03994H10.8209ZM12.3197 7.03994V7.91994H14.0797V7.03994H12.3197ZM14.9597 7.03994V7.91994H16.7197V7.03994H14.9597ZM17.5997 7.03994V7.91994H19.3597V7.03994H17.5997ZM20.2397 7.03994V7.91994H21.1197V8.79994H21.9997V7.03994H20.2397ZM6.15969 7.87869C5.89156 7.87869 5.67844 8.09182 5.67844 8.35994C5.67844 8.62807 5.89156 8.84119 6.15969 8.84119C6.42781 8.84119 6.64094 8.62807 6.64094 8.35994C6.64094 8.09182 6.42781 7.87869 6.15969 7.87869ZM8.89594 8.97869L8.26344 9.59744L12.3059 13.6399H11.4809C10.8863 13.6399 10.3534 13.4285 9.95469 12.9937C9.94953 12.9885 9.94609 12.9851 9.94094 12.9799L7.43844 10.4637L6.81969 11.0962L9.30844 13.5849C9.31359 13.5901 9.31703 13.5935 9.32219 13.5987C9.89109 14.2106 10.6731 14.5199 11.4809 14.5199H13.3784C13.5572 14.5182 13.717 14.4099 13.7841 14.2432C13.8494 14.0782 13.8098 13.8874 13.6809 13.7637L8.89594 8.97869ZM21.1197 9.67994V11.4399H21.9997V9.67994H21.1197ZM2.88719 10.9724C2.72219 10.9724 2.55203 11.0463 2.41969 11.1787L1.97969 11.6187C1.715 11.8834 1.715 12.2753 1.97969 12.5399C2.24438 12.8046 2.63625 12.8046 2.90094 12.5399L3.34094 12.0999C3.56094 11.8799 3.56094 11.4434 3.34094 11.1787C3.20859 11.0463 3.05219 10.9724 2.88719 10.9724ZM21.1197 12.3199V14.0799H21.9997V12.3199H21.1197ZM5.27969 14.0799L4.39969 14.9599V16.7199H5.27969V14.0799ZM21.1197 14.9599V16.7199H21.9997V14.9599H21.1197ZM4.39969 17.5999V19.3599H6.15969V18.4799H5.27969V17.5999H4.39969ZM21.1197 17.5999V18.4799H20.2397V19.3599H21.9997V17.5999H21.1197ZM7.03969 18.4799V19.3599H8.79969V18.4799H7.03969ZM9.67969 18.4799V19.3599H11.4397V18.4799H9.67969ZM12.3197 18.4799V19.3599H14.0797V18.4799H12.3197ZM14.9597 18.4799V19.3599H16.7197V18.4799H14.9597ZM17.5997 18.4799V19.3599H19.3597V18.4799H17.5997Z" fill="black"/>
</g>
<defs>
<clipPath id="clip0_3174_13663">
<rect width="22" height="22" fill="white"/>
</clipPath>
</defs>
</svg>
