<svg width="22" height="22" viewBox="0 0 22 22" fill="none" xmlns="http://www.w3.org/2000/svg">
<g clip-path="url(#clip0_3174_13821)">
<path d="M0.7975 0.879883C0.78375 0.883321 0.77 0.888476 0.75625 0.893633C0.328281 0.953789 0 1.31645 0 1.75988C0 2.24629 0.393594 2.63988 0.88 2.63988C1.36641 2.63988 1.76 2.24629 1.76 1.75988H3.80875C4.35703 1.75988 4.64234 1.87332 4.85375 2.06238C5.06172 2.24973 5.23016 2.56598 5.37625 3.05238L8.89625 17.2561C9.02859 17.7597 9.16094 18.2788 9.52875 18.6999C9.68172 18.8752 9.87422 19.0179 10.1062 19.1261C9.84844 19.4321 9.68 19.8119 9.68 20.2399C9.68 21.2075 10.4723 21.9999 11.44 21.9999C12.4077 21.9999 13.2 21.2075 13.2 20.2399C13.2 19.9168 13.1055 19.6211 12.9525 19.3599H15.6475C15.4945 19.6211 15.4 19.9168 15.4 20.2399C15.4 21.2075 16.1923 21.9999 17.16 21.9999C18.1277 21.9999 18.92 21.2075 18.92 20.2399C18.92 19.7879 18.7361 19.3839 18.4525 19.0711C18.5023 18.9371 18.4817 18.7858 18.4009 18.6689C18.3184 18.5504 18.1844 18.4799 18.04 18.4799H11.3162C10.6373 18.4799 10.3606 18.3355 10.175 18.1224C9.99109 17.911 9.87937 17.5414 9.74875 17.0499V17.0361L9.44625 15.8399H17.5175C17.7014 15.8399 17.8681 15.7247 17.93 15.5511L21.0925 7.19113C21.1441 7.05707 21.1252 6.90582 21.0427 6.78723C20.9602 6.66863 20.8244 6.59816 20.68 6.59988H7.16375L6.22875 2.84613C6.22875 2.83754 6.22875 2.82723 6.22875 2.81863C6.06031 2.25145 5.84203 1.75988 5.445 1.40238C5.04797 1.04488 4.48937 0.879883 3.80875 0.879883H0.88C0.86625 0.879883 0.8525 0.879883 0.83875 0.879883C0.825 0.879883 0.81125 0.879883 0.7975 0.879883ZM7.38375 7.47988H20.0475L17.215 14.9599H9.24L7.38375 7.47988ZM11.44 19.3599C11.9316 19.3599 12.32 19.7483 12.32 20.2399C12.32 20.7314 11.9316 21.1199 11.44 21.1199C10.9484 21.1199 10.56 20.7314 10.56 20.2399C10.56 19.7483 10.9484 19.3599 11.44 19.3599ZM17.16 19.3599C17.6516 19.3599 18.04 19.7483 18.04 20.2399C18.04 20.7314 17.6516 21.1199 17.16 21.1199C16.6684 21.1199 16.28 20.7314 16.28 20.2399C16.28 19.7483 16.6684 19.3599 17.16 19.3599Z" fill="black"/>
</g>
<defs>
<clipPath id="clip0_3174_13821">
<rect width="22" height="22" fill="white"/>
</clipPath>
</defs>
</svg>
