<svg width="20" height="20" viewBox="0 0 20 20" fill="none" xmlns="http://www.w3.org/2000/svg">
<g clip-path="url(#clip0_3174_13819)">
<path d="M4.34961 -0.000158635C4.26055 0.00921637 4.17617 0.0498414 4.11211 0.112341L0.112109 4.11234C0.0339844 4.18734 -0.00976562 4.29203 -0.00976562 4.39984C-0.00976562 4.50765 0.0339844 4.61234 0.112109 4.68734L4.11211 8.68734C4.27148 8.84672 4.52773 8.84672 4.68711 8.68734C4.84648 8.52797 4.84648 8.27172 4.68711 8.11234L1.37461 4.79984H13.1996C16.5012 4.79984 19.1996 7.49828 19.1996 10.7998C19.1996 14.0811 16.5355 16.7655 13.2621 16.7998C13.2418 16.7998 13.2199 16.7998 13.1996 16.7998H6.39961V17.0748C6.37617 17.153 6.37617 17.2342 6.39961 17.3123V17.5998H13.1996C13.2121 17.5998 13.2246 17.5998 13.2371 17.5998C13.2418 17.5998 13.2449 17.5998 13.2496 17.5998C13.2715 17.5998 13.2902 17.5873 13.3121 17.5873C16.998 17.5248 19.9996 14.4998 19.9996 10.7998C19.9996 7.09984 16.998 4.07484 13.3121 4.01234C13.2965 4.00765 13.2793 4.00297 13.2621 3.99984C13.2402 3.99984 13.2215 3.99984 13.1996 3.99984H1.37461L4.68711 0.687341C4.8168 0.567029 4.85117 0.376404 4.77305 0.218591C4.69648 0.0592166 4.52305 -0.0282836 4.34961 -0.000158635ZM-0.000390625 16.7998V17.5998H0.799609V16.7998H-0.000390625ZM1.59961 16.7998V17.5998H2.39961V16.7998H1.59961ZM3.19961 16.7998V17.5998H3.99961V16.7998H3.19961ZM4.79961 16.7998V17.5998H5.59961V16.7998H4.79961Z" fill="black"/>
</g>
<defs>
<clipPath id="clip0_3174_13819">
<rect width="20" height="20" fill="white"/>
</clipPath>
</defs>
</svg>
