<svg width="22" height="22" viewBox="0 0 22 22" fill="none" xmlns="http://www.w3.org/2000/svg">
<path d="M7.16397 2.64014C7.0935 2.65561 7.02647 2.68826 6.97147 2.73639L2.47522 6.18764C2.30678 6.25467 2.1985 6.41967 2.20022 6.60014V18.9201C2.20022 19.1625 2.39787 19.3601 2.64022 19.3601H15.8402C15.8454 19.3601 15.8488 19.3601 15.854 19.3601C15.8815 19.3584 15.909 19.3533 15.9365 19.3464C15.9502 19.3429 15.964 19.3378 15.9777 19.3326C16.0877 19.3 16.1822 19.2261 16.239 19.1264L19.704 14.7951C19.7658 14.7178 19.8002 14.6198 19.8002 14.5201V3.16264C19.826 3.01482 19.7727 2.86529 19.6627 2.76389C19.6593 2.75529 19.6541 2.74498 19.649 2.73639C19.6438 2.73639 19.6404 2.73639 19.6352 2.73639C19.6266 2.72607 19.618 2.71748 19.6077 2.70889C19.6026 2.70889 19.5991 2.70889 19.594 2.70889C19.5716 2.69342 19.5493 2.67967 19.5252 2.66764C19.4857 2.65217 19.4444 2.64357 19.4015 2.64014C19.3877 2.64014 19.374 2.64014 19.3602 2.64014H7.24647C7.23272 2.64014 7.21897 2.64014 7.20522 2.64014C7.19147 2.64014 7.17772 2.64014 7.16397 2.64014ZM7.38397 3.52014H12.0452L9.07521 6.16014H3.93272L7.38397 3.52014ZM13.3652 3.52014H18.2877L15.6477 6.16014H10.3952L13.3652 3.52014ZM18.9202 4.15264V14.3689L16.2802 17.6689V6.79264L18.9202 4.15264ZM3.08022 7.04014H9.07521C9.15943 7.06592 9.25225 7.06592 9.33646 7.04014H15.4002V18.4801H3.08022V7.04014ZM6.95772 8.80014C6.71537 8.82248 6.53662 9.03904 6.55897 9.28139C6.58131 9.52373 6.79787 9.70248 7.04022 9.68014H11.4402C11.5983 9.68185 11.7462 9.59935 11.8269 9.46185C11.906 9.32435 11.906 9.15592 11.8269 9.01842C11.7462 8.88092 11.5983 8.79842 11.4402 8.80014H7.04022C7.02647 8.80014 7.01272 8.80014 6.99897 8.80014C6.98522 8.80014 6.97147 8.80014 6.95772 8.80014Z" fill="black"/>
</svg>
