<svg width="20" height="20" viewBox="0 0 20 20" fill="none" xmlns="http://www.w3.org/2000/svg">
<g clip-path="url(#clip0_3174_13661)">
<path d="M8.00039 1.2002C7.34258 1.2002 6.80039 1.74238 6.80039 2.4002V3.6002H1.20039C0.542578 3.6002 0.000390625 4.14238 0.000390625 4.8002V10.7252C-0.00273438 10.7502 -0.00273438 10.7752 0.000390625 10.8002V17.6002C0.000390625 18.258 0.542578 18.8002 1.20039 18.8002H18.8004C19.4582 18.8002 20.0004 18.258 20.0004 17.6002V4.8002C20.0004 4.14238 19.4582 3.6002 18.8004 3.6002H13.2004V2.4002C13.2004 1.74238 12.6582 1.2002 12.0004 1.2002H8.00039ZM8.00039 2.0002H12.0004C12.2254 2.0002 12.4004 2.1752 12.4004 2.4002V3.6002H7.60039V2.4002C7.60039 2.1752 7.77539 2.0002 8.00039 2.0002ZM1.20039 4.4002H18.8004C19.0254 4.4002 19.2004 4.5752 19.2004 4.8002V10.7377C19.2004 10.7502 19.2004 10.7627 19.2004 10.7752V10.8002C19.2004 11.0252 19.0254 11.2002 18.8004 11.2002H1.20039C0.975391 11.2002 0.800391 11.0252 0.800391 10.8002C0.803516 10.7752 0.803516 10.7502 0.800391 10.7252V4.8002C0.800391 4.5752 0.975391 4.4002 1.20039 4.4002ZM10.0004 8.8002C9.5582 8.8002 9.20039 9.15801 9.20039 9.6002C9.20039 10.0424 9.5582 10.4002 10.0004 10.4002C10.4426 10.4002 10.8004 10.0424 10.8004 9.6002C10.8004 9.15801 10.4426 8.8002 10.0004 8.8002ZM0.800391 11.9252C0.926953 11.9705 1.05977 12.0002 1.20039 12.0002H18.8004C18.941 12.0002 19.0738 11.9705 19.2004 11.9252V17.6002C19.2004 17.8252 19.0254 18.0002 18.8004 18.0002H1.20039C0.975391 18.0002 0.800391 17.8252 0.800391 17.6002V11.9252Z" fill="black"/>
</g>
<defs>
<clipPath id="clip0_3174_13661">
<rect width="20" height="20" fill="white"/>
</clipPath>
</defs>
</svg>
