<svg width="22" height="22" viewBox="0 0 22 22" fill="none" xmlns="http://www.w3.org/2000/svg">
<path d="M11.4122 3.0249C9.36514 3.0249 7.69974 4.6903 7.69974 6.7374C7.69974 8.7845 9.36514 10.4499 11.4122 10.4499C13.4593 10.4499 15.1247 8.7845 15.1247 6.7374C15.1247 4.6903 13.4593 3.0249 11.4122 3.0249ZM4.39974 3.2999V3.8499C4.43618 3.85042 4.47236 3.84369 4.50618 3.8301C4.53999 3.81651 4.57077 3.79633 4.59672 3.77075C4.62268 3.74516 4.64328 3.71467 4.65735 3.68105C4.67141 3.64743 4.67866 3.61135 4.67866 3.5749C4.67866 3.53846 4.67141 3.50238 4.65735 3.46876C4.64328 3.43514 4.62268 3.40465 4.59672 3.37906C4.57077 3.35347 4.53999 3.3333 4.50618 3.31971C4.47236 3.30612 4.43618 3.29939 4.39974 3.2999ZM18.4247 3.2999C18.3883 3.29939 18.3521 3.30612 18.3183 3.31971C18.2845 3.3333 18.2537 3.35347 18.2278 3.37906C18.2018 3.40465 18.1812 3.43514 18.1671 3.46876C18.1531 3.50238 18.1458 3.53846 18.1458 3.5749C18.1458 3.61135 18.1531 3.64743 18.1671 3.68105C18.1812 3.71467 18.2018 3.74516 18.2278 3.77075C18.2537 3.79633 18.2845 3.81651 18.3183 3.8301C18.3521 3.84369 18.3883 3.85042 18.4247 3.8499C18.4612 3.85042 18.4974 3.84369 18.5312 3.8301C18.565 3.81651 18.5958 3.79633 18.6217 3.77075C18.6477 3.74516 18.6683 3.71467 18.6823 3.68105C18.6964 3.64743 18.7037 3.61135 18.7037 3.5749C18.7037 3.53846 18.6964 3.50238 18.6823 3.46876C18.6683 3.43514 18.6477 3.40465 18.6217 3.37906C18.5958 3.35347 18.565 3.3333 18.5312 3.31971C18.4974 3.30612 18.4612 3.29939 18.4247 3.2999ZM11.4122 3.5749C13.1621 3.5749 14.5747 4.98754 14.5747 6.7374C14.5747 8.48726 13.1621 9.8999 11.4122 9.8999C9.66238 9.8999 8.24974 8.48726 8.24974 6.7374C8.24974 4.98754 9.66238 3.5749 11.4122 3.5749ZM5.37567 3.93208L5.15492 4.04219L5.11195 4.28496L5.28006 4.46489L5.37567 4.48208L5.59588 4.37144L5.63939 4.12866L5.47074 3.94873L5.37567 3.93208ZM17.4488 3.93208L17.2286 4.04219L17.1851 4.28496L17.3537 4.46489L17.4488 4.48208L17.6696 4.37144L17.7125 4.12866L17.5444 3.94873L17.4488 3.93208ZM6.35106 4.56372C6.31462 4.56321 6.27844 4.56994 6.24462 4.58353C6.21081 4.59712 6.18003 4.61729 6.15408 4.64288C6.12812 4.66846 6.10752 4.69895 6.09345 4.73257C6.07939 4.7662 6.07214 4.80228 6.07214 4.83872C6.07214 4.87517 6.07939 4.91125 6.09345 4.94487C6.10752 4.97849 6.12812 5.00898 6.15408 5.03456C6.18003 5.06015 6.21081 5.08033 6.24462 5.09391C6.27844 5.1075 6.31462 5.11424 6.35106 5.11372V4.56372ZM16.4734 4.56372C16.437 4.56321 16.4008 4.56994 16.367 4.58353C16.3332 4.59712 16.3024 4.61729 16.2764 4.64288C16.2505 4.66846 16.2299 4.69895 16.2158 4.73257C16.2017 4.7662 16.1945 4.80228 16.1945 4.83872C16.1945 4.87517 16.2017 4.91125 16.2158 4.94487C16.2299 4.97849 16.2505 5.00898 16.2764 5.03456C16.3024 5.06015 16.3332 5.08033 16.367 5.09391C16.4008 5.1075 16.437 5.11424 16.4734 5.11372C16.5099 5.11424 16.546 5.1075 16.5799 5.09391C16.6137 5.08033 16.6445 5.06015 16.6704 5.03456C16.6964 5.00898 16.717 4.97849 16.731 4.94487C16.7451 4.91125 16.7523 4.87517 16.7523 4.83872C16.7523 4.80228 16.7451 4.7662 16.731 4.73257C16.717 4.69895 16.6964 4.66846 16.6704 4.64288C16.6445 4.61729 16.6137 4.59712 16.5799 4.58353C16.546 4.56994 16.5099 4.56321 16.4734 4.56372ZM11.2259 5.2249L10.3729 5.8125V6.45542L11.1824 5.89736H11.2237V8.5249H11.9144V5.2249H11.2259ZM3.84974 6.3249C3.8133 6.32439 3.77712 6.33112 3.7433 6.34471C3.70949 6.3583 3.67871 6.37847 3.65276 6.40406C3.62681 6.42965 3.6062 6.46014 3.59213 6.49376C3.57807 6.52738 3.57082 6.56346 3.57082 6.5999C3.57082 6.63635 3.57807 6.67243 3.59213 6.70605C3.6062 6.73967 3.62681 6.77016 3.65276 6.79575C3.67871 6.82133 3.70949 6.84151 3.7433 6.8551C3.77712 6.86869 3.8133 6.87542 3.84974 6.8749C3.88618 6.87542 3.92236 6.86869 3.95618 6.8551C3.98999 6.84151 4.02077 6.82133 4.04672 6.79575C4.07268 6.77016 4.09328 6.73967 4.10735 6.70605C4.12141 6.67243 4.12866 6.63635 4.12866 6.5999C4.12866 6.56346 4.12141 6.52738 4.10735 6.49376C4.09328 6.46014 4.07268 6.42965 4.04672 6.40406C4.02077 6.37847 3.98999 6.3583 3.95618 6.34471C3.92236 6.33112 3.88618 6.32439 3.84974 6.3249ZM5.08724 6.3249L4.86703 6.43555L4.82352 6.67778L4.99164 6.85771L5.08724 6.8749L5.30746 6.76426L5.35096 6.52202L5.18285 6.34209L5.08724 6.3249ZM6.32474 6.3249C6.2883 6.32439 6.25212 6.33112 6.2183 6.34471C6.18449 6.3583 6.15371 6.37847 6.12776 6.40406C6.10181 6.42965 6.0812 6.46014 6.06713 6.49376C6.05307 6.52738 6.04582 6.56346 6.04582 6.5999C6.04582 6.63635 6.05307 6.67243 6.06713 6.70605C6.0812 6.73967 6.10181 6.77016 6.12776 6.79575C6.15371 6.82133 6.18449 6.84151 6.2183 6.8551C6.25212 6.86869 6.2883 6.87542 6.32474 6.8749V6.3249ZM16.4997 6.3249C16.4633 6.32439 16.4271 6.33112 16.3933 6.34471C16.3595 6.3583 16.3287 6.37847 16.3028 6.40406C16.2768 6.42965 16.2562 6.46014 16.2421 6.49376C16.2281 6.52738 16.2208 6.56346 16.2208 6.5999C16.2208 6.63635 16.2281 6.67243 16.2421 6.70605C16.2562 6.73967 16.2768 6.77016 16.3028 6.79575C16.3287 6.82133 16.3595 6.84151 16.3933 6.8551C16.4271 6.86869 16.4633 6.87542 16.4997 6.8749C16.5362 6.87542 16.5724 6.86869 16.6062 6.8551C16.64 6.84151 16.6708 6.82133 16.6967 6.79575C16.7227 6.77016 16.7433 6.73967 16.7573 6.70605C16.7714 6.67243 16.7787 6.63635 16.7787 6.5999C16.7787 6.56346 16.7714 6.52738 16.7573 6.49376C16.7433 6.46014 16.7227 6.42965 16.6967 6.40406C16.6708 6.37847 16.64 6.3583 16.6062 6.34471C16.5724 6.33112 16.5362 6.32439 16.4997 6.3249ZM17.5997 6.3249L17.3795 6.43555L17.336 6.67778L17.5041 6.85771L17.5997 6.8749L17.82 6.76426L17.8635 6.52202L17.6953 6.34209L17.5997 6.3249ZM18.6997 6.3249C18.6633 6.32439 18.6271 6.33112 18.5933 6.34471C18.5595 6.3583 18.5287 6.37847 18.5028 6.40406C18.4768 6.42965 18.4562 6.46014 18.4421 6.49376C18.4281 6.52738 18.4208 6.56346 18.4208 6.5999C18.4208 6.63635 18.4281 6.67243 18.4421 6.70605C18.4562 6.73967 18.4768 6.77016 18.5028 6.79575C18.5287 6.82133 18.5595 6.84151 18.5933 6.8551C18.6271 6.86869 18.6633 6.87542 18.6997 6.8749C18.7362 6.87542 18.7724 6.86869 18.8062 6.8551C18.84 6.84151 18.8708 6.82133 18.8967 6.79575C18.9227 6.77016 18.9433 6.73967 18.9573 6.70605C18.9714 6.67243 18.9787 6.63635 18.9787 6.5999C18.9787 6.56346 18.9714 6.52738 18.9573 6.49376C18.9433 6.46014 18.9227 6.42965 18.8967 6.40406C18.8708 6.37847 18.84 6.3583 18.8062 6.34471C18.7724 6.33112 18.7362 6.32439 18.6997 6.3249ZM6.35106 7.9749C6.31462 7.97439 6.27844 7.98112 6.24462 7.99471C6.21081 8.0083 6.18003 8.02847 6.15408 8.05406C6.12812 8.07965 6.10752 8.11014 6.09345 8.14376C6.07939 8.17738 6.07214 8.21346 6.07214 8.2499C6.07214 8.28635 6.07939 8.32243 6.09345 8.35605C6.10752 8.38967 6.12812 8.42016 6.15408 8.44575C6.18003 8.47133 6.21081 8.49151 6.24462 8.5051C6.27844 8.51869 6.31462 8.52542 6.35106 8.5249C6.3875 8.52542 6.42368 8.51869 6.4575 8.5051C6.49131 8.49151 6.52209 8.47133 6.54804 8.44575C6.57399 8.42016 6.5946 8.38967 6.60867 8.35605C6.62273 8.32243 6.62998 8.28635 6.62998 8.2499C6.62998 8.21346 6.62273 8.17738 6.60867 8.14376C6.5946 8.11014 6.57399 8.07965 6.54804 8.05406C6.52209 8.02847 6.49131 8.0083 6.4575 7.99471C6.42368 7.98112 6.3875 7.97439 6.35106 7.9749ZM16.4734 7.9749C16.437 7.97439 16.4008 7.98112 16.367 7.99471C16.3332 8.0083 16.3024 8.02847 16.2764 8.05406C16.2505 8.07965 16.2299 8.11014 16.2158 8.14376C16.2017 8.17738 16.1945 8.21346 16.1945 8.2499C16.1945 8.28635 16.2017 8.32243 16.2158 8.35605C16.2299 8.38967 16.2505 8.42016 16.2764 8.44575C16.3024 8.47133 16.3332 8.49151 16.367 8.5051C16.4008 8.51869 16.437 8.52542 16.4734 8.5249C16.5099 8.52542 16.546 8.51869 16.5799 8.5051C16.6137 8.49151 16.6445 8.47133 16.6704 8.44575C16.6964 8.42016 16.717 8.38967 16.731 8.35605C16.7451 8.32243 16.7523 8.28635 16.7523 8.2499C16.7523 8.21346 16.7451 8.17738 16.731 8.14376C16.717 8.11014 16.6964 8.07965 16.6704 8.05406C16.6445 8.02847 16.6137 8.0083 16.5799 7.99471C16.546 7.98112 16.5099 7.97439 16.4734 7.9749ZM5.37567 8.5249L5.15492 8.63555L5.11195 8.87778L5.28006 9.05771L5.37567 9.0749L5.59588 8.96426L5.63939 8.72202L5.47074 8.54209L5.37567 8.5249ZM17.4488 8.5249L17.2286 8.63555L17.1851 8.87778L17.3537 9.05771L17.4488 9.0749L17.6696 8.96426L17.7125 8.72202L17.5444 8.54209L17.4488 8.5249ZM4.39974 9.0749V9.6249C4.43618 9.62542 4.47236 9.61869 4.50618 9.6051C4.53999 9.59151 4.57077 9.57133 4.59672 9.54575C4.62268 9.52016 4.64328 9.48967 4.65735 9.45605C4.67141 9.42243 4.67866 9.38635 4.67866 9.3499C4.67866 9.31346 4.67141 9.27738 4.65735 9.24376C4.64328 9.21014 4.62268 9.17965 4.59672 9.15406C4.57077 9.12847 4.53999 9.1083 4.50618 9.09471C4.47236 9.08112 4.43618 9.07439 4.39974 9.0749ZM18.4247 9.0749C18.3883 9.07439 18.3521 9.08112 18.3183 9.09471C18.2845 9.1083 18.2537 9.12847 18.2278 9.15406C18.2018 9.17965 18.1812 9.21014 18.1671 9.24376C18.1531 9.27738 18.1458 9.31346 18.1458 9.3499C18.1458 9.38635 18.1531 9.42243 18.1671 9.45605C18.1812 9.48967 18.2018 9.52016 18.2278 9.54575C18.2537 9.57133 18.2845 9.59151 18.3183 9.6051C18.3521 9.61869 18.3883 9.62542 18.4247 9.6249C18.4612 9.62542 18.4974 9.61869 18.5312 9.6051C18.565 9.59151 18.5958 9.57133 18.6217 9.54575C18.6477 9.52016 18.6683 9.48967 18.6823 9.45605C18.6964 9.42243 18.7037 9.38635 18.7037 9.3499C18.7037 9.31346 18.6964 9.27738 18.6823 9.24376C18.6683 9.21014 18.6477 9.17965 18.6217 9.15406C18.5958 9.12847 18.565 9.1083 18.5312 9.09471C18.4974 9.08112 18.4612 9.07439 18.4247 9.0749ZM6.04974 10.9999C5.77966 10.9999 5.52217 11.0517 5.2849 11.1401C5.27669 11.1413 5.28722 11.1361 5.25589 11.1465L5.26288 11.1438C4.66873 11.3248 1.85116 12.1101 1.85116 12.1101C1.81516 12.1187 1.78126 12.1344 1.75148 12.1563C1.7217 12.1783 1.69666 12.206 1.67785 12.2379C1.65904 12.2697 1.64685 12.3051 1.64201 12.3417C1.63717 12.3784 1.63978 12.4157 1.64969 12.4513C1.6596 12.487 1.67659 12.5203 1.69966 12.5492C1.72273 12.5781 1.75139 12.6021 1.78394 12.6197C1.81649 12.6373 1.85226 12.6481 1.88909 12.6515C1.92593 12.655 1.96308 12.6509 1.99832 12.6397C1.99832 12.6397 4.75181 11.8734 5.40414 11.6756C5.4236 11.6726 5.44268 11.6676 5.46107 11.6605C5.64552 11.5898 5.84253 11.5499 6.04974 11.5499C6.35175 11.5499 6.63246 11.6318 6.87635 11.7739C6.8859 11.7793 6.89577 11.7841 6.90589 11.7884C6.90801 11.7894 6.91021 11.7906 6.91234 11.7916C8.64534 12.6098 12.1649 14.3719 12.1744 14.3767C12.1744 14.3767 12.1755 14.3778 12.1755 14.3778C12.1593 14.3691 12.1609 14.3702 12.1943 14.3917C12.2004 14.3958 12.2067 14.3995 12.2131 14.403C12.4731 14.5432 12.6497 14.8097 12.6497 15.1249C12.6497 15.2898 12.6011 15.4407 12.5176 15.5702C12.2757 15.9467 11.8079 16.0263 11.3703 15.8156C11.3652 15.8131 11.36 15.8108 11.3548 15.8086L11.1673 15.7324C11.1336 15.7174 11.0973 15.7093 11.0604 15.7086C11.0236 15.708 10.987 15.7147 10.9528 15.7285C10.9186 15.7423 10.8875 15.7627 10.8614 15.7888C10.8353 15.8148 10.8146 15.8458 10.8007 15.8799C10.7868 15.9141 10.7799 15.9506 10.7805 15.9875C10.781 16.0244 10.7889 16.0607 10.8038 16.0945C10.8186 16.1282 10.8401 16.1586 10.8669 16.1839C10.8938 16.2091 10.9254 16.2288 10.96 16.2416L11.1474 16.3178L11.1319 16.3108C11.6852 16.5772 12.3604 16.5174 12.7931 16.0965L13.0923 16.3012C13.1301 16.327 13.1737 16.3429 13.2192 16.3476C13.2647 16.3523 13.3106 16.3456 13.3528 16.328L17.8651 14.4626L17.7507 14.2344C17.782 14.2969 17.836 14.3452 17.9016 14.3693C17.9673 14.3935 18.0397 14.3917 18.1041 14.3644C18.2025 14.3228 18.3101 14.2999 18.4247 14.2999C18.8836 14.2999 19.2497 14.6661 19.2497 15.1249C19.2497 15.4381 19.0752 15.7038 18.8174 15.8452C18.7569 15.8783 18.711 15.933 18.6889 15.9983C18.6668 16.0637 18.6701 16.135 18.6981 16.198L18.595 15.966L13.1734 18.8438C13.1826 18.8394 13.1746 18.8432 13.1621 18.8471C13.1493 18.8512 13.1367 18.8562 13.1245 18.8621C12.9763 18.9335 12.8179 18.9749 12.6497 18.9749C12.4878 18.9749 12.3355 18.9376 12.1932 18.8723C12.1869 18.8694 12.1804 18.8667 12.1739 18.8643C12.1532 18.8566 12.1497 18.8551 12.1642 18.8616L5.33163 15.9714C5.27005 15.9454 5.20113 15.9427 5.13773 15.9639L1.83773 17.0639C1.7685 17.0869 1.71127 17.1366 1.67863 17.2018C1.646 17.2671 1.64063 17.3427 1.66371 17.4119C1.68678 17.4811 1.73642 17.5384 1.80169 17.571C1.86696 17.6036 1.94252 17.609 2.01175 17.5859L5.21346 16.5187L11.9429 19.3648C11.9844 19.3837 11.9932 19.3841 11.9832 19.3804C12.1849 19.4701 12.41 19.5249 12.6497 19.5249C12.909 19.5249 13.1505 19.4602 13.363 19.3579C13.3796 19.352 13.3943 19.3482 13.4151 19.338C13.4178 19.3366 13.4205 19.3352 13.4232 19.3337L19.0795 16.3318C19.1248 16.3074 19.1624 16.2707 19.188 16.226C19.543 15.9785 19.7997 15.5911 19.7997 15.1249C19.7997 14.3688 19.1809 13.7499 18.4247 13.7499C18.2743 13.7499 18.135 13.7908 17.9988 13.8358H17.9983C17.9616 13.8356 17.9253 13.8427 17.8914 13.8568L13.2798 15.763L13.0542 15.6088C13.1167 15.4521 13.1997 15.3034 13.1997 15.1249C13.1997 14.6024 12.9027 14.1496 12.4741 13.9186L12.4929 13.9298C12.5021 13.9357 12.4838 13.9186 12.4349 13.8922C12.4326 13.8909 12.4303 13.8897 12.4279 13.8885C12.4279 13.8885 8.89015 12.1165 7.14115 11.291C7.13919 11.2901 7.13722 11.2892 7.13524 11.2883C7.10513 11.2749 7.10212 11.2749 7.11698 11.2808C6.80112 11.1044 6.43744 10.9999 6.04974 10.9999ZM7.69974 14.5749C7.54794 14.5749 7.42474 14.6981 7.42474 14.8499C7.42474 15.0017 7.54794 15.1249 7.69974 15.1249C7.85154 15.1249 7.97474 15.0017 7.97474 14.8499C7.97474 14.6981 7.85154 14.5749 7.69974 14.5749ZM8.52474 14.8499C8.37294 14.8499 8.24974 14.9731 8.24974 15.1249C8.24974 15.2767 8.37294 15.3999 8.52474 15.3999C8.67654 15.3999 8.79974 15.2767 8.79974 15.1249C8.79974 14.9731 8.67654 14.8499 8.52474 14.8499ZM9.34974 15.1249C9.19794 15.1249 9.07474 15.2481 9.07474 15.3999C9.07474 15.5517 9.19794 15.6749 9.34974 15.6749C9.50154 15.6749 9.62474 15.5517 9.62474 15.3999C9.62474 15.2481 9.50154 15.1249 9.34974 15.1249ZM10.1747 15.3999C10.0229 15.3999 9.89974 15.5231 9.89974 15.6749C9.89974 15.8267 10.0229 15.9499 10.1747 15.9499C10.3265 15.9499 10.4497 15.8267 10.4497 15.6749C10.4497 15.5231 10.3265 15.3999 10.1747 15.3999Z" fill="black"/>
</svg>
