<svg width="22" height="22" viewBox="0 0 22 22" fill="none" xmlns="http://www.w3.org/2000/svg">
<path d="M10.9999 1.75977C5.42426 1.75977 0.879883 5.66648 0.879883 10.558C0.879883 13.3957 2.43363 15.8673 4.8227 17.4812C4.81926 17.5757 4.82613 17.7304 4.70238 18.191C4.5477 18.7634 4.23488 19.5677 3.60238 20.4752L3.15207 21.1198H3.93926C6.66176 21.1198 8.23785 19.3443 8.48191 19.059C9.29316 19.2498 10.1268 19.3529 10.9999 19.3529C16.5738 19.3529 21.1199 15.4462 21.1199 10.5563C21.1199 5.66648 16.5755 1.75977 10.9999 1.75977ZM10.9999 2.63977C16.0943 2.63977 20.2399 6.1907 20.2399 10.558C20.2399 14.9237 16.0943 18.4746 10.9999 18.4746C10.2213 18.4746 9.46332 18.3852 8.68301 18.203L8.16051 18.081L7.81332 18.4866C7.51254 18.839 6.5002 19.8737 4.83301 20.1641C5.1527 19.5901 5.39332 19.0057 5.54973 18.4196C5.67348 17.9659 5.69582 17.727 5.70098 17.5173L5.7216 17.0274L5.31426 16.7524C3.05582 15.2245 1.75988 12.966 1.75988 10.558C1.75988 6.1907 5.90551 2.63977 10.9999 2.63977ZM10.9655 5.71977C10.785 5.71977 10.62 5.83148 10.5547 6.00164L9.55613 8.59523L6.77863 8.74648C6.59645 8.7568 6.44004 8.87711 6.38332 9.04898C6.3266 9.22258 6.38332 9.41164 6.52426 9.5268L8.68301 11.2799L7.96801 13.9663C7.91988 14.1416 7.98691 14.329 8.13301 14.4355C8.21035 14.4923 8.30145 14.5198 8.39254 14.5198C8.47504 14.5198 8.55926 14.4957 8.63145 14.4493L10.9655 12.9385L13.3013 14.4493C13.4525 14.5473 13.6502 14.5438 13.798 14.4355C13.9458 14.329 14.0111 14.1416 13.963 13.9663L13.248 11.2799L15.4068 9.5268C15.5477 9.41164 15.6044 9.22258 15.5494 9.04898C15.4927 8.87539 15.3346 8.75508 15.1524 8.74477L12.3766 8.59523L11.3763 6.00164C11.311 5.83148 11.1477 5.71977 10.9655 5.71977Z" fill="black"/>
</svg>
