<svg width="22" height="22" viewBox="0 0 22 22" fill="none" xmlns="http://www.w3.org/2000/svg">
<path d="M2.93323 2.93318C2.83606 2.9318 2.73958 2.94976 2.6494 2.98599C2.55922 3.02223 2.47715 3.07603 2.40794 3.14426C2.33874 3.21249 2.28379 3.2938 2.24628 3.38346C2.20877 3.47311 2.18945 3.56933 2.18945 3.66651C2.18945 3.7637 2.20877 3.85991 2.24628 3.94957C2.28379 4.03922 2.33874 4.12053 2.40794 4.18876C2.47715 4.257 2.55922 4.31079 2.6494 4.34703C2.73958 4.38327 2.83606 4.40122 2.93323 4.39985H10.9999H19.0666C19.1637 4.40122 19.2602 4.38327 19.3504 4.34703C19.4406 4.31079 19.5226 4.257 19.5919 4.18876C19.6611 4.12053 19.716 4.03922 19.7535 3.94957C19.791 3.85991 19.8103 3.7637 19.8103 3.66651C19.8103 3.56933 19.791 3.47311 19.7535 3.38346C19.716 3.2938 19.6611 3.21249 19.5919 3.14426C19.5226 3.07603 19.4406 3.02223 19.3504 2.98599C19.2602 2.94976 19.1637 2.9318 19.0666 2.93318H2.93323ZM10.9999 4.39985L8.7999 6.59985H13.1999L10.9999 4.39985ZM6.5999 8.79985C6.50466 8.80016 6.40968 8.80976 6.3163 8.82849C6.30854 8.83005 6.30111 8.83254 6.29339 8.83422C5.96538 8.90432 5.67132 9.08472 5.4602 9.34535C5.24909 9.60598 5.13369 9.9311 5.13323 10.2665V16.8665H3.2999C2.6927 16.8665 2.1999 17.3593 2.1999 17.9665C2.1999 18.5737 2.6927 19.0665 3.2999 19.0665H5.74339C5.82258 19.0796 5.90339 19.0796 5.98258 19.0665H16.0101C16.0892 19.0796 16.1701 19.0796 16.2492 19.0665H18.6999C19.3071 19.0665 19.7999 18.5737 19.7999 17.9665C19.7999 17.3593 19.3071 16.8665 18.6999 16.8665H16.8666V10.2665C16.8662 10.1713 16.8567 10.0763 16.8379 9.98292C16.8364 9.97515 16.8339 9.96773 16.8322 9.96C16.7621 9.632 16.5817 9.33793 16.3211 9.12682C16.0604 8.9157 15.7353 8.8003 15.3999 8.79985H6.5999ZM8.06656 10.2665H13.9332C13.9332 10.6555 14.0878 11.0285 14.3628 11.3036C14.6379 11.5787 15.0109 11.7332 15.3999 11.7332V17.5998H13.8158C13.4477 16.3369 12.169 15.3998 10.6332 15.3998C9.59043 15.3998 8.67156 15.8381 8.06656 16.5099V17.5998H6.5999V11.7332C6.98888 11.7332 7.36193 11.5787 7.63699 11.3036C7.91204 11.0285 8.06656 10.6555 8.06656 10.2665ZM10.9999 11.7332C10.8054 11.7332 10.6189 11.8104 10.4814 11.948C10.3438 12.0855 10.2666 12.272 10.2666 12.4665C10.2666 12.661 10.3438 12.8475 10.4814 12.9851C10.6189 13.1226 10.8054 13.1998 10.9999 13.1998C11.1944 13.1998 11.3809 13.1226 11.5184 12.9851C11.656 12.8475 11.7332 12.661 11.7332 12.4665C11.7332 12.272 11.656 12.0855 11.5184 11.948C11.3809 11.8104 11.1944 11.7332 10.9999 11.7332Z" fill="black"/>
</svg>
