<svg width="49" height="41" viewBox="0 0 49 41" fill="none" xmlns="http://www.w3.org/2000/svg">
<path d="M9.75403 38H8.82221L10.916 32.1818H11.9302L14.0239 38H13.0921L11.4472 33.2386H11.4018L9.75403 38ZM9.91028 35.7216H12.933V36.4602H9.91028V35.7216ZM16.5317 38.0881C16.1093 38.0881 15.7457 37.9924 15.4408 37.8011C15.1377 37.608 14.9048 37.3419 14.7419 37.0028C14.579 36.6638 14.4976 36.2756 14.4976 35.8381C14.4976 35.3949 14.5809 35.0038 14.7476 34.6648C14.9143 34.3239 15.1491 34.0578 15.4521 33.8665C15.7552 33.6752 16.1122 33.5795 16.5232 33.5795C16.8546 33.5795 17.1501 33.6411 17.4095 33.7642C17.669 33.8854 17.8783 34.0559 18.0374 34.2756C18.1984 34.4953 18.294 34.7519 18.3243 35.0455H17.4976C17.4521 34.8409 17.348 34.6648 17.1851 34.517C17.0241 34.3693 16.8082 34.2955 16.5374 34.2955C16.3006 34.2955 16.0932 34.358 15.9152 34.483C15.7391 34.6061 15.6018 34.7822 15.5033 35.0114C15.4048 35.2386 15.3555 35.5076 15.3555 35.8182C15.3555 36.1364 15.4038 36.411 15.5004 36.642C15.597 36.8731 15.7334 37.0521 15.9095 37.179C16.0876 37.3059 16.2968 37.3693 16.5374 37.3693C16.6984 37.3693 16.8442 37.34 16.9749 37.2812C17.1074 37.2206 17.2182 37.1345 17.3073 37.0227C17.3982 36.911 17.4616 36.7765 17.4976 36.6193H18.3243C18.294 36.9015 18.2021 37.1534 18.0487 37.375C17.8953 37.5966 17.6898 37.7708 17.4323 37.8977C17.1766 38.0246 16.8764 38.0881 16.5317 38.0881ZM21.0387 38.0881C20.6164 38.0881 20.2528 37.9924 19.9478 37.8011C19.6448 37.608 19.4119 37.3419 19.249 37.0028C19.0861 36.6638 19.0047 36.2756 19.0047 35.8381C19.0047 35.3949 19.088 35.0038 19.2547 34.6648C19.4213 34.3239 19.6562 34.0578 19.9592 33.8665C20.2622 33.6752 20.6192 33.5795 21.0302 33.5795C21.3617 33.5795 21.6571 33.6411 21.9166 33.7642C22.1761 33.8854 22.3853 34.0559 22.5444 34.2756C22.7054 34.4953 22.8011 34.7519 22.8314 35.0455H22.0047C21.9592 34.8409 21.855 34.6648 21.6922 34.517C21.5312 34.3693 21.3153 34.2955 21.0444 34.2955C20.8077 34.2955 20.6003 34.358 20.4223 34.483C20.2461 34.6061 20.1088 34.7822 20.0103 35.0114C19.9119 35.2386 19.8626 35.5076 19.8626 35.8182C19.8626 36.1364 19.9109 36.411 20.0075 36.642C20.1041 36.8731 20.2405 37.0521 20.4166 37.179C20.5946 37.3059 20.8039 37.3693 21.0444 37.3693C21.2054 37.3693 21.3512 37.34 21.4819 37.2812C21.6145 37.2206 21.7253 37.1345 21.8143 37.0227C21.9052 36.911 21.9687 36.7765 22.0047 36.6193H22.8314C22.8011 36.9015 22.7092 37.1534 22.5558 37.375C22.4024 37.5966 22.1969 37.7708 21.9393 37.8977C21.6836 38.0246 21.3834 38.0881 21.0387 38.0881ZM25.5458 38.0881C25.1367 38.0881 24.7797 37.9943 24.4748 37.8068C24.1699 37.6193 23.9331 37.357 23.7646 37.0199C23.596 36.6828 23.5117 36.2888 23.5117 35.8381C23.5117 35.3854 23.596 34.9896 23.7646 34.6506C23.9331 34.3116 24.1699 34.0483 24.4748 33.8608C24.7797 33.6733 25.1367 33.5795 25.5458 33.5795C25.9549 33.5795 26.3119 33.6733 26.6168 33.8608C26.9218 34.0483 27.1585 34.3116 27.3271 34.6506C27.4956 34.9896 27.5799 35.3854 27.5799 35.8381C27.5799 36.2888 27.4956 36.6828 27.3271 37.0199C27.1585 37.357 26.9218 37.6193 26.6168 37.8068C26.3119 37.9943 25.9549 38.0881 25.5458 38.0881ZM25.5487 37.375C25.8138 37.375 26.0335 37.3049 26.2077 37.1648C26.382 37.0246 26.5108 36.8381 26.5941 36.6051C26.6793 36.3722 26.7219 36.1155 26.7219 35.8352C26.7219 35.5568 26.6793 35.3011 26.5941 35.0682C26.5108 34.8333 26.382 34.6449 26.2077 34.5028C26.0335 34.3608 25.8138 34.2898 25.5487 34.2898C25.2816 34.2898 25.06 34.3608 24.8839 34.5028C24.7096 34.6449 24.5799 34.8333 24.4947 35.0682C24.4113 35.3011 24.3697 35.5568 24.3697 35.8352C24.3697 36.1155 24.4113 36.3722 24.4947 36.6051C24.5799 36.8381 24.7096 37.0246 24.8839 37.1648C25.06 37.3049 25.2816 37.375 25.5487 37.375ZM31.2603 36.1903V33.6364H32.1125V38H31.2773V37.2443H31.2318C31.1315 37.4773 30.9705 37.6714 30.7489 37.8267C30.5292 37.9801 30.2555 38.0568 29.9279 38.0568C29.6476 38.0568 29.3995 37.9953 29.1836 37.8722C28.9695 37.7472 28.801 37.5625 28.6779 37.3182C28.5567 37.0739 28.4961 36.7718 28.4961 36.4119V33.6364H29.3455V36.3097C29.3455 36.607 29.4279 36.8437 29.5926 37.0199C29.7574 37.196 29.9714 37.2841 30.2347 37.2841C30.3938 37.2841 30.5519 37.2443 30.7091 37.1648C30.8682 37.0852 30.9998 36.965 31.104 36.804C31.2101 36.643 31.2622 36.4384 31.2603 36.1903ZM34.0713 35.4091V38H33.2219V33.6364H34.0372V34.3466H34.0912C34.1916 34.1155 34.3488 33.9299 34.5628 33.7898C34.7787 33.6496 35.0505 33.5795 35.3781 33.5795C35.6755 33.5795 35.9359 33.642 36.1594 33.767C36.3829 33.8902 36.5561 34.0739 36.6793 34.3182C36.8024 34.5625 36.8639 34.8646 36.8639 35.2244V38H36.0145V35.3267C36.0145 35.0104 35.9321 34.7633 35.7673 34.5852C35.6025 34.4053 35.3762 34.3153 35.0883 34.3153C34.8914 34.3153 34.7162 34.358 34.5628 34.4432C34.4113 34.5284 34.291 34.6534 34.202 34.8182C34.1149 34.9811 34.0713 35.178 34.0713 35.4091ZM40.008 33.6364V34.3182H37.6245V33.6364H40.008ZM38.2637 32.5909H39.1132V36.7188C39.1132 36.8835 39.1378 37.0076 39.187 37.0909C39.2363 37.1723 39.2997 37.2282 39.3774 37.2585C39.4569 37.2869 39.5431 37.3011 39.6359 37.3011C39.7041 37.3011 39.7637 37.2964 39.8149 37.2869C39.866 37.2775 39.9058 37.2699 39.9342 37.2642L40.0876 37.9659C40.0384 37.9848 39.9683 38.0038 39.8774 38.0227C39.7865 38.0436 39.6728 38.0549 39.5365 38.0568C39.313 38.0606 39.1046 38.0208 38.9115 37.9375C38.7183 37.8542 38.562 37.7254 38.4427 37.5511C38.3234 37.3769 38.2637 37.1581 38.2637 36.8949V32.5909Z" fill="black"/>
<g clip-path="url(#clip0_431_5201)">
<path d="M17.834 24.1492V23.2992C17.834 20.4826 20.0726 18.1992 22.834 18.1992H26.1673C28.9287 18.1992 31.1673 20.4826 31.1673 23.2992V24.1492" stroke="black" stroke-width="1.2" stroke-linecap="round"/>
<path d="M24.5013 15.6496C22.6604 15.6496 21.168 14.1274 21.168 12.2496C21.168 10.3718 22.6604 8.84961 24.5013 8.84961C26.3422 8.84961 27.8346 10.3718 27.8346 12.2496C27.8346 14.1274 26.3422 15.6496 24.5013 15.6496Z" stroke="black" stroke-width="1.2" stroke-linecap="round"/>
</g>
<defs>
<clipPath id="clip0_431_5201">
<rect width="15" height="17" fill="white" transform="translate(17 8)"/>
</clipPath>
</defs>
</svg>
