<svg width="28" height="28" viewBox="0 0 28 28" fill="none" xmlns="http://www.w3.org/2000/svg">
<rect width="28" height="28" rx="14" fill="white"/>
<path fill-rule="evenodd" clip-rule="evenodd" d="M8.52051 10.2311C8.52051 10.042 8.6738 9.88867 8.8629 9.88867H9.89007C10.0472 9.88867 10.1841 9.9956 10.2222 10.148L10.4998 11.2582H18.4499C18.5553 11.2582 18.6548 11.3068 18.7197 11.3899C18.7846 11.473 18.8076 11.5814 18.782 11.6837L17.7548 15.7924C17.7167 15.9448 17.5798 16.0517 17.4227 16.0517H11.2596C11.1025 16.0517 10.9656 15.9448 10.9275 15.7924L9.62274 10.5735H8.8629C8.6738 10.5735 8.52051 10.4202 8.52051 10.2311ZM10.671 11.943L11.527 15.3669H17.1553L18.0113 11.943H10.671ZM11.9444 17.4213C11.5662 17.4213 11.2596 17.7279 11.2596 18.1061C11.2596 18.4843 11.5662 18.7908 11.9444 18.7908C12.3226 18.7908 12.6292 18.4843 12.6292 18.1061C12.6292 17.7279 12.3226 17.4213 11.9444 17.4213ZM10.5749 18.1061C10.5749 17.3497 11.188 16.7365 11.9444 16.7365C12.7008 16.7365 13.314 17.3497 13.314 18.1061C13.314 18.8625 12.7008 19.4756 11.9444 19.4756C11.188 19.4756 10.5749 18.8625 10.5749 18.1061ZM16.7379 17.4213C16.3597 17.4213 16.0531 17.7279 16.0531 18.1061C16.0531 18.4843 16.3597 18.7908 16.7379 18.7908C17.1161 18.7908 17.4227 18.4843 17.4227 18.1061C17.4227 17.7279 17.1161 17.4213 16.7379 17.4213ZM15.3683 18.1061C15.3683 17.3497 15.9815 16.7365 16.7379 16.7365C17.4943 16.7365 18.1075 17.3497 18.1075 18.1061C18.1075 18.8625 17.4943 19.4756 16.7379 19.4756C15.9815 19.4756 15.3683 18.8625 15.3683 18.1061Z" fill="black"/>
</svg>
