<svg width="32" height="33" viewBox="0 0 32 33" fill="none" xmlns="http://www.w3.org/2000/svg">
<g filter="url(#filter0_dd_253_6980)">
<rect x="2" y="2" width="28" height="28" rx="14" fill="#249B3E"/>
<path fill-rule="evenodd" clip-rule="evenodd" d="M10.5205 12.2311C10.5205 12.042 10.6738 11.8887 10.8629 11.8887H11.8901C12.0472 11.8887 12.1841 11.9956 12.2222 12.148L12.4998 13.2582H20.4499C20.5553 13.2582 20.6548 13.3068 20.7197 13.3899C20.7846 13.473 20.8076 13.5814 20.782 13.6837L19.7548 17.7924C19.7167 17.9448 19.5798 18.0517 19.4227 18.0517H13.2596C13.1025 18.0517 12.9656 17.9448 12.9275 17.7924L11.6227 12.5735H10.8629C10.6738 12.5735 10.5205 12.4202 10.5205 12.2311ZM12.671 13.943L13.527 17.3669H19.1553L20.0113 13.943H12.671ZM13.9444 19.4213C13.5662 19.4213 13.2596 19.7279 13.2596 20.1061C13.2596 20.4843 13.5662 20.7908 13.9444 20.7908C14.3226 20.7908 14.6292 20.4843 14.6292 20.1061C14.6292 19.7279 14.3226 19.4213 13.9444 19.4213ZM12.5749 20.1061C12.5749 19.3497 13.188 18.7365 13.9444 18.7365C14.7008 18.7365 15.314 19.3497 15.314 20.1061C15.314 20.8625 14.7008 21.4756 13.9444 21.4756C13.188 21.4756 12.5749 20.8625 12.5749 20.1061ZM18.7379 19.4213C18.3597 19.4213 18.0531 19.7279 18.0531 20.1061C18.0531 20.4843 18.3597 20.7908 18.7379 20.7908C19.1161 20.7908 19.4227 20.4843 19.4227 20.1061C19.4227 19.7279 19.1161 19.4213 18.7379 19.4213ZM17.3683 20.1061C17.3683 19.3497 17.9815 18.7365 18.7379 18.7365C19.4943 18.7365 20.1075 19.3497 20.1075 20.1061C20.1075 20.8625 19.4943 21.4756 18.7379 21.4756C17.9815 21.4756 17.3683 20.8625 17.3683 20.1061Z" fill="white"/>
</g>
<defs>
<filter id="filter0_dd_253_6980" x="0.173913" y="0.782609" width="31.6522" height="31.6522" filterUnits="userSpaceOnUse" color-interpolation-filters="sRGB">
<feFlood flood-opacity="0" result="BackgroundImageFix"/>
<feColorMatrix in="SourceAlpha" type="matrix" values="0 0 0 0 0 0 0 0 0 0 0 0 0 0 0 0 0 0 127 0" result="hardAlpha"/>
<feOffset dy="0.608696"/>
<feGaussianBlur stdDeviation="0.913043"/>
<feColorMatrix type="matrix" values="0 0 0 0 0.196078 0 0 0 0 0.196078 0 0 0 0 0.278431 0 0 0 0.1 0"/>
<feBlend mode="normal" in2="BackgroundImageFix" result="effect1_dropShadow_253_6980"/>
<feColorMatrix in="SourceAlpha" type="matrix" values="0 0 0 0 0 0 0 0 0 0 0 0 0 0 0 0 0 0 127 0" result="hardAlpha"/>
<feOffset/>
<feGaussianBlur stdDeviation="0.304348"/>
<feColorMatrix type="matrix" values="0 0 0 0 0.0470588 0 0 0 0 0.101961 0 0 0 0 0.294118 0 0 0 0.2 0"/>
<feBlend mode="normal" in2="effect1_dropShadow_253_6980" result="effect2_dropShadow_253_6980"/>
<feBlend mode="normal" in="SourceGraphic" in2="effect2_dropShadow_253_6980" result="shape"/>
</filter>
</defs>
</svg>
