<svg width="32" height="32" viewBox="0 0 32 32" fill="none" xmlns="http://www.w3.org/2000/svg">
<g clip-path="url(#clip0_2204_13300)">
<path d="M15.5 8.625C17.3646 8.625 19 10.1388 19 11.8643C19 13.658 17.5002 16.1876 15.5 19.3551C13.4998 16.1876 12 13.658 12 11.8643C12 10.1388 13.6354 8.625 15.5 8.625ZM15.5 6.875C12.7455 6.875 10.25 9.10888 10.25 11.8643C10.25 14.6188 12.5268 17.9079 15.5 22.625C18.4732 17.9079 20.75 14.6188 20.75 11.8643C20.75 9.10888 18.2554 6.875 15.5 6.875ZM15.5 13.875C14.5331 13.875 13.75 13.0919 13.75 12.125C13.75 11.1581 14.5331 10.375 15.5 10.375C16.4669 10.375 17.25 11.1581 17.25 12.125C17.25 13.0919 16.4669 13.875 15.5 13.875ZM26 26.125H5L8.5 19.125H11.2431C11.58 19.6859 11.9414 20.2704 12.3211 20.875H9.5815L7.8315 24.375H23.1676L21.4176 20.875H18.678C19.0586 20.2704 19.42 19.6859 19.756 19.125H22.5L26 26.125Z" fill="black"/>
</g>
<defs>
<clipPath id="clip0_2204_13300">
<rect width="21" height="21" fill="white" transform="translate(5 6)"/>
</clipPath>
</defs>
</svg>
