<svg width="14" height="12" viewBox="0 0 14 12" fill="none" xmlns="http://www.w3.org/2000/svg">
<path fill-rule="evenodd" clip-rule="evenodd" d="M0.666504 0.73777C0.666504 0.514226 0.855539 0.333008 1.08873 0.333008H2.35539C2.54914 0.333008 2.71802 0.459414 2.76501 0.639601L3.10728 1.95206H12.9109C13.041 1.95206 13.1637 2.00948 13.2437 2.10772C13.3238 2.20596 13.3521 2.33407 13.3206 2.45499L12.0539 7.31213C12.0069 7.49232 11.838 7.61872 11.6443 7.61872H4.04428C3.85054 7.61872 3.68165 7.49232 3.63467 7.31213L2.02573 1.14253H1.08873C0.855539 1.14253 0.666504 0.961314 0.666504 0.73777ZM3.31839 2.76158L4.37394 6.8092H11.3146L12.3702 2.76158H3.31839ZM4.88872 9.23777C4.42235 9.23777 4.04428 9.60021 4.04428 10.0473C4.04428 10.4944 4.42235 10.8568 4.88872 10.8568C5.3551 10.8568 5.73317 10.4944 5.73317 10.0473C5.73317 9.60021 5.3551 9.23777 4.88872 9.23777ZM3.19984 10.0473C3.19984 9.15312 3.95598 8.42825 4.88872 8.42825C5.82147 8.42825 6.57761 9.15312 6.57761 10.0473C6.57761 10.9415 5.82147 11.6663 4.88872 11.6663C3.95598 11.6663 3.19984 10.9415 3.19984 10.0473ZM10.7998 9.23777C10.3335 9.23777 9.95539 9.60021 9.95539 10.0473C9.95539 10.4944 10.3335 10.8568 10.7998 10.8568C11.2662 10.8568 11.6443 10.4944 11.6443 10.0473C11.6443 9.60021 11.2662 9.23777 10.7998 9.23777ZM9.11095 10.0473C9.11095 9.15312 9.86709 8.42825 10.7998 8.42825C11.7326 8.42825 12.4887 9.15312 12.4887 10.0473C12.4887 10.9415 11.7326 11.6663 10.7998 11.6663C9.86709 11.6663 9.11095 10.9415 9.11095 10.0473Z" fill="black"/>
</svg>
