<svg width="1000" height="1000" viewBox="0 0 1000 1000" fill="none" xmlns="http://www.w3.org/2000/svg">
<rect width="1000" height="1000" fill="#F3A195"/>
<path d="M335.845 532.382C338.736 544.151 342.71 555.958 345.91 567.796C352.125 590.823 358.351 613.847 364.587 636.869C364.603 636.931 365.126 639.29 366.156 643.947C369.682 659.919 382.785 665.027 397.844 663.482C400.379 663.224 402.364 662.544 403.796 661.442C446.783 628.349 489.788 595.281 532.811 562.24C537.893 558.335 543.59 552.895 549.903 545.92C567.364 526.618 582.263 505.777 594.601 483.399C615.582 445.358 622.864 402.187 620.537 358.59C618.256 315.874 605.942 272.555 582.812 236.338C573.216 221.306 560.875 207.428 545.791 194.704C531.659 182.788 454.825 117.733 438.298 128.366C437.246 129.046 435.971 130.596 434.471 133.017C415.861 162.999 397.272 193.016 378.703 223.07C378.596 223.241 378.443 223.379 378.261 223.466C378.079 223.554 377.876 223.588 377.675 223.565C366.43 222.236 355.349 223.132 344.434 226.254C332.389 229.695 320.961 234.656 310.149 241.136C310.106 241.163 310.055 241.175 310.004 241.169C309.954 241.164 309.907 241.141 309.871 241.105C309.835 241.069 309.812 241.022 309.806 240.972C309.801 240.921 309.812 240.87 309.84 240.827C334.402 199.518 359.042 158.198 383.759 116.867C388.789 108.46 391.446 104.045 391.729 103.623C398.045 94.2577 406.486 86.2987 416.644 81.2915C438.29 70.6048 465.803 75.017 487.332 83.5092C589.344 123.714 655.371 219.268 671.937 325.564C685.535 412.719 664.044 503.374 601.566 567.811C584.92 584.981 567.106 600.853 548.125 615.426C505.924 647.819 460.763 675.907 417.959 707.465C417.263 707.975 415.66 708.57 413.15 709.25C379.754 718.25 352.319 709.791 330.843 683.874C328.138 680.613 326.592 677.823 325.432 673.481C302.622 588.018 279.319 502.687 255.525 417.486C253.762 411.166 251.853 405.069 249.913 398.926C247.199 390.341 245.962 381.022 246.001 372.298C246.163 333.847 265.335 297.931 292.059 270.778C298.306 264.434 303.841 259.195 311.71 255.084C319.168 251.189 326.259 248.029 332.985 245.603C378.054 229.334 419.154 235.55 456.287 264.248C468.691 273.84 479.638 285.199 489.126 298.325C491.053 300.994 492.69 303.853 494.035 306.902C514.01 352.184 513.33 399.845 488.832 442.739C483.127 452.728 476.329 461.902 468.439 470.263C467.759 470.979 466.568 471.981 464.867 473.269C427.807 501.262 390.768 529.325 353.749 557.457C353.7 557.495 353.642 557.519 353.581 557.53C353.519 557.54 353.457 557.535 353.398 557.515C353.339 557.495 353.286 557.461 353.243 557.416C353.201 557.371 353.17 557.316 353.154 557.256C349.015 542.013 344.423 526.855 339.378 511.781C338.899 510.349 338.625 509.069 338.558 507.941C338.551 507.805 338.577 507.668 338.633 507.543C338.69 507.418 338.775 507.308 338.883 507.222C364.801 487.096 390.768 467.044 416.784 447.066C429.755 437.106 444.034 425.268 451.919 410.578C452.96 408.641 453.772 406.362 454.354 403.74C455.153 400.123 455.934 396.507 456.696 392.891C464.929 353.675 456.441 316.422 417.796 297.692C407.479 292.695 396.481 289.181 384.802 287.152C381.906 286.647 379.02 286.503 376.144 286.719C353.169 288.473 330.542 297.39 315.529 314.977C301.073 331.931 294.61 356.326 295.26 378.31C295.332 380.7 295.729 383.229 296.45 385.898C308.196 429.268 319.93 472.646 331.655 516.031C332.907 520.652 334.304 526.102 335.845 532.382Z" fill="white"/>
<path d="M374.678 922.716C387.31 878.732 407.919 836.866 432.688 798.485C462.945 751.587 497.835 708.458 537.359 669.101C541.085 665.387 544.917 661.946 548.854 658.778C591.395 624.531 639.966 594.58 693.454 581.413C713.012 576.599 734.17 574.111 754.177 577.294C754.268 577.31 754.355 577.344 754.432 577.394C754.509 577.445 754.574 577.512 754.623 577.589C754.672 577.667 754.704 577.753 754.716 577.844C754.728 577.934 754.721 578.026 754.695 578.114C751.495 588.901 741.368 597.524 733.49 603.474C722.861 611.51 711.334 618.589 700.867 626.277C666.157 651.777 624.66 678.745 596.59 697.87C558.1 724.08 520.004 752.941 486.454 786.06C483.016 789.455 479.439 793.161 475.724 797.18C438.89 836.969 405.492 878.946 375.528 923.11C374.415 924.748 374.132 924.617 374.678 922.716Z" fill="white"/>
</svg>
