<svg width="49" height="41" viewBox="0 0 49 41" fill="none" xmlns="http://www.w3.org/2000/svg">
<path d="M20.32 17.0894C20.2761 16.9116 20.2364 16.7574 20.2008 16.6266C19.8672 15.3986 19.5333 14.1708 19.1991 12.9433C19.1786 12.8677 19.1673 12.7961 19.1652 12.7285C19.1468 12.1062 19.3306 11.4158 19.742 10.9359C20.1691 10.4381 20.8129 10.1857 21.4666 10.1361C21.5484 10.13 21.6305 10.134 21.713 10.1483C22.0452 10.2058 22.3581 10.3052 22.6517 10.4467C23.7513 10.9768 23.9928 12.0312 23.7585 13.1412C23.7368 13.2436 23.7146 13.3459 23.6919 13.4483C23.6753 13.5225 23.6522 13.587 23.6226 13.6418C23.3982 14.0576 22.992 14.3927 22.6229 14.6746C21.8827 15.24 21.1439 15.8076 20.4064 16.3773C20.4034 16.3797 20.4009 16.3828 20.3993 16.3863C20.3977 16.3899 20.397 16.3937 20.3972 16.3976C20.3991 16.4295 20.4069 16.4658 20.4205 16.5063C20.5641 16.9329 20.6947 17.362 20.8125 17.7934C20.8129 17.7951 20.8138 17.7967 20.815 17.7979C20.8162 17.7992 20.8177 17.8002 20.8194 17.8007C20.8211 17.8013 20.8229 17.8014 20.8246 17.8012C20.8264 17.8009 20.828 17.8002 20.8294 17.7991C21.8827 17.0028 22.9365 16.2086 23.991 15.4162C24.0394 15.3798 24.0733 15.3514 24.0926 15.3312C24.3171 15.0945 24.5105 14.8348 24.6729 14.5521C25.3699 13.338 25.3892 11.989 24.8209 10.7074C24.7826 10.621 24.7361 10.5401 24.6812 10.4646C24.4113 10.0931 24.0998 9.77157 23.7469 9.50007C22.6903 8.68778 21.5209 8.51186 20.2386 8.97232C20.0472 9.041 19.8455 9.13045 19.6333 9.24068C19.4094 9.35704 19.2519 9.50532 19.0742 9.68489C18.3138 10.4534 17.7683 11.47 17.7637 12.5583C17.7626 12.8053 17.7978 13.069 17.875 13.312C17.9302 13.4859 17.9845 13.6584 18.0347 13.8374C18.7117 16.2489 19.3747 18.6641 20.0237 21.0831C20.0567 21.206 20.1007 21.2849 20.1777 21.3772C20.7887 22.1108 21.5693 22.3502 22.5195 22.0955C22.5909 22.0762 22.6365 22.0594 22.6563 22.045C23.8742 21.1517 25.1592 20.3567 26.3599 19.4399C26.9 19.0274 27.4068 18.5782 27.8804 18.0922C29.6581 16.2683 30.2696 13.7024 29.8827 11.2356C29.4113 8.22695 27.5327 5.52236 24.6302 4.3844C24.0176 4.14404 23.2348 4.01915 22.6189 4.32163C22.3299 4.46336 22.0897 4.68863 21.91 4.95371C21.902 4.96566 21.8264 5.09062 21.6833 5.32858C20.98 6.4984 20.2789 7.66792 19.5801 8.83716C19.5793 8.83838 19.579 8.83982 19.5791 8.84125C19.5793 8.84268 19.5799 8.84401 19.581 8.84503C19.582 8.84604 19.5833 8.84669 19.5848 8.84685C19.5862 8.84701 19.5876 8.84667 19.5889 8.84591C19.8965 8.66248 20.2217 8.52207 20.5644 8.42467C20.8749 8.33631 21.1902 8.31094 21.5102 8.34856C21.5159 8.34922 21.5216 8.34825 21.5268 8.34577C21.532 8.34329 21.5364 8.33941 21.5394 8.33456C22.0677 7.48391 22.5966 6.63429 23.1261 5.78569C23.1688 5.71716 23.2051 5.67327 23.235 5.65402C23.7053 5.35308 25.8914 7.19441 26.2935 7.53167C26.7227 7.89181 27.0738 8.28462 27.3468 8.71009C28.0049 9.73519 28.3553 10.9613 28.4202 12.1703C28.4864 13.4043 28.2792 14.6262 27.6823 15.703C27.3312 16.3364 26.9073 16.9262 26.4105 17.4726C26.2309 17.67 26.0688 17.824 25.9242 17.9345C24.7001 18.8697 23.4765 19.8056 22.2534 20.7423C22.2126 20.7735 22.1562 20.7928 22.084 20.8001C21.6555 20.8438 21.2827 20.6992 21.1824 20.2471C21.1531 20.1153 21.1382 20.0486 21.1378 20.0468C20.9603 19.3952 20.7832 18.7435 20.6064 18.0917C20.5153 17.7567 20.4023 17.4225 20.32 17.0894Z" stroke="#F9D0CA" stroke-width="2"/>
<path d="M23.0762 24.6213C22.3714 25.7076 21.785 26.8926 21.4256 28.1375C21.4101 28.1913 21.4182 28.195 21.4498 28.1487C22.3024 26.8987 23.2526 25.7105 24.3006 24.5843C24.4064 24.4706 24.5081 24.3657 24.6059 24.2696C25.5605 23.3322 26.6445 22.5153 27.7396 21.7734C28.5383 21.2321 29.719 20.4688 30.7066 19.7471C31.0044 19.5295 31.3323 19.3291 31.6348 19.1016C31.8589 18.9332 32.147 18.6892 32.2381 18.3838C32.2388 18.3814 32.239 18.3788 32.2387 18.3762C32.2383 18.3736 32.2374 18.3712 32.236 18.369C32.2346 18.3668 32.2328 18.3649 32.2306 18.3635C32.2284 18.362 32.2259 18.3611 32.2233 18.3607C31.6541 18.2705 31.0521 18.341 30.4956 18.4772C28.9738 18.8499 27.5918 19.6976 26.3814 20.667C26.2694 20.7566 26.1603 20.854 26.0543 20.9592C24.9298 22.0731 23.9371 23.2938 23.0762 24.6213Z" stroke="#F9D0CA" stroke-width="2"/>
<path d="M38.8923 10.2996V22.0419C38.8923 24.2381 38.0149 26.3444 36.4531 27.8973C34.8913 29.4503 32.7731 30.3227 30.5644 30.3227H19.4392C17.2305 30.3227 15.1123 29.4503 13.5505 27.8973C11.9887 26.3444 11.1113 24.2381 11.1113 22.0419V10.2994C11.1113 8.1032 11.9887 5.99693 13.5505 4.44397C15.1123 2.891 17.2305 2.01855 19.4392 2.01855L30.5644 2.01877C32.7731 2.01877 34.8913 2.89122 36.4531 4.44419C38.0149 5.99715 38.8923 8.10342 38.8923 10.2996ZM20.3203 17.0891C20.2765 16.9114 20.2367 16.7571 20.2011 16.6263C19.8675 15.3983 19.5336 14.1706 19.1994 12.943C19.1789 12.8675 19.1676 12.7959 19.1656 12.7282C19.1471 12.106 19.331 11.4155 19.7423 10.9357C20.1694 10.4379 20.8132 10.1855 21.4669 10.1358C21.5488 10.1297 21.6309 10.1338 21.7133 10.1481C22.0456 10.2055 22.3585 10.305 22.652 10.4464C23.7516 10.9766 23.9931 12.031 23.7588 13.1409C23.7371 13.2433 23.7149 13.3457 23.6922 13.448C23.6756 13.5222 23.6525 13.5867 23.6229 13.6416C23.3986 14.0573 22.9923 14.3924 22.6232 14.6743C21.883 15.2398 21.1442 15.8073 20.4068 16.377C20.4037 16.3794 20.4013 16.3825 20.3996 16.3861C20.398 16.3896 20.3973 16.3935 20.3975 16.3973C20.3994 16.4293 20.4072 16.4655 20.4208 16.506C20.5644 16.9327 20.695 17.3617 20.8128 17.7932C20.8133 17.7949 20.8141 17.7964 20.8153 17.7977C20.8166 17.799 20.8181 17.7999 20.8197 17.8005C20.8214 17.801 20.8232 17.8012 20.8249 17.8009C20.8267 17.8006 20.8283 17.7999 20.8297 17.7988C21.883 17.0026 22.9369 16.2083 23.9913 15.416C24.0397 15.3795 24.0736 15.3512 24.0929 15.3309C24.3174 15.0943 24.5109 14.8346 24.6732 14.5518C25.3702 13.3378 25.3896 11.9888 24.8212 10.7071C24.7829 10.6208 24.7364 10.5399 24.6815 10.4643C24.4116 10.0928 24.1001 9.77131 23.7472 9.49982C22.6907 8.68752 21.5213 8.5116 20.2389 8.97207C20.0476 9.04074 19.8458 9.13019 19.6336 9.24043C19.4097 9.35678 19.2522 9.50507 19.0745 9.68463C18.3141 10.4532 17.7686 11.4698 17.764 12.5581C17.7629 12.805 17.7981 13.0688 17.8753 13.3118C17.9305 13.4856 17.9849 13.6582 18.035 13.8371C18.712 16.2486 19.375 18.6639 20.024 21.0828C20.057 21.2057 20.101 21.2847 20.178 21.377C20.789 22.1105 21.5696 22.35 22.5198 22.0952C22.5913 22.076 22.6369 22.0591 22.6567 22.0447C23.8745 21.1515 25.1595 20.3565 26.3602 19.4396C26.9003 19.0271 27.4071 18.5779 27.8808 18.0919C29.6584 16.2681 30.2699 13.7022 29.883 11.2353C29.4116 8.2267 27.533 5.5221 24.6305 4.38414C24.0179 4.14378 23.2351 4.01889 22.6193 4.32137C22.3302 4.4631 22.0901 4.68837 21.9104 4.95345C21.9023 4.96541 21.8267 5.09036 21.6836 5.32832C20.9803 6.49814 20.2793 7.66767 19.5804 8.8369C19.5796 8.83812 19.5793 8.83956 19.5794 8.84099C19.5796 8.84242 19.5803 8.84375 19.5813 8.84477C19.5823 8.84579 19.5836 8.84643 19.5851 8.84659C19.5865 8.84675 19.588 8.84642 19.5892 8.84565C19.8968 8.66222 20.222 8.52181 20.5647 8.42441C20.8753 8.33605 21.1905 8.31068 21.5105 8.3483C21.5162 8.34896 21.522 8.34799 21.5271 8.34552C21.5323 8.34304 21.5367 8.33915 21.5397 8.3343C22.0681 7.48366 22.597 6.63403 23.1265 5.78543C23.1691 5.7169 23.2054 5.67301 23.2353 5.65377C23.7056 5.35282 25.8917 7.19416 26.2938 7.53141C26.723 7.89156 27.0741 8.28436 27.3471 8.70983C28.0052 9.73493 28.3556 10.961 28.4205 12.1701C28.4867 13.404 28.2795 14.626 27.6826 15.7027C27.3315 16.3361 26.9076 16.926 26.4108 17.4723C26.2312 17.6697 26.0691 17.8237 25.9245 17.9342C24.7004 18.8694 23.4768 19.8054 22.2537 20.7421C22.2129 20.7733 22.1565 20.7925 22.0843 20.7998C21.6559 20.8435 21.283 20.699 21.1827 20.2469C21.1534 20.1151 21.1385 20.0483 21.1381 20.0465C20.9607 19.3949 20.7835 18.7432 20.6067 18.0915C20.5156 17.7564 20.4026 17.4222 20.3203 17.0891ZM23.0759 24.6209C22.3712 25.7073 21.7848 26.8922 21.4254 28.1371C21.4098 28.1909 21.4179 28.1947 21.4496 28.1483C22.3021 26.8983 23.2524 25.7102 24.3004 24.5839C24.4061 24.4702 24.5078 24.3653 24.6057 24.2692C25.5603 23.3318 26.6442 22.5149 27.7393 21.7731C28.538 21.2318 29.7187 20.4684 30.7063 19.7467C31.0041 19.5291 31.332 19.3287 31.6345 19.1013C31.8586 18.9329 32.1467 18.6888 32.2378 18.3835C32.2385 18.381 32.2388 18.3784 32.2384 18.3758C32.238 18.3733 32.2371 18.3708 32.2357 18.3686C32.2343 18.3664 32.2325 18.3645 32.2303 18.3631C32.2281 18.3617 32.2257 18.3607 32.2231 18.3603C31.6538 18.2702 31.0518 18.3406 30.4953 18.4769C28.9735 18.8495 27.5915 19.6973 26.3811 20.6666C26.2691 20.7563 26.1601 20.8537 26.054 20.9588C24.9295 22.0728 23.9368 23.2935 23.0759 24.6209Z" fill="#F3A195"/>
<path d="M20.3219 17.0894C20.4042 17.4225 20.5173 17.7567 20.6083 18.0917C20.7852 18.7435 20.9623 19.3952 21.1397 20.0468C21.1402 20.0486 21.1551 20.1153 21.1844 20.2471C21.2847 20.6992 21.6575 20.8438 22.086 20.8001C22.1581 20.7928 22.2146 20.7735 22.2553 20.7423C23.4784 19.8056 24.702 18.8697 25.9261 17.9345C26.0707 17.824 26.2328 17.67 26.4124 17.4726C26.9092 16.9262 27.3332 16.3364 27.6842 15.703C28.2812 14.6262 28.4884 13.4043 28.4221 12.1703C28.3573 10.9613 28.0069 9.73519 27.3488 8.71009C27.0757 8.28462 26.7246 7.89181 26.2954 7.53167C25.8933 7.19441 23.7072 5.35308 23.237 5.65402C23.2071 5.67327 23.1708 5.71716 23.1281 5.78569C22.5986 6.63429 22.0697 7.48391 21.5414 8.33456C21.5383 8.33941 21.534 8.34329 21.5288 8.34577C21.5236 8.34825 21.5178 8.34922 21.5121 8.34856C21.1921 8.31094 20.8769 8.33631 20.5663 8.42467C20.2236 8.52207 19.8985 8.66248 19.5908 8.84591C19.5896 8.84667 19.5881 8.84701 19.5867 8.84685C19.5853 8.84669 19.5839 8.84604 19.5829 8.84503C19.5819 8.84401 19.5812 8.84268 19.5811 8.84125C19.5809 8.83982 19.5812 8.83838 19.582 8.83716C20.2809 7.66792 20.9819 6.4984 21.6852 5.32858C21.8283 5.09062 21.9039 4.96566 21.912 4.95371C22.0917 4.68863 22.3319 4.46336 22.6209 4.32163C23.2368 4.01915 24.0196 4.14404 24.6321 4.3844C27.5346 5.52236 29.4133 8.22695 29.8846 11.2356C30.2715 13.7024 29.66 16.2683 27.8824 18.0922C27.4088 18.5782 26.9019 19.0274 26.3618 19.4399C25.1611 20.3567 23.8762 21.1517 22.6583 22.045C22.6385 22.0594 22.5929 22.0762 22.5215 22.0955C21.5713 22.3502 20.7907 22.1108 20.1796 21.3772C20.1026 21.2849 20.0587 21.206 20.0257 21.0831C19.3767 18.6641 18.7136 16.2489 18.0366 13.8374C17.9865 13.6584 17.9322 13.4859 17.8769 13.312C17.7997 13.069 17.7646 12.8053 17.7656 12.5583C17.7703 11.47 18.3158 10.4534 19.0761 9.68489C19.2539 9.50532 19.4113 9.35704 19.6352 9.24068C19.8474 9.13045 20.0492 9.041 20.2406 8.97232C21.5229 8.51186 22.6923 8.68778 23.7488 9.50007C24.1018 9.77157 24.4132 10.0931 24.6832 10.4646C24.738 10.5401 24.7846 10.621 24.8228 10.7074C25.3912 11.989 25.3718 13.338 24.6748 14.5521C24.5125 14.8348 24.3191 15.0945 24.0946 15.3312C24.0752 15.3514 24.0413 15.3798 23.993 15.4162C22.9385 16.2086 21.8846 17.0028 20.8314 17.7991C20.83 17.8002 20.8283 17.8009 20.8266 17.8012C20.8248 17.8014 20.823 17.8013 20.8214 17.8007C20.8197 17.8002 20.8182 17.7992 20.817 17.7979C20.8158 17.7967 20.8149 17.7951 20.8144 17.7934C20.6967 17.362 20.566 16.9329 20.4225 16.5063C20.4088 16.4658 20.4011 16.4295 20.3991 16.3976C20.3989 16.3937 20.3997 16.3899 20.4013 16.3863C20.4029 16.3828 20.4053 16.3797 20.4084 16.3773C21.1458 15.8076 21.8846 15.24 22.6248 14.6746C22.9939 14.3927 23.4002 14.0576 23.6245 13.6418C23.6542 13.587 23.6773 13.5225 23.6938 13.4483C23.7165 13.3459 23.7388 13.2436 23.7605 13.1412C23.9947 12.0312 23.7532 10.9768 22.6537 10.4467C22.3601 10.3052 22.0472 10.2058 21.7149 10.1483C21.6325 10.134 21.5504 10.13 21.4686 10.1361C20.8149 10.1857 20.1711 10.4381 19.7439 10.9359C19.3326 11.4158 19.1487 12.1062 19.1672 12.7285C19.1692 12.7961 19.1805 12.8677 19.2011 12.9433C19.5352 14.1708 19.8691 15.3986 20.2027 16.6266C20.2384 16.7574 20.2781 16.9116 20.3219 17.0894Z" fill="white"/>
<path d="M21.4256 28.1375C21.785 26.8926 22.3714 25.7076 23.0762 24.6213C23.9371 23.2938 24.9298 22.0731 26.0543 20.9592C26.1603 20.854 26.2694 20.7566 26.3814 20.667C27.5918 19.6976 28.9738 18.8499 30.4956 18.4772C31.0521 18.341 31.6541 18.2705 32.2233 18.3607C32.2259 18.3611 32.2284 18.362 32.2306 18.3635C32.2328 18.3649 32.2346 18.3668 32.236 18.369C32.2374 18.3712 32.2383 18.3736 32.2387 18.3762C32.239 18.3788 32.2388 18.3814 32.2381 18.3838C32.147 18.6892 31.8589 18.9332 31.6348 19.1016C31.3323 19.3291 31.0044 19.5295 30.7066 19.7471C29.719 20.4688 28.5383 21.2321 27.7396 21.7734C26.6445 22.5153 25.5605 23.3322 24.6059 24.2696C24.5081 24.3657 24.4064 24.4706 24.3006 24.5843C23.2526 25.7105 22.3024 26.8987 21.4498 28.1487C21.4182 28.195 21.4101 28.1913 21.4256 28.1375Z" fill="white"/>
<path d="M32.6414 34.8502L34.0676 34.8497C34.0719 34.8497 34.076 34.8514 34.0791 34.8545C34.0821 34.8575 34.0839 34.8616 34.0839 34.8659L34.0847 35.0958C34.0848 35.0979 34.0844 35.1 34.0836 35.102C34.0828 35.104 34.0816 35.1058 34.08 35.1074C34.0785 35.1089 34.0767 35.1101 34.0747 35.1109C34.0728 35.1118 34.0706 35.1122 34.0685 35.1122L32.6438 35.1115C32.6331 35.1115 32.6278 35.1168 32.6278 35.1275C32.627 36.3132 32.627 37.5001 32.6278 38.6883C32.628 38.9046 32.6561 39.2948 32.7839 39.4764C33.0373 39.8361 33.8734 39.594 34.1971 39.4484C34.1984 39.4478 34.1998 39.4474 34.2012 39.4474C34.2025 39.4474 34.2039 39.4476 34.2052 39.4482C34.2065 39.4487 34.2077 39.4495 34.2087 39.4505C34.2097 39.4515 34.2105 39.4527 34.211 39.454L34.2959 39.6835C34.2976 39.688 34.2974 39.6931 34.2953 39.6975C34.2932 39.7019 34.2895 39.7054 34.2849 39.7071C33.8133 39.888 33.3285 39.9547 32.8303 39.907C32.4322 39.8687 32.0486 39.7231 31.8916 39.3222C31.8168 39.1313 31.7793 38.9083 31.779 38.6531C31.7778 37.4772 31.7774 36.3028 31.7779 35.1301C31.7779 35.1251 31.7759 35.1203 31.7723 35.1168C31.7688 35.1133 31.764 35.1113 31.759 35.1113L31.5955 35.112C31.593 35.112 31.5904 35.1115 31.5881 35.1105C31.5857 35.1095 31.5836 35.1081 31.5818 35.1062C31.58 35.1044 31.5785 35.1023 31.5776 35.0999C31.5766 35.0976 31.5761 35.095 31.5762 35.0925L31.5777 34.8607C31.5778 34.8577 31.579 34.8548 31.5811 34.8528C31.5833 34.8507 31.5862 34.8495 31.5891 34.8495L31.7598 34.8499C31.7622 34.8499 31.7645 34.8495 31.7667 34.8486C31.7688 34.8477 31.7708 34.8464 31.7724 34.8448C31.7741 34.8432 31.7754 34.8413 31.7763 34.8391C31.7772 34.837 31.7776 34.8347 31.7776 34.8324L31.7783 33.8992C31.7783 33.8907 31.7826 33.8865 31.7911 33.8865L32.6124 33.8848C32.6164 33.8848 32.6203 33.8864 32.6231 33.8892C32.6259 33.892 32.6275 33.8959 32.6275 33.8999V34.8364C32.6275 34.84 32.629 34.8435 32.6316 34.8461C32.6342 34.8487 32.6377 34.8502 32.6414 34.8502Z" fill="black"/>
<path d="M12.2644 36.9658C12.2614 36.9658 12.2586 36.9669 12.2564 36.9689C12.2543 36.9709 12.2529 36.9736 12.2527 36.9765C12.2042 37.4851 12.2337 37.986 12.3411 38.4793C12.4524 38.9911 12.7929 39.4867 13.3283 39.6186C13.4375 39.6454 13.5831 39.658 13.7649 39.6562C14.3199 39.651 14.8607 39.5467 15.3873 39.3434C15.3896 39.3426 15.3913 39.3432 15.3923 39.3454L15.4812 39.5576C15.4824 39.5604 15.483 39.5635 15.483 39.5666C15.483 39.5697 15.4824 39.5727 15.4812 39.5756C15.48 39.5785 15.4782 39.581 15.476 39.5832C15.4738 39.5854 15.4711 39.5871 15.4682 39.5882C14.915 39.8051 14.342 39.9147 13.7493 39.9169C13.5689 39.9176 13.4224 39.9122 13.3096 39.9005C12.6711 39.8345 12.0728 39.499 11.7407 38.946C11.5627 38.6499 11.462 38.2834 11.4253 37.9371C11.3663 37.3831 11.3984 36.8011 11.5827 36.276C11.9512 35.2266 12.966 34.684 14.0456 34.8246C14.4733 34.8805 14.8391 35.0536 15.1429 35.3439C15.5839 35.7653 15.6763 36.3779 15.6569 36.9555C15.6568 36.9584 15.6556 36.9612 15.6535 36.9632C15.6514 36.9652 15.6486 36.9663 15.6457 36.9663L12.2644 36.9658ZM14.0236 35.121C13.6015 34.9751 13.1805 35.1136 12.8721 35.4261C12.5336 35.769 12.357 36.2268 12.2873 36.6948C12.287 36.6963 12.2871 36.6978 12.2875 36.6992C12.2879 36.7006 12.2886 36.7019 12.2895 36.703C12.2905 36.7041 12.2917 36.7051 12.293 36.7057C12.2944 36.7063 12.2959 36.7066 12.2974 36.7067L14.8103 36.7069C14.8122 36.7069 14.8141 36.7065 14.8158 36.7058C14.8176 36.705 14.8191 36.704 14.8205 36.7026C14.8218 36.7013 14.8228 36.6997 14.8235 36.6979C14.8242 36.6962 14.8245 36.6943 14.8244 36.6924C14.8112 36.1126 14.6599 35.3412 14.0236 35.121Z" fill="black"/>
<path d="M22.1235 36.9658C22.1189 36.9658 22.1145 36.9675 22.111 36.9706C22.1076 36.9737 22.1055 36.978 22.1051 36.9826C22.0681 37.4224 22.0844 37.8548 22.1539 38.2798C22.2315 38.7553 22.4376 39.2045 22.8289 39.4674C22.9939 39.5782 23.1822 39.6384 23.394 39.6481C24.027 39.6766 24.643 39.5752 25.242 39.3438C25.2429 39.3435 25.2439 39.3435 25.2447 39.3438C25.2456 39.3441 25.2463 39.3448 25.2466 39.3456L25.3359 39.5564C25.3372 39.5595 25.3378 39.5628 25.3378 39.5661C25.3378 39.5694 25.3371 39.5726 25.3358 39.5757C25.3346 39.5787 25.3327 39.5814 25.3303 39.5837C25.328 39.586 25.3252 39.5878 25.3221 39.589C24.6386 39.8554 23.928 39.9598 23.1903 39.9022C22.8379 39.8748 22.5054 39.7602 22.1926 39.5584C21.6234 39.1916 21.3574 38.6138 21.2829 37.96C21.187 37.1195 21.2941 36.174 21.8908 35.5194C22.2401 35.1364 22.6734 34.9064 23.1907 34.8294C23.5823 34.7712 23.9911 34.7986 24.3607 34.9409C24.9614 35.1723 25.3294 35.6057 25.4646 36.241C25.5121 36.4634 25.517 36.7167 25.513 36.9531C25.5129 36.9618 25.5084 36.9662 25.4996 36.9662L22.1235 36.9658ZM24.6778 36.6933C24.6701 35.9969 24.4198 35.0636 23.5411 35.0641C22.6989 35.0645 22.2366 35.9927 22.1435 36.6976C22.1434 36.6988 22.1435 36.6999 22.1439 36.701C22.1442 36.7021 22.1448 36.7031 22.1455 36.7039C22.1463 36.7048 22.1472 36.7055 22.1482 36.7059C22.1492 36.7064 22.1503 36.7066 22.1515 36.7066L24.6644 36.7068C24.6662 36.7068 24.668 36.7065 24.6696 36.7058C24.6713 36.7051 24.6727 36.7041 24.674 36.7028C24.6752 36.7016 24.6762 36.7001 24.6769 36.6984C24.6775 36.6968 24.6779 36.695 24.6778 36.6933Z" fill="black"/>
<path d="M27.0497 35.6314C27.2232 35.3831 27.4482 35.1768 27.7247 35.0125C28.0078 34.8445 28.2922 34.79 28.6145 34.8025C28.9125 34.8143 29.2094 34.8423 29.4819 34.9449C29.9419 35.1181 30.122 35.4967 30.1521 35.9671C30.1536 35.9913 30.1544 36.0987 30.1546 36.2893C30.155 37.249 30.1565 38.2087 30.159 39.1684C30.1594 39.3793 30.2634 39.6163 30.5093 39.6166C30.6316 39.6167 30.7539 39.6168 30.8762 39.6168C30.8836 39.6168 30.8872 39.6205 30.8872 39.6279L30.8883 39.8635C30.8883 39.8668 30.887 39.87 30.8847 39.8724C30.8823 39.8748 30.8791 39.8761 30.8758 39.8762C30.4869 39.8807 30.2274 39.8805 30.0974 39.8757C29.7534 39.8628 29.3649 39.6537 29.3146 39.2828C29.3046 39.21 29.2996 39.1464 29.2996 39.0919C29.3 38.0759 29.2999 37.0598 29.2992 36.0437C29.2989 35.7611 29.2671 35.3755 29.0218 35.1909C28.9598 35.1443 28.8767 35.1107 28.7726 35.0903C28.1134 34.9608 27.6123 35.3116 27.2373 35.8112C27.1018 35.9914 27.0224 36.1592 27.0224 36.3844C27.0223 37.5439 27.0222 38.7034 27.0222 39.863C27.0222 39.865 27.0218 39.867 27.021 39.8689C27.0203 39.8707 27.0191 39.8724 27.0177 39.8738C27.0163 39.8752 27.0146 39.8763 27.0127 39.8771C27.0108 39.8778 27.0088 39.8782 27.0068 39.8781L26.1983 39.8779C26.1807 39.8778 26.1719 39.869 26.1719 39.8517V34.8491C26.1719 34.8466 26.1729 34.8442 26.1747 34.8424C26.1765 34.8407 26.179 34.8397 26.1816 34.8397L27.0081 34.8388C27.0119 34.8388 27.0154 34.8403 27.0181 34.8429C27.0207 34.8455 27.0222 34.8491 27.0222 34.8528L27.0218 35.6227C27.0218 35.655 27.0311 35.6579 27.0497 35.6314Z" fill="black"/>
<path d="M36.6016 36.6133C37.011 36.7812 37.4181 36.959 37.8109 37.1627C38.334 37.4341 38.6237 37.856 38.6415 38.4627C38.663 39.2046 38.0755 39.7096 37.3957 39.848C36.9943 39.9297 36.5884 39.9418 36.1778 39.8845C35.7904 39.8303 35.4088 39.6835 35.1275 39.4073C35.1253 39.4052 35.1236 39.4026 35.1224 39.3998C35.1212 39.397 35.1205 39.3939 35.1205 39.3909C35.1205 39.3878 35.1211 39.3848 35.1222 39.382C35.1234 39.3792 35.1251 39.3766 35.1273 39.3745L35.2876 39.2131C35.2893 39.2113 35.2914 39.21 35.2936 39.209C35.2959 39.2081 35.2983 39.2076 35.3008 39.2076C35.3033 39.2077 35.3057 39.2082 35.308 39.2091C35.3103 39.2101 35.3123 39.2115 35.314 39.2133C35.6875 39.5998 36.5286 39.7542 37.0413 39.5965C37.6218 39.418 37.9295 38.8874 37.7493 38.2938C37.6407 37.9363 37.2586 37.6714 36.9252 37.5362C36.6175 37.4116 36.31 37.2865 36.0025 37.1609C35.8674 37.1058 35.7228 37.0149 35.5685 36.8882C35.2355 36.6148 35.0692 36.3066 35.1121 35.8661C35.1627 35.343 35.455 35.067 35.9323 34.9285C36.4514 34.7779 36.9805 34.7605 37.5195 34.8763C37.7653 34.929 37.9891 35.0274 38.191 35.1713C38.1942 35.1735 38.1963 35.1769 38.197 35.1807C38.1976 35.1846 38.1968 35.1885 38.1945 35.1916L38.0507 35.3994C38.0497 35.4007 38.0485 35.4019 38.0471 35.4027C38.0457 35.4035 38.0442 35.404 38.0426 35.4042C38.041 35.4044 38.0394 35.4043 38.0378 35.4038C38.0363 35.4033 38.0349 35.4025 38.0337 35.4014C37.9612 35.334 37.8877 35.2843 37.8134 35.2522C37.4534 35.0968 37.0679 35.0377 36.6571 35.0751C36.3148 35.1063 36.066 35.2955 35.973 35.6238C35.8351 36.1098 36.1934 36.4457 36.6016 36.6133Z" fill="black"/>
<path d="M18.6911 38.7098C18.6915 38.7111 18.6924 38.7123 18.6936 38.7131C18.6947 38.714 18.6961 38.7145 18.6975 38.7146C18.699 38.7146 18.7004 38.7143 18.7016 38.7135C18.7029 38.7128 18.7039 38.7117 18.7045 38.7104C19.1618 37.7643 19.617 36.8236 20.0699 35.8884C20.118 35.7889 20.1488 35.7064 20.1623 35.6408C20.2085 35.4162 20.1973 35.1754 20.0033 35.0201C20.0011 35.0183 19.9993 35.0161 19.998 35.0136C19.9967 35.0111 19.996 35.0084 19.9958 35.0056C19.9956 35.0028 19.996 35 19.997 34.9974C19.998 34.9947 19.9996 34.9923 20.0015 34.9903L20.1482 34.8434C20.1538 34.8378 20.1605 34.8359 20.1683 34.8375C20.2672 34.8571 20.3638 35.0065 20.4034 35.0909C20.4911 35.2779 20.4687 35.5253 20.4199 35.7239C20.3999 35.8053 20.3545 35.9215 20.2835 36.0725C19.688 37.3411 19.0915 38.6091 18.494 39.8768C18.4923 39.8803 18.4896 39.8833 18.4863 39.8854C18.483 39.8875 18.4792 39.8886 18.4753 39.8886L18.2806 39.8899C18.2764 39.8899 18.2722 39.8886 18.2688 39.8862C18.2653 39.8838 18.2627 39.8803 18.2613 39.8764L16.4321 34.8606C16.4317 34.8593 16.4315 34.8579 16.4317 34.8565C16.4319 34.8551 16.4324 34.8538 16.4332 34.8527C16.434 34.8515 16.4351 34.8506 16.4363 34.85C16.4375 34.8493 16.4389 34.849 16.4403 34.849L17.2783 34.8495C17.2825 34.8495 17.2866 34.8508 17.2901 34.8532C17.2935 34.8556 17.2962 34.8591 17.2976 34.863L18.6911 38.7098Z" fill="black"/>
</svg>
