<svg width="21" height="21" viewBox="0 0 21 21" fill="none" xmlns="http://www.w3.org/2000/svg">
<path d="M14.5513 5.77941C14.5513 3.6916 12.8588 1.99906 10.771 1.99906C9.76558 1.99483 8.79992 2.39123 8.0875 3.10064C7.37509 3.81005 6.97462 4.77403 6.97462 5.77941M14.4311 18.8183H7.12679C4.44372 18.8183 2.38537 17.8492 2.97004 13.9487L3.65082 8.66271C4.01123 6.71648 5.25265 5.97163 6.34189 5.97163H15.2481C16.3533 5.97163 17.5227 6.77255 17.9391 8.66271L18.6199 13.9487C19.1165 17.4087 17.1142 18.8183 14.4311 18.8183Z" stroke="black" stroke-width="1.5" stroke-linecap="round" stroke-linejoin="round"/>
<path d="M13.3548 9.72168H13.3154" stroke="black" stroke-width="1.5" stroke-linecap="round" stroke-linejoin="round"/>
<path d="M8.26193 9.72168H8.22168" stroke="black" stroke-width="1.5" stroke-linecap="round" stroke-linejoin="round"/>
</svg>
