<svg width="19" height="19" viewBox="0 0 19 19" fill="none" xmlns="http://www.w3.org/2000/svg">
<path d="M13.3848 4.77941C13.3848 2.6916 11.6923 0.999057 9.60445 0.999057C8.59908 0.994831 7.63342 1.39123 6.921 2.10064C6.20858 2.81005 5.80811 3.77403 5.80811 4.77941M13.2646 17.8183H5.96029C3.27722 17.8183 1.21887 16.8492 1.80354 12.9487L2.48431 7.66271C2.84473 5.71648 4.08614 4.97163 5.17539 4.97163H14.0816C15.1868 4.97163 16.3562 5.77255 16.7726 7.66271L17.4534 12.9487C17.95 16.4087 15.9477 17.8183 13.2646 17.8183Z" stroke="black" stroke-width="1.5" stroke-linecap="round" stroke-linejoin="round"/>
<path d="M12.1883 8.72168H12.1489" stroke="black" stroke-width="1.5" stroke-linecap="round" stroke-linejoin="round"/>
<path d="M7.09543 8.72168H7.05518" stroke="black" stroke-width="1.5" stroke-linecap="round" stroke-linejoin="round"/>
</svg>
