<svg width="20" height="19" viewBox="0 0 20 19" fill="none" xmlns="http://www.w3.org/2000/svg">
<path d="M7.53356 17.1681V14.4848C7.53354 13.8022 8.08997 13.2476 8.77938 13.2431H11.3047C11.9974 13.2431 12.5589 13.799 12.5589 14.4848V17.1765C12.5588 17.756 13.026 18.2296 13.6112 18.2432H15.2947C16.973 18.2432 18.3335 16.8963 18.3335 15.2348V7.60127C18.3245 6.94764 18.0145 6.33384 17.4917 5.93457L11.734 1.3428C10.7253 0.543285 9.29143 0.543285 8.28274 1.3428L2.55027 5.9429C2.02547 6.34056 1.71496 6.95537 1.7085 7.6096V15.2348C1.7085 16.8963 3.06901 18.2432 4.74729 18.2432H6.43084C7.03056 18.2432 7.51672 17.7619 7.51672 17.1681" stroke="black" stroke-width="1.5" stroke-linecap="round" stroke-linejoin="round"/>
</svg>
