<svg width="19" height="19" viewBox="0 0 19 19" fill="none" xmlns="http://www.w3.org/2000/svg">
<path d="M12.9492 5.17042C13.8813 5.46818 14.5436 6.30503 14.6264 7.28965M9.46813 17.2461C7.56884 16.0772 5.80197 14.7015 4.19913 13.1435C3.07225 12.0216 2.21438 10.6538 1.69121 9.14499C0.749747 6.21804 1.84943 2.86725 4.92698 1.8756C6.54441 1.3549 8.31089 1.65251 9.67383 2.67532C11.0373 1.65375 12.8032 1.35625 14.4207 1.8756C17.4982 2.86725 18.6058 6.21804 17.6644 9.14499C17.1412 10.6538 16.2833 12.0216 15.1564 13.1435C13.5536 14.7015 11.7867 16.0772 9.88743 17.2461L9.68174 17.374L9.46813 17.2461Z" stroke="black" stroke-width="1.5" stroke-linecap="round" stroke-linejoin="round"/>
</svg>
