<svg width="49" height="41" viewBox="0 0 49 41" fill="none" xmlns="http://www.w3.org/2000/svg">
<path d="M29.0314 12.5009H29.0426M23.7186 25.1748L16.3247 17.7156C16.1167 17.5063 16 17.2232 16 16.928C16 16.6329 16.1167 16.3498 16.3247 16.1405L24.569 7.82177C24.6716 7.71946 24.7933 7.63838 24.9273 7.58317C25.0613 7.52796 25.2048 7.4997 25.3497 7.5L31.7997 7.50788C32.3861 7.51145 32.947 7.74753 33.3595 8.16432C33.772 8.58111 34.0024 9.14456 34 9.73101V15.9189C34.0001 16.0723 33.9687 16.2242 33.9075 16.3649C33.8463 16.5056 33.7568 16.6322 33.6445 16.7368L25.2754 25.1748C25.1736 25.2777 25.0524 25.3595 24.9189 25.4153C24.7853 25.4711 24.642 25.4999 24.4972 25.5C24.3525 25.5001 24.2091 25.4715 24.0755 25.4159C23.9418 25.3603 23.8205 25.2787 23.7186 25.1759V25.1748Z" stroke="black" stroke-width="2" stroke-linecap="round" stroke-linejoin="round"/>
<path d="M11.77 38V32.1818H13.9007C14.3135 32.1818 14.6554 32.25 14.9262 32.3864C15.1971 32.5208 15.3997 32.7036 15.5342 32.9347C15.6687 33.1638 15.7359 33.4223 15.7359 33.7102C15.7359 33.9527 15.6914 34.1572 15.6024 34.3239C15.5134 34.4886 15.394 34.6212 15.2444 34.7216C15.0967 34.8201 14.9338 34.892 14.7558 34.9375V34.9943C14.949 35.0038 15.1374 35.0663 15.3211 35.1818C15.5067 35.2955 15.6601 35.4574 15.7813 35.6676C15.9026 35.8778 15.9632 36.1335 15.9632 36.4347C15.9632 36.732 15.8931 36.9991 15.7529 37.2358C15.6147 37.4706 15.4007 37.6572 15.1109 37.7955C14.8211 37.9318 14.4509 38 14.0001 38H11.77ZM12.6478 37.2472H13.9149C14.3353 37.2472 14.6365 37.1657 14.8183 37.0028C15.0001 36.84 15.091 36.6364 15.091 36.392C15.091 36.2083 15.0446 36.0398 14.9518 35.8864C14.859 35.733 14.7264 35.6108 14.5541 35.5199C14.3836 35.429 14.181 35.3835 13.9461 35.3835H12.6478V37.2472ZM12.6478 34.6989H13.824C14.0209 34.6989 14.198 34.661 14.3552 34.5852C14.5143 34.5095 14.6403 34.4034 14.7331 34.267C14.8278 34.1288 14.8751 33.9659 14.8751 33.7784C14.8751 33.5379 14.7908 33.3362 14.6223 33.1733C14.4537 33.0104 14.1952 32.929 13.8467 32.929H12.6478V34.6989ZM16.9042 38V33.6364H17.7252V34.3295H17.7707C17.8502 34.0947 17.9904 33.91 18.1911 33.7756C18.3938 33.6392 18.6229 33.571 18.8786 33.571C18.9316 33.571 18.9941 33.5729 19.0661 33.5767C19.14 33.5805 19.1977 33.5852 19.2394 33.5909V34.4034C19.2053 34.3939 19.1447 34.3835 19.0576 34.3722C18.9705 34.3589 18.8833 34.3523 18.7962 34.3523C18.5955 34.3523 18.4165 34.3949 18.2593 34.4801C18.104 34.5634 17.9809 34.6799 17.89 34.8295C17.7991 34.9773 17.7536 35.1458 17.7536 35.3352V38H16.9042ZM21.1733 38.0966C20.8968 38.0966 20.6468 38.0455 20.4233 37.9432C20.1998 37.839 20.0227 37.6884 19.8921 37.4915C19.7633 37.2945 19.6989 37.053 19.6989 36.767C19.6989 36.5208 19.7462 36.3182 19.8409 36.1591C19.9356 36 20.0635 35.8741 20.2245 35.7812C20.3854 35.6884 20.5654 35.6184 20.7642 35.571C20.9631 35.5237 21.1657 35.4877 21.3722 35.4631C21.6335 35.4328 21.8457 35.4081 22.0085 35.3892C22.1714 35.3684 22.2898 35.3352 22.3637 35.2898C22.4375 35.2443 22.4745 35.1705 22.4745 35.0682V35.0483C22.4745 34.8002 22.4044 34.608 22.2642 34.4716C22.126 34.3352 21.9195 34.267 21.6449 34.267C21.3589 34.267 21.1335 34.3305 20.9688 34.4574C20.8059 34.5824 20.6932 34.7216 20.6307 34.875L19.8324 34.6932C19.9271 34.428 20.0654 34.214 20.2472 34.0511C20.4309 33.8864 20.6421 33.767 20.8807 33.6932C21.1193 33.6174 21.3703 33.5795 21.6335 33.5795C21.8078 33.5795 21.9924 33.6004 22.1875 33.642C22.3845 33.6818 22.5682 33.7557 22.7387 33.8636C22.911 33.9716 23.0521 34.1259 23.162 34.3267C23.2718 34.5256 23.3267 34.7841 23.3267 35.1023V38H22.4972V37.4034H22.4631C22.4082 37.5133 22.3258 37.6212 22.2159 37.7273C22.1061 37.8333 21.965 37.9214 21.7926 37.9915C21.6203 38.0616 21.4138 38.0966 21.1733 38.0966ZM21.358 37.4148C21.5928 37.4148 21.7936 37.3684 21.9602 37.2756C22.1288 37.1828 22.2566 37.0616 22.3438 36.9119C22.4328 36.7604 22.4773 36.5985 22.4773 36.4261V35.8636C22.447 35.8939 22.3883 35.9223 22.3012 35.9489C22.2159 35.9735 22.1184 35.9953 22.0085 36.0142C21.8987 36.0312 21.7917 36.0473 21.6875 36.0625C21.5834 36.0758 21.4962 36.0871 21.4262 36.0966C21.2614 36.1174 21.1108 36.1525 20.9745 36.2017C20.84 36.2509 20.732 36.322 20.6506 36.4148C20.571 36.5057 20.5313 36.6269 20.5313 36.7784C20.5313 36.9886 20.6089 37.1477 20.7642 37.2557C20.9195 37.3617 21.1174 37.4148 21.358 37.4148ZM25.2755 35.4091V38H24.4261V33.6364H25.2415V34.3466H25.2954C25.3958 34.1155 25.553 33.9299 25.767 33.7898C25.9829 33.6496 26.2547 33.5795 26.5824 33.5795C26.8797 33.5795 27.1401 33.642 27.3636 33.767C27.5871 33.8902 27.7604 34.0739 27.8835 34.3182C28.0066 34.5625 28.0682 34.8646 28.0682 35.2244V38H27.2187V35.3267C27.2187 35.0104 27.1363 34.7633 26.9716 34.5852C26.8068 34.4053 26.5805 34.3153 26.2926 34.3153C26.0956 34.3153 25.9204 34.358 25.767 34.4432C25.6155 34.5284 25.4952 34.6534 25.4062 34.8182C25.3191 34.9811 25.2755 35.178 25.2755 35.4091ZM30.8089 38.0852C30.4566 38.0852 30.1422 37.9953 29.8657 37.8153C29.5911 37.6335 29.3752 37.375 29.218 37.0398C29.0627 36.7027 28.985 36.2983 28.985 35.8267C28.985 35.3551 29.0636 34.9517 29.2208 34.6165C29.3799 34.2812 29.5977 34.0246 29.8742 33.8466C30.1507 33.6686 30.4642 33.5795 30.8146 33.5795C31.0854 33.5795 31.3032 33.625 31.468 33.7159C31.6346 33.8049 31.7634 33.9091 31.8543 34.0284C31.9471 34.1477 32.0191 34.2528 32.0703 34.3438H32.1214V32.1818H32.9708V38H32.1413V37.321H32.0703C32.0191 37.4138 31.9453 37.5199 31.8487 37.6392C31.754 37.7585 31.6233 37.8627 31.4566 37.9517C31.2899 38.0407 31.074 38.0852 30.8089 38.0852ZM30.9964 37.3608C31.2407 37.3608 31.4471 37.2964 31.6157 37.1676C31.7862 37.0369 31.9149 36.8561 32.0021 36.625C32.0911 36.3939 32.1356 36.125 32.1356 35.8182C32.1356 35.5152 32.092 35.25 32.0049 35.0227C31.9178 34.7955 31.7899 34.6184 31.6214 34.4915C31.4528 34.3646 31.2445 34.3011 30.9964 34.3011C30.7407 34.3011 30.5276 34.3674 30.3572 34.5C30.1867 34.6326 30.0579 34.8134 29.9708 35.0426C29.8856 35.2718 29.843 35.5303 29.843 35.8182C29.843 36.1098 29.8865 36.3722 29.9737 36.6051C30.0608 36.8381 30.1896 37.0227 30.36 37.1591C30.5324 37.2936 30.7445 37.3608 30.9964 37.3608ZM37.4211 34.7017L36.6512 34.8381C36.619 34.7396 36.5678 34.6458 36.4978 34.5568C36.4296 34.4678 36.3368 34.3949 36.2194 34.3381C36.1019 34.2812 35.9552 34.2528 35.779 34.2528C35.5385 34.2528 35.3377 34.3068 35.1767 34.4148C35.0158 34.5208 34.9353 34.6581 34.9353 34.8267C34.9353 34.9725 34.9892 35.09 35.0972 35.179C35.2052 35.268 35.3794 35.3409 35.6199 35.3977L36.3131 35.5568C36.7146 35.6496 37.0139 35.7926 37.2108 35.9858C37.4078 36.179 37.5063 36.4299 37.5063 36.7386C37.5063 37 37.4305 37.233 37.279 37.4375C37.1294 37.6402 36.9201 37.7992 36.6512 37.9148C36.3841 38.0303 36.0745 38.0881 35.7222 38.0881C35.2336 38.0881 34.8349 37.9839 34.5262 37.7756C34.2175 37.5653 34.0281 37.267 33.958 36.8807L34.779 36.7557C34.8302 36.9697 34.9353 37.1316 35.0944 37.2415C35.2534 37.3494 35.4608 37.4034 35.7165 37.4034C35.9949 37.4034 36.2175 37.3456 36.3841 37.2301C36.5508 37.1127 36.6341 36.9697 36.6341 36.8011C36.6341 36.6648 36.583 36.5502 36.4807 36.4574C36.3803 36.3646 36.226 36.2945 36.0177 36.2472L35.279 36.0852C34.8718 35.9924 34.5707 35.8447 34.3756 35.642C34.1824 35.4394 34.0858 35.1828 34.0858 34.8722C34.0858 34.6146 34.1578 34.3892 34.3017 34.196C34.4457 34.0028 34.6445 33.8523 34.8983 33.7443C35.1521 33.6345 35.4428 33.5795 35.7705 33.5795C36.2421 33.5795 36.6133 33.6818 36.8841 33.8864C37.155 34.089 37.3339 34.3608 37.4211 34.7017Z" fill="black"/>
</svg>
