<svg width="37" height="37" viewBox="0 0 37 37" fill="none" xmlns="http://www.w3.org/2000/svg">
<path fill-rule="evenodd" clip-rule="evenodd" d="M18.5 37C28.7173 37 37 28.7173 37 18.5C37 8.28273 28.7173 0 18.5 0C8.28273 0 0 8.28273 0 18.5C0 28.7173 8.28273 37 18.5 37ZM8 15.0667V23.9333C8 25.2401 8 25.8936 8.25432 26.3927C8.47802 26.8317 8.83497 27.1887 9.27402 27.4123C9.77315 27.6667 10.4265 27.6667 11.7333 27.6667H25.2667C26.5734 27.6667 27.2269 27.6667 27.726 27.4123C28.165 27.1887 28.522 26.8317 28.7457 26.3927C29 25.8936 29 25.2401 29 23.9333V15.0667C29 13.7599 29 13.1065 28.7457 12.6074C28.522 12.1683 28.165 11.8114 27.726 11.5877C27.2269 11.3333 26.5734 11.3333 25.2667 11.3333H24.0363H24.0362C23.8928 11.3333 23.8212 11.3333 23.7549 11.3258C23.4097 11.2862 23.1002 11.0949 22.9103 10.8038C22.8739 10.748 22.8419 10.6838 22.7778 10.5556L22.777 10.5539C22.6492 10.2985 22.5852 10.1705 22.5126 10.0591C22.1331 9.47696 21.5138 9.09424 20.8234 9.01515C20.6911 9 20.5477 9 20.2608 9H16.7391C16.4523 9 16.3089 9 16.1766 9.01515C15.4861 9.09424 14.8669 9.47696 14.4874 10.0591C14.4147 10.1707 14.3505 10.2989 14.2223 10.5554L14.2222 10.5556C14.1581 10.6838 14.126 10.748 14.0896 10.8038C13.8999 11.0949 13.5903 11.2862 13.2451 11.3258C13.1789 11.3333 13.1072 11.3333 12.9638 11.3333H12.9637H11.7333C10.4265 11.3333 9.77315 11.3333 9.27402 11.5877C8.83497 11.8114 8.47802 12.1683 8.25432 12.6074C8 13.1065 8 13.7599 8 15.0667Z" fill="#F3A095"/>
<path d="M18.5 24C21.5377 24 24 21.5377 24 18.5C24 15.4623 21.5377 13 18.5 13C15.4623 13 13 15.4623 13 18.5C13 21.5377 15.4623 24 18.5 24Z" stroke="#F3A095" stroke-linecap="round" stroke-linejoin="round"/>
</svg>
