<svg width="32" height="32" viewBox="0 0 32 32" fill="none" xmlns="http://www.w3.org/2000/svg">
<path d="M28 16.5C28 22.8513 22.8513 28 16.5 28C10.1487 28 5 22.8513 5 16.5C5 10.1487 10.1487 5 16.5 5C22.8513 5 28 10.1487 28 16.5Z" fill="#F3A095"/>
<path d="M9 20.4V14.225C9 13.3149 9 12.8599 9.17712 12.5123C9.33291 12.2065 9.5815 11.9579 9.88727 11.8021C10.2349 11.625 10.6899 11.625 11.6 11.625H12.4569C12.5568 11.625 12.6067 11.625 12.6528 11.6197C12.8932 11.5922 13.1089 11.4589 13.241 11.2562C13.2663 11.2173 13.2887 11.1727 13.3333 11.0833C13.4227 10.9047 13.4673 10.8153 13.518 10.7376C13.7823 10.3322 14.2136 10.0656 14.6944 10.0106C14.7865 10 14.8864 10 15.0862 10H17.5388C17.7386 10 17.8385 10 17.9306 10.0106C18.4114 10.0656 18.8427 10.3322 19.107 10.7376C19.1576 10.8153 19.2023 10.9047 19.2917 11.0833C19.3363 11.1727 19.3586 11.2173 19.384 11.2562C19.5162 11.4589 19.7317 11.5922 19.9722 11.6197C20.0183 11.625 20.0682 11.625 20.1681 11.625H21.025C21.9351 11.625 22.3902 11.625 22.7378 11.8021C23.0435 11.9579 23.2921 12.2065 23.4479 12.5123C23.625 12.8599 23.625 13.3149 23.625 14.225V20.4C23.625 21.3101 23.625 21.7652 23.4479 22.1128C23.2921 22.4185 23.0435 22.6671 22.7378 22.8229C22.3902 23 21.9351 23 21.025 23H11.6C10.6899 23 10.2349 23 9.88727 22.8229C9.5815 22.6671 9.33291 22.4185 9.17712 22.1128C9 21.7652 9 21.3101 9 20.4Z" fill="white"/>
<path d="M28 16.5C28 22.8513 22.8513 28 16.5 28C10.1487 28 5 22.8513 5 16.5C5 10.1487 10.1487 5 16.5 5C22.8513 5 28 10.1487 28 16.5Z" stroke="#F3A095" stroke-linecap="round" stroke-linejoin="round"/>
<path d="M9 20.4V14.225C9 13.3149 9 12.8599 9.17712 12.5123C9.33291 12.2065 9.5815 11.9579 9.88727 11.8021C10.2349 11.625 10.6899 11.625 11.6 11.625H12.4569C12.5568 11.625 12.6067 11.625 12.6528 11.6197C12.8932 11.5922 13.1089 11.4589 13.241 11.2562C13.2663 11.2173 13.2887 11.1727 13.3333 11.0833C13.4227 10.9047 13.4673 10.8153 13.518 10.7376C13.7823 10.3322 14.2136 10.0656 14.6944 10.0106C14.7865 10 14.8864 10 15.0862 10H17.5388C17.7386 10 17.8385 10 17.9306 10.0106C18.4114 10.0656 18.8427 10.3322 19.107 10.7376C19.1576 10.8153 19.2023 10.9047 19.2917 11.0833C19.3363 11.1727 19.3586 11.2173 19.384 11.2562C19.5162 11.4589 19.7317 11.5922 19.9722 11.6197C20.0183 11.625 20.0682 11.625 20.1681 11.625H21.025C21.9351 11.625 22.3902 11.625 22.7378 11.8021C23.0435 11.9579 23.2921 12.2065 23.4479 12.5123C23.625 12.8599 23.625 13.3149 23.625 14.225V20.4C23.625 21.3101 23.625 21.7652 23.4479 22.1128C23.2921 22.4185 23.0435 22.6671 22.7378 22.8229C22.3902 23 21.9351 23 21.025 23H11.6C10.6899 23 10.2349 23 9.88727 22.8229C9.5815 22.6671 9.33291 22.4185 9.17712 22.1128C9 21.7652 9 21.3101 9 20.4Z" stroke="#F3A095" stroke-linecap="round" stroke-linejoin="round"/>
<path d="M16 21C18.2092 21 20 19.2092 20 17C20 14.7908 18.2092 13 16 13C13.7908 13 12 14.7908 12 17C12 19.2092 13.7908 21 16 21Z" stroke="#F3A095" stroke-linecap="round" stroke-linejoin="round"/>
</svg>
