<svg width="49" height="41" viewBox="0 0 49 41" fill="none" xmlns="http://www.w3.org/2000/svg">
<text fill="black" xml:space="preserve" style="white-space: pre" font-family="Inter" font-size="8" font-weight="500" letter-spacing="-0.004em"><tspan x="3.71041" y="37.9091">Categories</tspan></text>
<path d="M30.625 14.75C32.489 14.75 34 13.239 34 11.375C34 9.51104 32.489 8 30.625 8C28.761 8 27.25 9.51104 27.25 11.375C27.25 13.239 28.761 14.75 30.625 14.75Z" stroke="black" stroke-width="1.5" stroke-linecap="round" stroke-linejoin="round"/>
<path d="M19.375 26C21.239 26 22.75 24.489 22.75 22.625C22.75 20.761 21.239 19.25 19.375 19.25C17.511 19.25 16 20.761 16 22.625C16 24.489 17.511 26 19.375 26Z" stroke="black" stroke-width="1.5" stroke-linecap="round" stroke-linejoin="round"/>
<path d="M27.25 19.25H34V24.875C34 25.4963 33.4963 26 32.875 26H28.375C27.7537 26 27.25 25.4963 27.25 24.875V19.25Z" stroke="black" stroke-width="1.5" stroke-linecap="round" stroke-linejoin="round"/>
<path d="M16 8H22.75V13.625C22.75 14.2463 22.2463 14.75 21.625 14.75H17.125C16.5037 14.75 16 14.2463 16 13.625V8Z" stroke="black" stroke-width="1.5" stroke-linecap="round" stroke-linejoin="round"/>
</svg>
