<svg width="49" height="41" viewBox="0 0 49 41" fill="none" xmlns="http://www.w3.org/2000/svg">
<path d="M9.182 34.0739H8.29563C8.26154 33.8845 8.19809 33.7178 8.10529 33.5739C8.01249 33.4299 7.89885 33.3078 7.76438 33.2074C7.62991 33.107 7.47934 33.0312 7.31268 32.9801C7.14791 32.929 6.97272 32.9034 6.78711 32.9034C6.45188 32.9034 6.15169 32.9877 5.88654 33.1562C5.62328 33.3248 5.41495 33.572 5.26154 33.8977C5.11003 34.2235 5.03427 34.6212 5.03427 35.0909C5.03427 35.5644 5.11003 35.964 5.26154 36.2898C5.41495 36.6155 5.62423 36.8617 5.88938 37.0284C6.15453 37.1951 6.45283 37.2784 6.78427 37.2784C6.96798 37.2784 7.14222 37.2538 7.307 37.2045C7.47366 37.1534 7.62423 37.0786 7.7587 36.9801C7.89317 36.8816 8.00681 36.7614 8.09961 36.6193C8.19431 36.4754 8.25965 36.3106 8.29563 36.125L9.182 36.1278C9.13465 36.4138 9.04279 36.6771 8.90643 36.9176C8.77196 37.1562 8.59866 37.3627 8.38654 37.5369C8.17631 37.7093 7.93578 37.8428 7.66495 37.9375C7.39412 38.0322 7.09866 38.0795 6.77859 38.0795C6.2748 38.0795 5.82594 37.9602 5.432 37.7216C5.03806 37.4811 4.72745 37.1373 4.50018 36.6903C4.2748 36.2434 4.16211 35.7102 4.16211 35.0909C4.16211 34.4697 4.27575 33.9366 4.50302 33.4915C4.73029 33.0445 5.0409 32.7017 5.43484 32.4631C5.82878 32.2225 6.27669 32.1023 6.77859 32.1023C7.0873 32.1023 7.37518 32.1468 7.64222 32.2358C7.91116 32.3229 8.15264 32.4517 8.36666 32.6222C8.58067 32.7907 8.75775 32.9972 8.89791 33.2415C9.03806 33.4839 9.13275 33.7614 9.182 34.0739ZM11.4021 38.0966C11.1256 38.0966 10.8756 38.0455 10.6521 37.9432C10.4286 37.839 10.2516 37.6884 10.1209 37.4915C9.99209 37.2945 9.9277 37.053 9.9277 36.767C9.9277 36.5208 9.97504 36.3182 10.0697 36.1591C10.1644 36 10.2923 35.8741 10.4533 35.7812C10.6142 35.6884 10.7942 35.6184 10.993 35.571C11.1919 35.5237 11.3946 35.4877 11.601 35.4631C11.8624 35.4328 12.0745 35.4081 12.2374 35.3892C12.4002 35.3684 12.5186 35.3352 12.5925 35.2898C12.6663 35.2443 12.7033 35.1705 12.7033 35.0682V35.0483C12.7033 34.8002 12.6332 34.608 12.493 34.4716C12.3548 34.3352 12.1483 34.267 11.8737 34.267C11.5877 34.267 11.3624 34.3305 11.1976 34.4574C11.0347 34.5824 10.922 34.7216 10.8595 34.875L10.0612 34.6932C10.1559 34.428 10.2942 34.214 10.476 34.0511C10.6597 33.8864 10.8709 33.767 11.1095 33.6932C11.3482 33.6174 11.5991 33.5795 11.8624 33.5795C12.0366 33.5795 12.2213 33.6004 12.4163 33.642C12.6133 33.6818 12.797 33.7557 12.9675 33.8636C13.1398 33.9716 13.2809 34.1259 13.3908 34.3267C13.5006 34.5256 13.5555 34.7841 13.5555 35.1023V38H12.726V37.4034H12.6919C12.637 37.5133 12.5546 37.6212 12.4447 37.7273C12.3349 37.8333 12.1938 37.9214 12.0214 37.9915C11.8491 38.0616 11.6427 38.0966 11.4021 38.0966ZM11.5868 37.4148C11.8216 37.4148 12.0224 37.3684 12.1891 37.2756C12.3576 37.1828 12.4855 37.0616 12.5726 36.9119C12.6616 36.7604 12.7061 36.5985 12.7061 36.4261V35.8636C12.6758 35.8939 12.6171 35.9223 12.53 35.9489C12.4447 35.9735 12.3472 35.9953 12.2374 36.0142C12.1275 36.0312 12.0205 36.0473 11.9163 36.0625C11.8122 36.0758 11.725 36.0871 11.655 36.0966C11.4902 36.1174 11.3396 36.1525 11.2033 36.2017C11.0688 36.2509 10.9608 36.322 10.8794 36.4148C10.7999 36.5057 10.7601 36.6269 10.7601 36.7784C10.7601 36.9886 10.8377 37.1477 10.993 37.2557C11.1483 37.3617 11.3463 37.4148 11.5868 37.4148ZM16.6919 33.6364V34.3182H14.3083V33.6364H16.6919ZM14.9475 32.5909H15.797V36.7188C15.797 36.8835 15.8216 37.0076 15.8708 37.0909C15.9201 37.1723 15.9835 37.2282 16.0612 37.2585C16.1407 37.2869 16.2269 37.3011 16.3197 37.3011C16.3879 37.3011 16.4475 37.2964 16.4987 37.2869C16.5498 37.2775 16.5896 37.2699 16.618 37.2642L16.7714 37.9659C16.7222 37.9848 16.6521 38.0038 16.5612 38.0227C16.4703 38.0436 16.3566 38.0549 16.2203 38.0568C15.9968 38.0606 15.7885 38.0208 15.5953 37.9375C15.4021 37.8542 15.2458 37.7254 15.1265 37.5511C15.0072 37.3769 14.9475 37.1581 14.9475 36.8949V32.5909ZM19.4333 38.0881C19.0034 38.0881 18.6331 37.9962 18.3225 37.8125C18.0138 37.6269 17.7752 37.3665 17.6066 37.0312C17.4399 36.6941 17.3566 36.2992 17.3566 35.8466C17.3566 35.3996 17.4399 35.0057 17.6066 34.6648C17.7752 34.3239 18.01 34.0578 18.3111 33.8665C18.6142 33.6752 18.9683 33.5795 19.3736 33.5795C19.6199 33.5795 19.8585 33.6203 20.0895 33.7017C20.3206 33.7831 20.528 33.911 20.7117 34.0852C20.8954 34.2595 21.0403 34.4858 21.1464 34.7642C21.2524 35.0407 21.3055 35.3769 21.3055 35.7727V36.0739H17.8367V35.4375H20.4731C20.4731 35.214 20.4276 35.0161 20.3367 34.8438C20.2458 34.6695 20.118 34.5322 19.9532 34.4318C19.7903 34.3314 19.599 34.2812 19.3793 34.2812C19.1407 34.2812 18.9324 34.34 18.7543 34.4574C18.5782 34.5729 18.4418 34.7244 18.3452 34.9119C18.2505 35.0975 18.2032 35.2992 18.2032 35.517V36.0142C18.2032 36.3059 18.2543 36.554 18.3566 36.7585C18.4608 36.9631 18.6056 37.1193 18.7913 37.2273C18.9769 37.3333 19.1937 37.3864 19.4418 37.3864C19.6028 37.3864 19.7496 37.3636 19.8822 37.3182C20.0147 37.2708 20.1293 37.2008 20.2259 37.108C20.3225 37.0152 20.3964 36.9006 20.4475 36.7642L21.2515 36.9091C21.1871 37.1458 21.0716 37.3532 20.9049 37.5312C20.7401 37.7074 20.5327 37.8447 20.2827 37.9432C20.0346 38.0398 19.7515 38.0881 19.4333 38.0881ZM24.0455 39.7273C23.6989 39.7273 23.4006 39.6818 23.1506 39.5909C22.9025 39.5 22.6998 39.3797 22.5426 39.2301C22.3854 39.0805 22.268 38.9167 22.1904 38.7386L22.9205 38.4375C22.9716 38.5208 23.0398 38.6089 23.125 38.7017C23.2121 38.7964 23.3296 38.8769 23.4773 38.9432C23.6269 39.0095 23.8191 39.0426 24.054 39.0426C24.376 39.0426 24.6421 38.964 24.8523 38.8068C25.0625 38.6515 25.1676 38.4034 25.1676 38.0625V37.2045H25.1137C25.0625 37.2973 24.9887 37.4006 24.8921 37.5142C24.7974 37.6278 24.6667 37.7263 24.5 37.8097C24.3334 37.893 24.1165 37.9347 23.8495 37.9347C23.5048 37.9347 23.1941 37.8542 22.9176 37.6932C22.643 37.5303 22.4252 37.2907 22.2642 36.9744C22.1051 36.6562 22.0256 36.2652 22.0256 35.8011C22.0256 35.3371 22.1042 34.9394 22.2614 34.608C22.4205 34.2765 22.6383 34.0227 22.9148 33.8466C23.1913 33.6686 23.5048 33.5795 23.8551 33.5795C24.126 33.5795 24.3447 33.625 24.5114 33.7159C24.678 33.8049 24.8078 33.9091 24.9006 34.0284C24.9953 34.1477 25.0682 34.2528 25.1193 34.3438H25.1818V33.6364H26.0142V38.0966C26.0142 38.4716 25.9271 38.7794 25.7529 39.0199C25.5786 39.2604 25.3428 39.4384 25.0455 39.554C24.75 39.6695 24.4167 39.7273 24.0455 39.7273ZM24.037 37.2301C24.2813 37.2301 24.4877 37.1733 24.6563 37.0597C24.8267 36.9441 24.9555 36.7794 25.0426 36.5653C25.1316 36.3494 25.1762 36.0909 25.1762 35.7898C25.1762 35.4962 25.1326 35.2377 25.0455 35.0142C24.9584 34.7907 24.8305 34.6165 24.662 34.4915C24.4934 34.3646 24.2851 34.3011 24.037 34.3011C23.7813 34.3011 23.5682 34.3674 23.3977 34.5C23.2273 34.6307 23.0985 34.8087 23.0114 35.0341C22.9262 35.2595 22.8835 35.5114 22.8835 35.7898C22.8835 36.0758 22.9271 36.3267 23.0142 36.5426C23.1013 36.7585 23.2301 36.9271 23.4006 37.0483C23.5729 37.1695 23.7851 37.2301 24.037 37.2301ZM28.9595 38.0881C28.5504 38.0881 28.1934 37.9943 27.8885 37.8068C27.5835 37.6193 27.3468 37.357 27.1782 37.0199C27.0097 36.6828 26.9254 36.2888 26.9254 35.8381C26.9254 35.3854 27.0097 34.9896 27.1782 34.6506C27.3468 34.3116 27.5835 34.0483 27.8885 33.8608C28.1934 33.6733 28.5504 33.5795 28.9595 33.5795C29.3686 33.5795 29.7256 33.6733 30.0305 33.8608C30.3354 34.0483 30.5722 34.3116 30.7407 34.6506C30.9093 34.9896 30.9936 35.3854 30.9936 35.8381C30.9936 36.2888 30.9093 36.6828 30.7407 37.0199C30.5722 37.357 30.3354 37.6193 30.0305 37.8068C29.7256 37.9943 29.3686 38.0881 28.9595 38.0881ZM28.9623 37.375C29.2275 37.375 29.4472 37.3049 29.6214 37.1648C29.7957 37.0246 29.9245 36.8381 30.0078 36.6051C30.093 36.3722 30.1356 36.1155 30.1356 35.8352C30.1356 35.5568 30.093 35.3011 30.0078 35.0682C29.9245 34.8333 29.7957 34.6449 29.6214 34.5028C29.4472 34.3608 29.2275 34.2898 28.9623 34.2898C28.6953 34.2898 28.4737 34.3608 28.2976 34.5028C28.1233 34.6449 27.9936 34.8333 27.9084 35.0682C27.825 35.3011 27.7834 35.5568 27.7834 35.8352C27.7834 36.1155 27.825 36.3722 27.9084 36.6051C27.9936 36.8381 28.1233 37.0246 28.2976 37.1648C28.4737 37.3049 28.6953 37.375 28.9623 37.375ZM31.9097 38V33.6364H32.7308V34.3295H32.7762C32.8558 34.0947 32.9959 33.91 33.1967 33.7756C33.3993 33.6392 33.6285 33.571 33.8842 33.571C33.9372 33.571 33.9997 33.5729 34.0717 33.5767C34.1455 33.5805 34.2033 33.5852 34.245 33.5909V34.4034C34.2109 34.3939 34.1503 34.3835 34.0632 34.3722C33.976 34.3589 33.8889 34.3523 33.8018 34.3523C33.601 34.3523 33.4221 34.3949 33.2649 34.4801C33.1096 34.5634 32.9864 34.6799 32.8955 34.8295C32.8046 34.9773 32.7592 35.1458 32.7592 35.3352V38H31.9097ZM34.9481 38V33.6364H35.7975V38H34.9481ZM35.377 32.9631C35.2293 32.9631 35.1024 32.9138 34.9963 32.8153C34.8922 32.715 34.8401 32.5956 34.8401 32.4574C34.8401 32.3172 34.8922 32.1979 34.9963 32.0994C35.1024 31.9991 35.2293 31.9489 35.377 31.9489C35.5248 31.9489 35.6507 31.9991 35.7549 32.0994C35.8609 32.1979 35.914 32.3172 35.914 32.4574C35.914 32.5956 35.8609 32.715 35.7549 32.8153C35.6507 32.9138 35.5248 32.9631 35.377 32.9631ZM38.7889 38.0881C38.359 38.0881 37.9887 37.9962 37.6781 37.8125C37.3694 37.6269 37.1308 37.3665 36.9622 37.0312C36.7956 36.6941 36.7122 36.2992 36.7122 35.8466C36.7122 35.3996 36.7956 35.0057 36.9622 34.6648C37.1308 34.3239 37.3656 34.0578 37.6668 33.8665C37.9698 33.6752 38.324 33.5795 38.7293 33.5795C38.9755 33.5795 39.2141 33.6203 39.4452 33.7017C39.6762 33.7831 39.8836 33.911 40.0673 34.0852C40.251 34.2595 40.3959 34.4858 40.502 34.7642C40.6081 35.0407 40.6611 35.3769 40.6611 35.7727V36.0739H37.1923V35.4375H39.8287C39.8287 35.214 39.7832 35.0161 39.6923 34.8438C39.6014 34.6695 39.4736 34.5322 39.3088 34.4318C39.1459 34.3314 38.9546 34.2812 38.7349 34.2812C38.4963 34.2812 38.288 34.34 38.1099 34.4574C37.9338 34.5729 37.7974 34.7244 37.7009 34.9119C37.6062 35.0975 37.5588 35.2992 37.5588 35.517V36.0142C37.5588 36.3059 37.6099 36.554 37.7122 36.7585C37.8164 36.9631 37.9613 37.1193 38.1469 37.2273C38.3325 37.3333 38.5493 37.3864 38.7974 37.3864C38.9584 37.3864 39.1052 37.3636 39.2378 37.3182C39.3704 37.2708 39.4849 37.2008 39.5815 37.108C39.6781 37.0152 39.752 36.9006 39.8031 36.7642L40.6071 36.9091C40.5427 37.1458 40.4272 37.3532 40.2605 37.5312C40.0957 37.7074 39.8884 37.8447 39.6384 37.9432C39.3902 38.0398 39.1071 38.0881 38.7889 38.0881ZM44.8414 34.7017L44.0716 34.8381C44.0394 34.7396 43.9882 34.6458 43.9181 34.5568C43.85 34.4678 43.7572 34.3949 43.6397 34.3381C43.5223 34.2812 43.3755 34.2528 43.1994 34.2528C42.9589 34.2528 42.7581 34.3068 42.5971 34.4148C42.4361 34.5208 42.3556 34.6581 42.3556 34.8267C42.3556 34.9725 42.4096 35.09 42.5176 35.179C42.6255 35.268 42.7998 35.3409 43.0403 35.3977L43.7335 35.5568C44.135 35.6496 44.4342 35.7926 44.6312 35.9858C44.8282 36.179 44.9267 36.4299 44.9267 36.7386C44.9267 37 44.8509 37.233 44.6994 37.4375C44.5498 37.6402 44.3405 37.7992 44.0716 37.9148C43.8045 38.0303 43.4949 38.0881 43.1426 38.0881C42.6539 38.0881 42.2553 37.9839 41.9466 37.7756C41.6378 37.5653 41.4485 37.267 41.3784 36.8807L42.1994 36.7557C42.2505 36.9697 42.3556 37.1316 42.5147 37.2415C42.6738 37.3494 42.8812 37.4034 43.1369 37.4034C43.4153 37.4034 43.6378 37.3456 43.8045 37.2301C43.9712 37.1127 44.0545 36.9697 44.0545 36.8011C44.0545 36.6648 44.0034 36.5502 43.9011 36.4574C43.8007 36.3646 43.6464 36.2945 43.438 36.2472L42.6994 36.0852C42.2922 35.9924 41.9911 35.8447 41.796 35.642C41.6028 35.4394 41.5062 35.1828 41.5062 34.8722C41.5062 34.6146 41.5782 34.3892 41.7221 34.196C41.8661 34.0028 42.0649 33.8523 42.3187 33.7443C42.5725 33.6345 42.8632 33.5795 43.1909 33.5795C43.6625 33.5795 44.0337 33.6818 44.3045 33.8864C44.5753 34.089 44.7543 34.3608 44.8414 34.7017Z" fill="black"/>
<path d="M30.625 14.75C32.489 14.75 34 13.239 34 11.375C34 9.51104 32.489 8 30.625 8C28.761 8 27.25 9.51104 27.25 11.375C27.25 13.239 28.761 14.75 30.625 14.75Z" fill="black" stroke="black" stroke-width="1.5" stroke-linecap="round" stroke-linejoin="round"/>
<path d="M19.375 26C21.239 26 22.75 24.489 22.75 22.625C22.75 20.761 21.239 19.25 19.375 19.25C17.511 19.25 16 20.761 16 22.625C16 24.489 17.511 26 19.375 26Z" fill="black" stroke="black" stroke-width="1.5" stroke-linecap="round" stroke-linejoin="round"/>
<path d="M27.25 19.25H34V24.875C34 25.4963 33.4963 26 32.875 26H28.375C27.7537 26 27.25 25.4963 27.25 24.875V19.25Z" fill="black" stroke="black" stroke-width="1.5" stroke-linecap="round" stroke-linejoin="round"/>
<path d="M16 8H22.75V13.625C22.75 14.2463 22.2463 14.75 21.625 14.75H17.125C16.5037 14.75 16 14.2463 16 13.625V8Z" fill="black" stroke="black" stroke-width="1.5" stroke-linecap="round" stroke-linejoin="round"/>
</svg>
