<svg width="49" height="41" viewBox="0 0 49 41" fill="none" xmlns="http://www.w3.org/2000/svg">
<path d="M9.48706 34.0756H8.6007C8.56661 33.8862 8.50316 33.7196 8.41036 33.5756C8.31755 33.4317 8.20392 33.3095 8.06945 33.2092C7.93498 33.1088 7.78441 33.033 7.61774 32.9819C7.45297 32.9307 7.27778 32.9052 7.09217 32.9052C6.75695 32.9052 6.45676 32.9895 6.19161 33.158C5.92835 33.3266 5.72001 33.5737 5.5666 33.8995C5.41509 34.2253 5.33933 34.623 5.33933 35.0927C5.33933 35.5662 5.41509 35.9658 5.5666 36.2915C5.72001 36.6173 5.92929 36.8635 6.19445 37.0302C6.4596 37.1968 6.75789 37.2802 7.08933 37.2802C7.27304 37.2802 7.44729 37.2556 7.61206 37.2063C7.77873 37.1552 7.92929 37.0804 8.06376 36.9819C8.19823 36.8834 8.31187 36.7631 8.40467 36.6211C8.49937 36.4771 8.56471 36.3124 8.6007 36.1268L9.48706 36.1296C9.43971 36.4156 9.34786 36.6789 9.21149 36.9194C9.07702 37.158 8.90373 37.3645 8.69161 37.5387C8.48138 37.7111 8.24085 37.8446 7.97001 37.9393C7.69918 38.034 7.40373 38.0813 7.08365 38.0813C6.57986 38.0813 6.131 37.962 5.73706 37.7234C5.34312 37.4828 5.03251 37.1391 4.80524 36.6921C4.57986 36.2451 4.46717 35.712 4.46717 35.0927C4.46717 34.4715 4.58081 33.9383 4.80808 33.4932C5.03535 33.0463 5.34596 32.7035 5.7399 32.4648C6.13384 32.2243 6.58176 32.104 7.08365 32.104C7.39236 32.104 7.68024 32.1486 7.94729 32.2376C8.21623 32.3247 8.4577 32.4535 8.67172 32.6239C8.88573 32.7925 9.06282 32.9989 9.20297 33.2432C9.34312 33.4857 9.43782 33.7631 9.48706 34.0756ZM12.318 38.0898C11.8881 38.0898 11.5178 37.998 11.2072 37.8143C10.8985 37.6287 10.6598 37.3682 10.4913 37.033C10.3246 36.6959 10.2413 36.301 10.2413 35.8484C10.2413 35.4014 10.3246 35.0075 10.4913 34.6665C10.6598 34.3256 10.8947 34.0595 11.1958 33.8682C11.4989 33.677 11.853 33.5813 12.2583 33.5813C12.5045 33.5813 12.7432 33.622 12.9742 33.7035C13.2053 33.7849 13.4127 33.9128 13.5964 34.087C13.7801 34.2612 13.925 34.4876 14.0311 34.766C14.1371 35.0425 14.1901 35.3787 14.1901 35.7745V36.0756H10.7214V35.4393H13.3578C13.3578 35.2158 13.3123 35.0179 13.2214 34.8455C13.1305 34.6713 13.0026 34.534 12.8379 34.4336C12.675 34.3332 12.4837 34.283 12.264 34.283C12.0254 34.283 11.817 34.3417 11.639 34.4592C11.4629 34.5747 11.3265 34.7262 11.2299 34.9137C11.1352 35.0993 11.0879 35.301 11.0879 35.5188V36.016C11.0879 36.3076 11.139 36.5557 11.2413 36.7603C11.3454 36.9648 11.4903 37.1211 11.6759 37.229C11.8615 37.3351 12.0784 37.3881 12.3265 37.3881C12.4875 37.3881 12.6343 37.3654 12.7668 37.32C12.8994 37.2726 13.014 37.2025 13.1106 37.1097C13.2072 37.0169 13.2811 36.9023 13.3322 36.766L14.1362 36.9109C14.0718 37.1476 13.9562 37.355 13.7896 37.533C13.6248 37.7092 13.4174 37.8465 13.1674 37.945C12.9193 38.0415 12.6362 38.0898 12.318 38.0898ZM15.95 32.1836V38.0018H15.1006V32.1836H15.95ZM18.9415 38.0898C18.5116 38.0898 18.1413 37.998 17.8307 37.8143C17.522 37.6287 17.2833 37.3682 17.1148 37.033C16.9481 36.6959 16.8648 36.301 16.8648 35.8484C16.8648 35.4014 16.9481 35.0075 17.1148 34.6665C17.2833 34.3256 17.5182 34.0595 17.8193 33.8682C18.1224 33.677 18.4765 33.5813 18.8818 33.5813C19.128 33.5813 19.3667 33.622 19.5977 33.7035C19.8288 33.7849 20.0362 33.9128 20.2199 34.087C20.4036 34.2612 20.5485 34.4876 20.6546 34.766C20.7606 35.0425 20.8136 35.3787 20.8136 35.7745V36.0756H17.3449V35.4393H19.9813C19.9813 35.2158 19.9358 35.0179 19.8449 34.8455C19.754 34.6713 19.6261 34.534 19.4614 34.4336C19.2985 34.3332 19.1072 34.283 18.8875 34.283C18.6489 34.283 18.4405 34.3417 18.2625 34.4592C18.0864 34.5747 17.95 34.7262 17.8534 34.9137C17.7587 35.0993 17.7114 35.301 17.7114 35.5188V36.016C17.7114 36.3076 17.7625 36.5557 17.8648 36.7603C17.9689 36.9648 18.1138 37.1211 18.2994 37.229C18.485 37.3351 18.7019 37.3881 18.95 37.3881C19.111 37.3881 19.2578 37.3654 19.3903 37.32C19.5229 37.2726 19.6375 37.2025 19.7341 37.1097C19.8307 37.0169 19.9046 36.9023 19.9557 36.766L20.7597 36.9109C20.6953 37.1476 20.5797 37.355 20.4131 37.533C20.2483 37.7092 20.0409 37.8465 19.7909 37.945C19.5428 38.0415 19.2597 38.0898 18.9415 38.0898ZM21.7923 38.0018V32.1836H22.6417V34.3455H22.6929C22.7421 34.2546 22.8131 34.1495 22.9059 34.0302C22.9987 33.9109 23.1275 33.8067 23.2923 33.7177C23.4571 33.6268 23.6749 33.5813 23.9457 33.5813C24.298 33.5813 24.6124 33.6703 24.8889 33.8484C25.1654 34.0264 25.3823 34.283 25.5395 34.6182C25.6985 34.9535 25.7781 35.3569 25.7781 35.8285C25.7781 36.3001 25.6995 36.7044 25.5423 37.0415C25.3851 37.3768 25.1692 37.6353 24.8946 37.8171C24.6199 37.997 24.3065 38.087 23.9542 38.087C23.6891 38.087 23.4722 38.0425 23.3037 37.9535C23.137 37.8645 23.0063 37.7603 22.9116 37.641C22.8169 37.5217 22.744 37.4156 22.6929 37.3228H22.6218V38.0018H21.7923ZM22.6247 35.82C22.6247 36.1268 22.6692 36.3957 22.7582 36.6268C22.8472 36.8578 22.976 37.0387 23.1446 37.1694C23.3131 37.2982 23.5196 37.3626 23.7639 37.3626C24.0177 37.3626 24.2298 37.2953 24.4003 37.1609C24.5707 37.0245 24.6995 36.8398 24.7866 36.6069C24.8756 36.3739 24.9201 36.1116 24.9201 35.82C24.9201 35.5321 24.8766 35.2736 24.7895 35.0444C24.7042 34.8152 24.5754 34.6343 24.4031 34.5018C24.2326 34.3692 24.0196 34.3029 23.7639 34.3029C23.5177 34.3029 23.3093 34.3664 23.1389 34.4932C22.9703 34.6201 22.8425 34.7972 22.7554 35.0245C22.6682 35.2518 22.6247 35.5169 22.6247 35.82ZM26.6999 38.0018V33.6381H27.521V34.3313H27.5664C27.646 34.0965 27.7861 33.9118 27.9869 33.7773C28.1895 33.641 28.4187 33.5728 28.6744 33.5728C28.7274 33.5728 28.7899 33.5747 28.8619 33.5785C28.9357 33.5823 28.9935 33.587 29.0352 33.5927V34.4052C29.0011 34.3957 28.9405 34.3853 28.8533 34.3739C28.7662 34.3607 28.6791 34.354 28.592 34.354C28.3912 34.354 28.2122 34.3967 28.055 34.4819C27.8997 34.5652 27.7766 34.6817 27.6857 34.8313C27.5948 34.979 27.5494 35.1476 27.5494 35.337V38.0018H26.6999ZM29.7382 38.0018V33.6381H30.5877V38.0018H29.7382ZM30.1672 32.9648C30.0195 32.9648 29.8926 32.9156 29.7865 32.8171C29.6824 32.7167 29.6303 32.5974 29.6303 32.4592C29.6303 32.319 29.6824 32.1997 29.7865 32.1012C29.8926 32.0008 30.0195 31.9506 30.1672 31.9506C30.3149 31.9506 30.4409 32.0008 30.5451 32.1012C30.6511 32.1997 30.7042 32.319 30.7042 32.4592C30.7042 32.5974 30.6511 32.7167 30.5451 32.8171C30.4409 32.9156 30.3149 32.9648 30.1672 32.9648ZM33.7354 33.6381V34.32H31.3518V33.6381H33.7354ZM31.991 32.5927H32.8405V36.7205C32.8405 36.8853 32.8651 37.0093 32.9143 37.0927C32.9636 37.1741 33.027 37.23 33.1047 37.2603C33.1842 37.2887 33.2704 37.3029 33.3632 37.3029C33.4314 37.3029 33.491 37.2982 33.5422 37.2887C33.5933 37.2792 33.6331 37.2717 33.6615 37.266L33.8149 37.9677C33.7657 37.9866 33.6956 38.0056 33.6047 38.0245C33.5138 38.0453 33.4001 38.0567 33.2638 38.0586C33.0403 38.0624 32.832 38.0226 32.6388 37.9393C32.4456 37.8559 32.2893 37.7271 32.17 37.5529C32.0507 37.3787 31.991 37.1599 31.991 36.8967V32.5927ZM34.643 38.0018V33.6381H35.4924V38.0018H34.643ZM35.072 32.9648C34.9242 32.9648 34.7973 32.9156 34.6913 32.8171C34.5871 32.7167 34.535 32.5974 34.535 32.4592C34.535 32.319 34.5871 32.1997 34.6913 32.1012C34.7973 32.0008 34.9242 31.9506 35.072 31.9506C35.2197 31.9506 35.3456 32.0008 35.4498 32.1012C35.5559 32.1997 35.6089 32.319 35.6089 32.4592C35.6089 32.5974 35.5559 32.7167 35.4498 32.8171C35.3456 32.9156 35.2197 32.9648 35.072 32.9648ZM38.4839 38.0898C38.0539 38.0898 37.6837 37.998 37.3731 37.8143C37.0644 37.6287 36.8257 37.3682 36.6572 37.033C36.4905 36.6959 36.4072 36.301 36.4072 35.8484C36.4072 35.4014 36.4905 35.0075 36.6572 34.6665C36.8257 34.3256 37.0606 34.0595 37.3617 33.8682C37.6647 33.677 38.0189 33.5813 38.4242 33.5813C38.6704 33.5813 38.9091 33.622 39.1401 33.7035C39.3712 33.7849 39.5786 33.9128 39.7623 34.087C39.946 34.2612 40.0909 34.4876 40.1969 34.766C40.303 35.0425 40.356 35.3787 40.356 35.7745V36.0756H36.8873V35.4393H39.5236C39.5236 35.2158 39.4782 35.0179 39.3873 34.8455C39.2964 34.6713 39.1685 34.534 39.0037 34.4336C38.8409 34.3332 38.6496 34.283 38.4299 34.283C38.1912 34.283 37.9829 34.3417 37.8049 34.4592C37.6287 34.5747 37.4924 34.7262 37.3958 34.9137C37.3011 35.0993 37.2537 35.301 37.2537 35.5188V36.016C37.2537 36.3076 37.3049 36.5557 37.4072 36.7603C37.5113 36.9648 37.6562 37.1211 37.8418 37.229C38.0274 37.3351 38.2443 37.3881 38.4924 37.3881C38.6534 37.3881 38.8002 37.3654 38.9327 37.32C39.0653 37.2726 39.1799 37.2025 39.2765 37.1097C39.3731 37.0169 39.4469 36.9023 39.4981 36.766L40.302 36.9109C40.2377 37.1476 40.1221 37.355 39.9555 37.533C39.7907 37.7092 39.5833 37.8465 39.3333 37.945C39.0852 38.0415 38.802 38.0898 38.4839 38.0898ZM44.5364 34.7035L43.7665 34.8398C43.7343 34.7414 43.6832 34.6476 43.6131 34.5586C43.5449 34.4696 43.4521 34.3967 43.3347 34.3398C43.2172 34.283 43.0705 34.2546 42.8943 34.2546C42.6538 34.2546 42.453 34.3086 42.2921 34.4165C42.1311 34.5226 42.0506 34.6599 42.0506 34.8285C42.0506 34.9743 42.1046 35.0917 42.2125 35.1807C42.3205 35.2698 42.4947 35.3427 42.7352 35.3995L43.4284 35.5586C43.8299 35.6514 44.1292 35.7944 44.3262 35.9876C44.5231 36.1807 44.6216 36.4317 44.6216 36.7404C44.6216 37.0018 44.5458 37.2347 44.3943 37.4393C44.2447 37.6419 44.0354 37.801 43.7665 37.9165C43.4994 38.0321 43.1898 38.0898 42.8375 38.0898C42.3489 38.0898 41.9502 37.9857 41.6415 37.7773C41.3328 37.5671 41.1434 37.2688 41.0733 36.8825L41.8943 36.7575C41.9455 36.9715 42.0506 37.1334 42.2097 37.2432C42.3688 37.3512 42.5762 37.4052 42.8318 37.4052C43.1102 37.4052 43.3328 37.3474 43.4994 37.2319C43.6661 37.1145 43.7494 36.9715 43.7494 36.8029C43.7494 36.6665 43.6983 36.552 43.596 36.4592C43.4957 36.3664 43.3413 36.2963 43.133 36.2489L42.3943 36.087C41.9871 35.9942 41.686 35.8465 41.4909 35.6438C41.2977 35.4412 41.2012 35.1845 41.2012 34.8739C41.2012 34.6164 41.2731 34.391 41.4171 34.1978C41.561 34.0046 41.7599 33.854 42.0137 33.7461C42.2674 33.6362 42.5582 33.5813 42.8858 33.5813C43.3574 33.5813 43.7286 33.6836 43.9994 33.8881C44.2703 34.0908 44.4493 34.3626 44.5364 34.7035Z" fill="black"/>
<path d="M20.2959 15.6881C20.2566 15.5276 20.2209 15.3884 20.1889 15.2703C19.8892 14.1616 19.5894 13.0531 19.2892 11.9448C19.2708 11.8766 19.2606 11.812 19.2588 11.7509C19.2422 11.1891 19.4074 10.5657 19.7768 10.1325C20.1604 9.68304 20.7386 9.45517 21.3258 9.41034C21.3992 9.40481 21.473 9.4085 21.547 9.4214C21.8454 9.47327 22.1265 9.56305 22.3901 9.69074C23.3777 10.1694 23.5946 11.1214 23.3842 12.1235C23.3647 12.2159 23.3448 12.3083 23.3243 12.4007C23.3095 12.4677 23.2887 12.526 23.2621 12.5755C23.0606 12.9509 22.6957 13.2534 22.3643 13.5079C21.6994 14.0184 21.0359 14.5308 20.3736 15.0452C20.3708 15.0474 20.3686 15.0502 20.3672 15.0534C20.3657 15.0566 20.3651 15.06 20.3653 15.0635C20.367 15.0924 20.374 15.1251 20.3862 15.1617C20.5151 15.5469 20.6325 15.9342 20.7382 16.3237C20.7387 16.3253 20.7394 16.3267 20.7405 16.3278C20.7416 16.329 20.743 16.3298 20.7445 16.3304C20.746 16.3309 20.7476 16.331 20.7492 16.3307C20.7507 16.3305 20.7522 16.3298 20.7535 16.3289C21.6994 15.61 22.646 14.8929 23.593 14.1775C23.6365 14.1446 23.6669 14.119 23.6843 14.1007C23.8859 13.887 24.0596 13.6526 24.2054 13.3973C24.8314 12.3012 24.8488 11.0833 24.3384 9.92612C24.304 9.84819 24.2622 9.77512 24.2129 9.70693C23.9705 9.37151 23.6907 9.08124 23.3737 8.83612C22.4248 8.10274 21.3745 7.94391 20.2228 8.35964C20.051 8.42164 19.8698 8.50241 19.6792 8.60193C19.4781 8.70698 19.3366 8.84086 19.177 9.00298C18.4941 9.69686 18.0042 10.6147 18 11.5973C17.999 11.8202 18.0306 12.0583 18.1 12.2777C18.1496 12.4347 18.1984 12.5905 18.2434 12.752C18.8515 14.9293 19.4469 17.1098 20.0298 19.2938C20.0595 19.4048 20.099 19.476 20.1681 19.5594C20.7169 20.2217 21.418 20.4378 22.2714 20.2078C22.3356 20.1905 22.3765 20.1753 22.3943 20.1622C23.4881 19.3558 24.6422 18.638 25.7206 17.8102C26.2057 17.4378 26.6609 17.0322 27.0863 16.5935C28.6829 14.9468 29.232 12.6302 28.8846 10.403C28.4612 7.68668 26.7739 5.24485 24.1671 4.21745C23.6169 4.00043 22.9138 3.88768 22.3607 4.16077C22.1011 4.28873 21.8854 4.49212 21.724 4.73144C21.7168 4.74224 21.6489 4.85506 21.5203 5.0699C20.8887 6.12606 20.2591 7.18197 19.6314 8.23761C19.6307 8.23871 19.6304 8.24001 19.6305 8.2413C19.6307 8.24259 19.6313 8.24379 19.6322 8.24471C19.6331 8.24563 19.6343 8.24621 19.6356 8.24635C19.6369 8.2465 19.6382 8.2462 19.6393 8.24551C19.9156 8.0799 20.2076 7.95313 20.5154 7.86519C20.7943 7.78542 21.0775 7.76251 21.3649 7.79647C21.37 7.79707 21.3752 7.7962 21.3798 7.79396C21.3845 7.79172 21.3884 7.78821 21.3911 7.78384C21.8657 7.01583 22.3407 6.24875 22.8163 5.4826C22.8546 5.42072 22.8872 5.3811 22.914 5.36372C23.3364 5.09201 25.2998 6.75446 25.661 7.05895C26.0464 7.3841 26.3618 7.73875 26.607 8.12288C27.1981 9.04839 27.5128 10.1554 27.571 11.247C27.6305 12.361 27.4444 13.4643 26.9083 14.4364C26.593 15.0082 26.2122 15.5408 25.766 16.0341C25.6047 16.2123 25.4591 16.3513 25.3293 16.4511C24.2298 17.2955 23.1309 18.1405 22.0324 18.9861C21.9958 19.0143 21.9451 19.0317 21.8803 19.0383C21.4954 19.0778 21.1606 18.9472 21.0705 18.5391C21.0442 18.4201 21.0308 18.3598 21.0304 18.3582C20.8711 17.7699 20.712 17.1815 20.5531 16.5931C20.4714 16.2906 20.3698 15.9888 20.2959 15.6881Z" fill="black" stroke="black"/>
<path d="M22.7705 22.488C22.1376 23.4688 21.6109 24.5387 21.2881 25.6626C21.2742 25.7112 21.2814 25.7146 21.3099 25.6727C22.0756 24.5441 22.929 23.4714 23.8703 22.4546C23.9653 22.352 24.0567 22.2572 24.1445 22.1705C25.0019 21.3242 25.9754 20.5866 26.959 19.9168C27.6763 19.4281 28.7367 18.739 29.6237 18.0873C29.8912 17.8909 30.1857 17.71 30.4574 17.5046C30.6587 17.3526 30.9174 17.1322 30.9992 16.8565C30.9999 16.8543 31.0001 16.852 30.9998 16.8497C30.9995 16.8473 30.9986 16.8451 30.9974 16.8431C30.9961 16.8412 30.9945 16.8395 30.9925 16.8382C30.9905 16.8369 30.9883 16.836 30.986 16.8356C30.4747 16.7543 29.9341 16.8178 29.4343 16.9409C28.0674 17.2773 26.8262 18.0427 25.7391 18.9179C25.6385 18.9988 25.5406 19.0868 25.4454 19.1817C24.4354 20.1874 23.5438 21.2895 22.7705 22.488Z" fill="black" stroke="black"/>
</svg>
