<svg width="49" height="41" viewBox="0 0 49 41" fill="none" xmlns="http://www.w3.org/2000/svg">
<path d="M9.48706 33.776H8.6007C8.56661 33.5866 8.50316 33.42 8.41036 33.276C8.31755 33.1321 8.20392 33.0099 8.06945 32.9095C7.93498 32.8092 7.78441 32.7334 7.61774 32.6823C7.45297 32.6311 7.27778 32.6056 7.09217 32.6056C6.75695 32.6056 6.45676 32.6898 6.19161 32.8584C5.92835 33.027 5.72001 33.2741 5.5666 33.5999C5.41509 33.9256 5.33933 34.3234 5.33933 34.7931C5.33933 35.2665 5.41509 35.6662 5.5666 35.9919C5.72001 36.3177 5.92929 36.5639 6.19445 36.7306C6.4596 36.8972 6.75789 36.9806 7.08933 36.9806C7.27304 36.9806 7.44729 36.9559 7.61206 36.9067C7.77873 36.8556 7.92929 36.7807 8.06376 36.6823C8.19823 36.5838 8.31187 36.4635 8.40467 36.3215C8.49937 36.1775 8.56471 36.0128 8.6007 35.8271L9.48706 35.83C9.43971 36.116 9.34786 36.3792 9.21149 36.6198C9.07702 36.8584 8.90373 37.0648 8.69161 37.2391C8.48138 37.4114 8.24085 37.545 7.97001 37.6396C7.69918 37.7343 7.40373 37.7817 7.08365 37.7817C6.57986 37.7817 6.131 37.6624 5.73706 37.4237C5.34312 37.1832 5.03251 36.8395 4.80524 36.3925C4.57986 35.9455 4.46717 35.4124 4.46717 34.7931C4.46717 34.1718 4.58081 33.6387 4.80808 33.1936C5.03535 32.7467 5.34596 32.4039 5.7399 32.1652C6.13384 31.9247 6.58176 31.8044 7.08365 31.8044C7.39236 31.8044 7.68024 31.8489 7.94729 31.9379C8.21623 32.0251 8.4577 32.1539 8.67172 32.3243C8.88573 32.4929 9.06282 32.6993 9.20297 32.9436C9.34312 33.186 9.43782 33.4635 9.48706 33.776ZM12.318 37.7902C11.8881 37.7902 11.5178 37.6984 11.2072 37.5146C10.8985 37.329 10.6598 37.0686 10.4913 36.7334C10.3246 36.3963 10.2413 36.0014 10.2413 35.5487C10.2413 35.1018 10.3246 34.7078 10.4913 34.3669C10.6598 34.026 10.8947 33.7599 11.1958 33.5686C11.4989 33.3773 11.853 33.2817 12.2583 33.2817C12.5045 33.2817 12.7432 33.3224 12.9742 33.4039C13.2053 33.4853 13.4127 33.6131 13.5964 33.7874C13.7801 33.9616 13.925 34.1879 14.0311 34.4664C14.1371 34.7429 14.1901 35.079 14.1901 35.4749V35.776H10.7214V35.1396H13.3578C13.3578 34.9162 13.3123 34.7182 13.2214 34.5459C13.1305 34.3717 13.0026 34.2343 12.8379 34.134C12.675 34.0336 12.4837 33.9834 12.264 33.9834C12.0254 33.9834 11.817 34.0421 11.639 34.1595C11.4629 34.2751 11.3265 34.4266 11.2299 34.6141C11.1352 34.7997 11.0879 35.0014 11.0879 35.2192V35.7164C11.0879 36.008 11.139 36.2561 11.2413 36.4607C11.3454 36.6652 11.4903 36.8215 11.6759 36.9294C11.8615 37.0355 12.0784 37.0885 12.3265 37.0885C12.4875 37.0885 12.6343 37.0658 12.7668 37.0203C12.8994 36.973 13.014 36.9029 13.1106 36.8101C13.2072 36.7173 13.2811 36.6027 13.3322 36.4664L14.1362 36.6112C14.0718 36.848 13.9562 37.0554 13.7896 37.2334C13.6248 37.4095 13.4174 37.5468 13.1674 37.6453C12.9193 37.7419 12.6362 37.7902 12.318 37.7902ZM15.95 31.884V37.7021H15.1006V31.884H15.95ZM18.9415 37.7902C18.5116 37.7902 18.1413 37.6984 17.8307 37.5146C17.522 37.329 17.2833 37.0686 17.1148 36.7334C16.9481 36.3963 16.8648 36.0014 16.8648 35.5487C16.8648 35.1018 16.9481 34.7078 17.1148 34.3669C17.2833 34.026 17.5182 33.7599 17.8193 33.5686C18.1224 33.3773 18.4765 33.2817 18.8818 33.2817C19.128 33.2817 19.3667 33.3224 19.5977 33.4039C19.8288 33.4853 20.0362 33.6131 20.2199 33.7874C20.4036 33.9616 20.5485 34.1879 20.6546 34.4664C20.7606 34.7429 20.8136 35.079 20.8136 35.4749V35.776H17.3449V35.1396H19.9813C19.9813 34.9162 19.9358 34.7182 19.8449 34.5459C19.754 34.3717 19.6261 34.2343 19.4614 34.134C19.2985 34.0336 19.1072 33.9834 18.8875 33.9834C18.6489 33.9834 18.4405 34.0421 18.2625 34.1595C18.0864 34.2751 17.95 34.4266 17.8534 34.6141C17.7587 34.7997 17.7114 35.0014 17.7114 35.2192V35.7164C17.7114 36.008 17.7625 36.2561 17.8648 36.4607C17.9689 36.6652 18.1138 36.8215 18.2994 36.9294C18.485 37.0355 18.7019 37.0885 18.95 37.0885C19.111 37.0885 19.2578 37.0658 19.3903 37.0203C19.5229 36.973 19.6375 36.9029 19.7341 36.8101C19.8307 36.7173 19.9046 36.6027 19.9557 36.4664L20.7597 36.6112C20.6953 36.848 20.5797 37.0554 20.4131 37.2334C20.2483 37.4095 20.0409 37.5468 19.7909 37.6453C19.5428 37.7419 19.2597 37.7902 18.9415 37.7902ZM21.7923 37.7021V31.884H22.6417V34.0459H22.6929C22.7421 33.955 22.8131 33.8499 22.9059 33.7306C22.9987 33.6112 23.1275 33.5071 23.2923 33.4181C23.4571 33.3271 23.6749 33.2817 23.9457 33.2817C24.298 33.2817 24.6124 33.3707 24.8889 33.5487C25.1654 33.7268 25.3823 33.9834 25.5395 34.3186C25.6985 34.6539 25.7781 35.0573 25.7781 35.5289C25.7781 36.0004 25.6995 36.4048 25.5423 36.7419C25.3851 37.0771 25.1692 37.3357 24.8946 37.5175C24.6199 37.6974 24.3065 37.7874 23.9542 37.7874C23.6891 37.7874 23.4722 37.7429 23.3037 37.6539C23.137 37.5648 23.0063 37.4607 22.9116 37.3414C22.8169 37.222 22.744 37.116 22.6929 37.0232H22.6218V37.7021H21.7923ZM22.6247 35.5203C22.6247 35.8271 22.6692 36.0961 22.7582 36.3271C22.8472 36.5582 22.976 36.7391 23.1446 36.8698C23.3131 36.9985 23.5196 37.0629 23.7639 37.0629C24.0177 37.0629 24.2298 36.9957 24.4003 36.8612C24.5707 36.7249 24.6995 36.5402 24.7866 36.3073C24.8756 36.0743 24.9201 35.812 24.9201 35.5203C24.9201 35.2325 24.8766 34.9739 24.7895 34.7448C24.7042 34.5156 24.5754 34.3347 24.4031 34.2021C24.2326 34.0696 24.0196 34.0033 23.7639 34.0033C23.5177 34.0033 23.3093 34.0667 23.1389 34.1936C22.9703 34.3205 22.8425 34.4976 22.7554 34.7249C22.6682 34.9521 22.6247 35.2173 22.6247 35.5203ZM26.6999 37.7021V33.3385H27.521V34.0317H27.5664C27.646 33.7968 27.7861 33.6122 27.9869 33.4777C28.1895 33.3414 28.4187 33.2732 28.6744 33.2732C28.7274 33.2732 28.7899 33.2751 28.8619 33.2789C28.9357 33.2826 28.9935 33.2874 29.0352 33.2931V34.1056C29.0011 34.0961 28.9405 34.0857 28.8533 34.0743C28.7662 34.061 28.6791 34.0544 28.592 34.0544C28.3912 34.0544 28.2122 34.097 28.055 34.1823C27.8997 34.2656 27.7766 34.3821 27.6857 34.5317C27.5948 34.6794 27.5494 34.848 27.5494 35.0374V37.7021H26.6999ZM29.7382 37.7021V33.3385H30.5877V37.7021H29.7382ZM30.1672 32.6652C30.0195 32.6652 29.8926 32.616 29.7865 32.5175C29.6824 32.4171 29.6303 32.2978 29.6303 32.1595C29.6303 32.0194 29.6824 31.9001 29.7865 31.8016C29.8926 31.7012 30.0195 31.651 30.1672 31.651C30.3149 31.651 30.4409 31.7012 30.5451 31.8016C30.6511 31.9001 30.7042 32.0194 30.7042 32.1595C30.7042 32.2978 30.6511 32.4171 30.5451 32.5175C30.4409 32.616 30.3149 32.6652 30.1672 32.6652ZM33.7354 33.3385V34.0203H31.3518V33.3385H33.7354ZM31.991 32.2931H32.8405V36.4209C32.8405 36.5857 32.8651 36.7097 32.9143 36.7931C32.9636 36.8745 33.027 36.9304 33.1047 36.9607C33.1842 36.9891 33.2704 37.0033 33.3632 37.0033C33.4314 37.0033 33.491 36.9985 33.5422 36.9891C33.5933 36.9796 33.6331 36.972 33.6615 36.9664L33.8149 37.6681C33.7657 37.687 33.6956 37.7059 33.6047 37.7249C33.5138 37.7457 33.4001 37.7571 33.2638 37.759C33.0403 37.7628 32.832 37.723 32.6388 37.6396C32.4456 37.5563 32.2893 37.4275 32.17 37.2533C32.0507 37.079 31.991 36.8603 31.991 36.597V32.2931ZM34.643 37.7021V33.3385H35.4924V37.7021H34.643ZM35.072 32.6652C34.9242 32.6652 34.7973 32.616 34.6913 32.5175C34.5871 32.4171 34.535 32.2978 34.535 32.1595C34.535 32.0194 34.5871 31.9001 34.6913 31.8016C34.7973 31.7012 34.9242 31.651 35.072 31.651C35.2197 31.651 35.3456 31.7012 35.4498 31.8016C35.5559 31.9001 35.6089 32.0194 35.6089 32.1595C35.6089 32.2978 35.5559 32.4171 35.4498 32.5175C35.3456 32.616 35.2197 32.6652 35.072 32.6652ZM38.4839 37.7902C38.0539 37.7902 37.6837 37.6984 37.3731 37.5146C37.0644 37.329 36.8257 37.0686 36.6572 36.7334C36.4905 36.3963 36.4072 36.0014 36.4072 35.5487C36.4072 35.1018 36.4905 34.7078 36.6572 34.3669C36.8257 34.026 37.0606 33.7599 37.3617 33.5686C37.6647 33.3773 38.0189 33.2817 38.4242 33.2817C38.6704 33.2817 38.9091 33.3224 39.1401 33.4039C39.3712 33.4853 39.5786 33.6131 39.7623 33.7874C39.946 33.9616 40.0909 34.1879 40.1969 34.4664C40.303 34.7429 40.356 35.079 40.356 35.4749V35.776H36.8873V35.1396H39.5236C39.5236 34.9162 39.4782 34.7182 39.3873 34.5459C39.2964 34.3717 39.1685 34.2343 39.0037 34.134C38.8409 34.0336 38.6496 33.9834 38.4299 33.9834C38.1912 33.9834 37.9829 34.0421 37.8049 34.1595C37.6287 34.2751 37.4924 34.4266 37.3958 34.6141C37.3011 34.7997 37.2537 35.0014 37.2537 35.2192V35.7164C37.2537 36.008 37.3049 36.2561 37.4072 36.4607C37.5113 36.6652 37.6562 36.8215 37.8418 36.9294C38.0274 37.0355 38.2443 37.0885 38.4924 37.0885C38.6534 37.0885 38.8002 37.0658 38.9327 37.0203C39.0653 36.973 39.1799 36.9029 39.2765 36.8101C39.3731 36.7173 39.4469 36.6027 39.4981 36.4664L40.302 36.6112C40.2377 36.848 40.1221 37.0554 39.9555 37.2334C39.7907 37.4095 39.5833 37.5468 39.3333 37.6453C39.0852 37.7419 38.802 37.7902 38.4839 37.7902ZM44.5364 34.4039L43.7665 34.5402C43.7343 34.4417 43.6832 34.348 43.6131 34.259C43.5449 34.17 43.4521 34.097 43.3347 34.0402C43.2172 33.9834 43.0705 33.955 42.8943 33.955C42.6538 33.955 42.453 34.009 42.2921 34.1169C42.1311 34.223 42.0506 34.3603 42.0506 34.5289C42.0506 34.6747 42.1046 34.7921 42.2125 34.8811C42.3205 34.9701 42.4947 35.0431 42.7352 35.0999L43.4284 35.259C43.8299 35.3518 44.1292 35.4948 44.3262 35.6879C44.5231 35.8811 44.6216 36.1321 44.6216 36.4408C44.6216 36.7021 44.5458 36.9351 44.3943 37.1396C44.2447 37.3423 44.0354 37.5014 43.7665 37.6169C43.4994 37.7325 43.1898 37.7902 42.8375 37.7902C42.3489 37.7902 41.9502 37.686 41.6415 37.4777C41.3328 37.2675 41.1434 36.9692 41.0733 36.5828L41.8943 36.4578C41.9455 36.6718 42.0506 36.8338 42.2097 36.9436C42.3688 37.0516 42.5762 37.1056 42.8318 37.1056C43.1102 37.1056 43.3328 37.0478 43.4994 36.9323C43.6661 36.8148 43.7494 36.6718 43.7494 36.5033C43.7494 36.3669 43.6983 36.2523 43.596 36.1595C43.4957 36.0667 43.3413 35.9967 43.133 35.9493L42.3943 35.7874C41.9871 35.6946 41.686 35.5468 41.4909 35.3442C41.2977 35.1415 41.2012 34.8849 41.2012 34.5743C41.2012 34.3167 41.2731 34.0914 41.4171 33.8982C41.561 33.705 41.7599 33.5544 42.0137 33.4465C42.2674 33.3366 42.5582 33.2817 42.8858 33.2817C43.3574 33.2817 43.7286 33.384 43.9994 33.5885C44.2703 33.7912 44.4493 34.0629 44.5364 34.4039Z" fill="black"/>
<path d="M20.2959 15.6881C20.2566 15.5276 20.2209 15.3884 20.1889 15.2703C19.8892 14.1616 19.5894 13.0531 19.2892 11.9448C19.2708 11.8766 19.2606 11.812 19.2588 11.7509C19.2422 11.1891 19.4074 10.5657 19.7768 10.1325C20.1604 9.68304 20.7386 9.45517 21.3258 9.41034C21.3992 9.40481 21.473 9.4085 21.547 9.4214C21.8454 9.47327 22.1265 9.56305 22.3901 9.69074C23.3777 10.1694 23.5946 11.1214 23.3842 12.1235C23.3647 12.2159 23.3448 12.3083 23.3243 12.4007C23.3095 12.4677 23.2887 12.526 23.2621 12.5755C23.0606 12.9509 22.6957 13.2534 22.3643 13.5079C21.6994 14.0184 21.0359 14.5308 20.3736 15.0452C20.3708 15.0474 20.3686 15.0502 20.3672 15.0534C20.3657 15.0566 20.3651 15.06 20.3653 15.0635C20.367 15.0924 20.374 15.1251 20.3862 15.1617C20.5151 15.5469 20.6325 15.9342 20.7382 16.3237C20.7387 16.3253 20.7394 16.3267 20.7405 16.3278C20.7416 16.329 20.743 16.3298 20.7445 16.3304C20.746 16.3309 20.7476 16.331 20.7492 16.3307C20.7507 16.3305 20.7522 16.3298 20.7535 16.3289C21.6994 15.61 22.646 14.8929 23.593 14.1775C23.6365 14.1446 23.6669 14.119 23.6843 14.1007C23.8859 13.887 24.0596 13.6526 24.2054 13.3973C24.8314 12.3012 24.8488 11.0833 24.3384 9.92612C24.304 9.84819 24.2622 9.77513 24.2129 9.70693C23.9705 9.37151 23.6907 9.08124 23.3737 8.83612C22.4248 8.10274 21.3745 7.94391 20.2228 8.35964C20.051 8.42164 19.8698 8.50241 19.6792 8.60193C19.4781 8.70698 19.3366 8.84086 19.177 9.00298C18.4941 9.69686 18.0042 10.6147 18 11.5973C17.999 11.8202 18.0306 12.0583 18.1 12.2777C18.1496 12.4347 18.1984 12.5905 18.2434 12.752C18.8515 14.9293 19.4469 17.1098 20.0298 19.2938C20.0595 19.4048 20.099 19.476 20.1681 19.5594C20.7169 20.2217 21.418 20.4378 22.2714 20.2078C22.3356 20.1905 22.3765 20.1753 22.3943 20.1622C23.4881 19.3558 24.6422 18.638 25.7206 17.8102C26.2057 17.4378 26.6609 17.0322 27.0863 16.5935C28.6829 14.9468 29.232 12.6302 28.8846 10.403C28.4612 7.68668 26.7739 5.24485 24.1671 4.21745C23.6169 4.00043 22.9138 3.88768 22.3607 4.16077C22.1011 4.28873 21.8854 4.49212 21.724 4.73144C21.7168 4.74224 21.6489 4.85506 21.5203 5.0699C20.8887 6.12606 20.2591 7.18197 19.6314 8.23761C19.6307 8.23871 19.6304 8.24001 19.6305 8.2413C19.6307 8.24259 19.6313 8.24379 19.6322 8.24471C19.6331 8.24563 19.6343 8.24621 19.6356 8.24635C19.6369 8.2465 19.6382 8.2462 19.6393 8.24551C19.9156 8.0799 20.2076 7.95313 20.5154 7.86519C20.7943 7.78542 21.0775 7.76251 21.3649 7.79647C21.37 7.79707 21.3752 7.7962 21.3798 7.79396C21.3845 7.79172 21.3884 7.78821 21.3911 7.78384C21.8657 7.01583 22.3407 6.24875 22.8163 5.4826C22.8546 5.42072 22.8872 5.3811 22.914 5.36372C23.3364 5.09201 25.2998 6.75446 25.661 7.05895C26.0464 7.3841 26.3618 7.73875 26.607 8.12288C27.1981 9.04839 27.5128 10.1554 27.571 11.247C27.6305 12.361 27.4444 13.4643 26.9083 14.4364C26.593 15.0082 26.2122 15.5408 25.766 16.0341C25.6047 16.2123 25.4591 16.3513 25.3293 16.4511C24.2298 17.2955 23.1309 18.1405 22.0324 18.9861C21.9958 19.0143 21.9451 19.0317 21.8803 19.0383C21.4954 19.0778 21.1606 18.9472 21.0705 18.5391C21.0442 18.4201 21.0308 18.3598 21.0304 18.3582C20.8711 17.7699 20.712 17.1815 20.5531 16.5931C20.4714 16.2906 20.3698 15.9888 20.2959 15.6881Z" fill="#161615"/>
<path d="M22.7705 22.4876C22.1376 23.4684 21.6109 24.5383 21.2881 25.6623C21.2742 25.7108 21.2814 25.7142 21.3099 25.6723C22.0756 24.5438 22.929 23.4711 23.8703 22.4543C23.9653 22.3516 24.0567 22.2569 24.1445 22.1701C25.0019 21.3238 25.9754 20.5863 26.959 19.9165C27.6763 19.4277 28.7367 18.7386 29.6237 18.087C29.8912 17.8905 30.1857 17.7096 30.4574 17.5043C30.6587 17.3522 30.9174 17.1318 30.9992 16.8562C30.9999 16.854 31.0001 16.8516 30.9998 16.8493C30.9995 16.847 30.9986 16.8448 30.9974 16.8428C30.9961 16.8408 30.9945 16.8391 30.9925 16.8378C30.9905 16.8365 30.9883 16.8356 30.986 16.8353C30.4747 16.7539 29.9341 16.8175 29.4343 16.9405C28.0674 17.277 26.8262 18.0423 25.7391 18.9175C25.6385 18.9985 25.5406 19.0864 25.4454 19.1813C24.4354 20.1871 23.5438 21.2892 22.7705 22.4876Z" fill="#161615"/>
</svg>
