<svg width="32" height="32" viewBox="0 0 32 32" fill="none" xmlns="http://www.w3.org/2000/svg">
<rect width="32" height="32" fill="white"/>
<path d="M12.2959 16.6881C12.2566 16.5276 12.2209 16.3884 12.1889 16.2703C11.8892 15.1616 11.5894 14.0531 11.2892 12.9448C11.2708 12.8766 11.2606 12.812 11.2588 12.7509C11.2422 12.1891 11.4074 11.5657 11.7768 11.1325C12.1604 10.683 12.7386 10.4552 13.3258 10.4103C13.3992 10.4048 13.473 10.4085 13.547 10.4214C13.8454 10.4733 14.1265 10.563 14.3901 10.6907C15.3777 11.1694 15.5946 12.1214 15.3842 13.1235C15.3647 13.2159 15.3448 13.3083 15.3243 13.4007C15.3095 13.4677 15.2887 13.526 15.2621 13.5755C15.0606 13.9509 14.6957 14.2534 14.3643 14.5079C13.6994 15.0184 13.0359 15.5308 12.3736 16.0452C12.3708 16.0474 12.3686 16.0502 12.3672 16.0534C12.3657 16.0566 12.3651 16.06 12.3653 16.0635C12.367 16.0924 12.374 16.1251 12.3862 16.1617C12.5151 16.5469 12.6325 16.9342 12.7382 17.3237C12.7387 17.3253 12.7394 17.3267 12.7405 17.3278C12.7416 17.329 12.743 17.3298 12.7445 17.3304C12.746 17.3309 12.7476 17.331 12.7492 17.3307C12.7507 17.3305 12.7522 17.3298 12.7535 17.3289C13.6994 16.61 14.646 15.8929 15.593 15.1775C15.6365 15.1446 15.6669 15.119 15.6843 15.1007C15.8859 14.887 16.0596 14.6526 16.2054 14.3973C16.8314 13.3012 16.8488 12.0833 16.3384 10.9261C16.304 10.8482 16.2622 10.7751 16.2129 10.7069C15.9705 10.3715 15.6907 10.0812 15.3737 9.83612C14.4248 9.10274 13.3745 8.94391 12.2228 9.35964C12.051 9.42164 11.8698 9.50241 11.6792 9.60193C11.4781 9.70698 11.3366 9.84086 11.177 10.003C10.4941 10.6969 10.0042 11.6147 10 12.5973C9.99903 12.8202 10.0306 13.0583 10.1 13.2777C10.1496 13.4347 10.1984 13.5905 10.2434 13.752C10.8515 15.9293 11.4469 18.1098 12.0298 20.2938C12.0595 20.4048 12.099 20.476 12.1681 20.5594C12.7169 21.2217 13.418 21.4378 14.2714 21.2078C14.3356 21.1905 14.3765 21.1753 14.3943 21.1622C15.4881 20.3558 16.6422 19.638 17.7206 18.8102C18.2057 18.4378 18.6609 18.0322 19.0863 17.5935C20.6829 15.9468 21.232 13.6302 20.8846 11.403C20.4612 8.68668 18.7739 6.24485 16.1671 5.21745C15.6169 5.00043 14.9138 4.88768 14.3607 5.16077C14.1011 5.28873 13.8854 5.49212 13.724 5.73144C13.7168 5.74224 13.6489 5.85506 13.5203 6.0699C12.8887 7.12606 12.2591 8.18197 11.6314 9.23761C11.6307 9.23871 11.6304 9.24001 11.6305 9.2413C11.6307 9.24259 11.6313 9.24379 11.6322 9.24471C11.6331 9.24563 11.6343 9.24621 11.6356 9.24635C11.6369 9.2465 11.6382 9.2462 11.6393 9.24551C11.9156 9.0799 12.2076 8.95313 12.5154 8.86519C12.7943 8.78542 13.0775 8.76251 13.3649 8.79647C13.37 8.79707 13.3752 8.7962 13.3798 8.79396C13.3845 8.79172 13.3884 8.78821 13.3911 8.78384C13.8657 8.01583 14.3407 7.24875 14.8163 6.4826C14.8546 6.42072 14.8872 6.3811 14.914 6.36372C15.3364 6.09201 17.2998 7.75446 17.661 8.05895C18.0464 8.3841 18.3618 8.73875 18.607 9.12288C19.1981 10.0484 19.5128 11.1554 19.571 12.247C19.6305 13.361 19.4444 14.4643 18.9083 15.4364C18.593 16.0082 18.2122 16.5408 17.766 17.0341C17.6047 17.2123 17.4591 17.3513 17.3293 17.4511C16.2298 18.2955 15.1309 19.1405 14.0324 19.9861C13.9958 20.0143 13.9451 20.0317 13.8803 20.0383C13.4954 20.0778 13.1606 19.9472 13.0705 19.5391C13.0442 19.4201 13.0308 19.3598 13.0304 19.3582C12.8711 18.7699 12.712 18.1815 12.5531 17.5931C12.4714 17.2906 12.3698 16.9888 12.2959 16.6881Z" fill="black" stroke="black"/>
<path d="M14.7705 23.4876C14.1376 24.4684 13.6109 25.5383 13.2881 26.6623C13.2742 26.7108 13.2814 26.7142 13.3099 26.6723C14.0756 25.5438 14.929 24.4711 15.8703 23.4543C15.9653 23.3516 16.0567 23.2569 16.1445 23.1701C17.0019 22.3238 17.9754 21.5863 18.959 20.9165C19.6763 20.4277 20.7367 19.7386 21.6237 19.087C21.8912 18.8905 22.1857 18.7096 22.4574 18.5043C22.6587 18.3522 22.9174 18.1318 22.9992 17.8562C22.9999 17.854 23.0001 17.8516 22.9998 17.8493C22.9995 17.847 22.9986 17.8448 22.9974 17.8428C22.9961 17.8408 22.9945 17.8391 22.9925 17.8378C22.9905 17.8365 22.9883 17.8356 22.986 17.8353C22.4747 17.7539 21.9341 17.8175 21.4343 17.9405C20.0674 18.277 18.8262 19.0423 17.7391 19.9175C17.6385 19.9985 17.5406 20.0864 17.4454 20.1813C16.4354 21.1871 15.5438 22.2892 14.7705 23.4876Z" fill="black" stroke="black"/>
</svg>
