<svg width="49" height="41" viewBox="0 0 49 41" fill="none" xmlns="http://www.w3.org/2000/svg">
<path d="M9.48706 33.7756H8.6007C8.56661 33.5863 8.50316 33.4196 8.41036 33.2756C8.31755 33.1317 8.20392 33.0095 8.06945 32.9092C7.93498 32.8088 7.78441 32.733 7.61774 32.6819C7.45297 32.6308 7.27778 32.6052 7.09217 32.6052C6.75695 32.6052 6.45676 32.6895 6.19161 32.858C5.92835 33.0266 5.72001 33.2738 5.5666 33.5995C5.41509 33.9253 5.33933 34.323 5.33933 34.7927C5.33933 35.2662 5.41509 35.6658 5.5666 35.9916C5.72001 36.3173 5.92929 36.5635 6.19445 36.7302C6.4596 36.8969 6.75789 36.9802 7.08933 36.9802C7.27304 36.9802 7.44729 36.9556 7.61206 36.9063C7.77873 36.8552 7.92929 36.7804 8.06376 36.6819C8.19823 36.5834 8.31187 36.4631 8.40467 36.3211C8.49937 36.1772 8.56471 36.0124 8.6007 35.8268L9.48706 35.8296C9.43971 36.1156 9.34786 36.3789 9.21149 36.6194C9.07702 36.858 8.90373 37.0645 8.69161 37.2387C8.48138 37.4111 8.24085 37.5446 7.97001 37.6393C7.69918 37.734 7.40373 37.7813 7.08365 37.7813C6.57986 37.7813 6.131 37.662 5.73706 37.4234C5.34312 37.1828 5.03251 36.8391 4.80524 36.3921C4.57986 35.9452 4.46717 35.412 4.46717 34.7927C4.46717 34.1715 4.58081 33.6383 4.80808 33.1933C5.03535 32.7463 5.34596 32.4035 5.7399 32.1649C6.13384 31.9243 6.58176 31.8041 7.08365 31.8041C7.39236 31.8041 7.68024 31.8486 7.94729 31.9376C8.21623 32.0247 8.4577 32.1535 8.67172 32.3239C8.88573 32.4925 9.06282 32.6989 9.20297 32.9433C9.34312 33.1857 9.43782 33.4631 9.48706 33.7756ZM12.318 37.7899C11.8881 37.7899 11.5178 37.698 11.2072 37.5143C10.8985 37.3287 10.6598 37.0683 10.4913 36.733C10.3246 36.3959 10.2413 36.001 10.2413 35.5484C10.2413 35.1014 10.3246 34.7075 10.4913 34.3666C10.6598 34.0256 10.8947 33.7595 11.1958 33.5683C11.4989 33.377 11.853 33.2813 12.2583 33.2813C12.5045 33.2813 12.7432 33.322 12.9742 33.4035C13.2053 33.4849 13.4127 33.6128 13.5964 33.787C13.7801 33.9613 13.925 34.1876 14.0311 34.466C14.1371 34.7425 14.1901 35.0787 14.1901 35.4745V35.7756H10.7214V35.1393H13.3578C13.3578 34.9158 13.3123 34.7179 13.2214 34.5455C13.1305 34.3713 13.0026 34.234 12.8379 34.1336C12.675 34.0332 12.4837 33.983 12.264 33.983C12.0254 33.983 11.817 34.0417 11.639 34.1592C11.4629 34.2747 11.3265 34.4262 11.2299 34.6137C11.1352 34.7993 11.0879 35.001 11.0879 35.2188V35.716C11.0879 36.0077 11.139 36.2558 11.2413 36.4603C11.3454 36.6649 11.4903 36.8211 11.6759 36.9291C11.8615 37.0351 12.0784 37.0881 12.3265 37.0881C12.4875 37.0881 12.6343 37.0654 12.7668 37.02C12.8994 36.9726 13.014 36.9025 13.1106 36.8097C13.2072 36.7169 13.2811 36.6024 13.3322 36.466L14.1362 36.6109C14.0718 36.8476 13.9562 37.055 13.7896 37.233C13.6248 37.4092 13.4174 37.5465 13.1674 37.645C12.9193 37.7416 12.6362 37.7899 12.318 37.7899ZM15.95 31.8836V37.7018H15.1006V31.8836H15.95ZM18.9415 37.7899C18.5116 37.7899 18.1413 37.698 17.8307 37.5143C17.522 37.3287 17.2833 37.0683 17.1148 36.733C16.9481 36.3959 16.8648 36.001 16.8648 35.5484C16.8648 35.1014 16.9481 34.7075 17.1148 34.3666C17.2833 34.0256 17.5182 33.7595 17.8193 33.5683C18.1224 33.377 18.4765 33.2813 18.8818 33.2813C19.128 33.2813 19.3667 33.322 19.5977 33.4035C19.8288 33.4849 20.0362 33.6128 20.2199 33.787C20.4036 33.9613 20.5485 34.1876 20.6546 34.466C20.7606 34.7425 20.8136 35.0787 20.8136 35.4745V35.7756H17.3449V35.1393H19.9813C19.9813 34.9158 19.9358 34.7179 19.8449 34.5455C19.754 34.3713 19.6261 34.234 19.4614 34.1336C19.2985 34.0332 19.1072 33.983 18.8875 33.983C18.6489 33.983 18.4405 34.0417 18.2625 34.1592C18.0864 34.2747 17.95 34.4262 17.8534 34.6137C17.7587 34.7993 17.7114 35.001 17.7114 35.2188V35.716C17.7114 36.0077 17.7625 36.2558 17.8648 36.4603C17.9689 36.6649 18.1138 36.8211 18.2994 36.9291C18.485 37.0351 18.7019 37.0881 18.95 37.0881C19.111 37.0881 19.2578 37.0654 19.3903 37.02C19.5229 36.9726 19.6375 36.9025 19.7341 36.8097C19.8307 36.7169 19.9046 36.6024 19.9557 36.466L20.7597 36.6109C20.6953 36.8476 20.5797 37.055 20.4131 37.233C20.2483 37.4092 20.0409 37.5465 19.7909 37.645C19.5428 37.7416 19.2597 37.7899 18.9415 37.7899ZM21.7923 37.7018V31.8836H22.6417V34.0455H22.6929C22.7421 33.9546 22.8131 33.8495 22.9059 33.7302C22.9987 33.6109 23.1275 33.5067 23.2923 33.4177C23.4571 33.3268 23.6749 33.2813 23.9457 33.2813C24.298 33.2813 24.6124 33.3703 24.8889 33.5484C25.1654 33.7264 25.3823 33.983 25.5395 34.3183C25.6985 34.6535 25.7781 35.0569 25.7781 35.5285C25.7781 36.0001 25.6995 36.4044 25.5423 36.7416C25.3851 37.0768 25.1692 37.3353 24.8946 37.5171C24.6199 37.697 24.3065 37.787 23.9542 37.787C23.6891 37.787 23.4722 37.7425 23.3037 37.6535C23.137 37.5645 23.0063 37.4603 22.9116 37.341C22.8169 37.2217 22.744 37.1156 22.6929 37.0228H22.6218V37.7018H21.7923ZM22.6247 35.52C22.6247 35.8268 22.6692 36.0957 22.7582 36.3268C22.8472 36.5578 22.976 36.7387 23.1446 36.8694C23.3131 36.9982 23.5196 37.0626 23.7639 37.0626C24.0177 37.0626 24.2298 36.9953 24.4003 36.8609C24.5707 36.7245 24.6995 36.5399 24.7866 36.3069C24.8756 36.0739 24.9201 35.8116 24.9201 35.52C24.9201 35.2321 24.8766 34.9736 24.7895 34.7444C24.7042 34.5152 24.5754 34.3344 24.4031 34.2018C24.2326 34.0692 24.0196 34.0029 23.7639 34.0029C23.5177 34.0029 23.3093 34.0664 23.1389 34.1933C22.9703 34.3202 22.8425 34.4972 22.7554 34.7245C22.6682 34.9518 22.6247 35.2169 22.6247 35.52ZM26.6999 37.7018V33.3381H27.521V34.0313H27.5664C27.646 33.7965 27.7861 33.6118 27.9869 33.4774C28.1895 33.341 28.4187 33.2728 28.6744 33.2728C28.7274 33.2728 28.7899 33.2747 28.8619 33.2785C28.9357 33.2823 28.9935 33.287 29.0352 33.2927V34.1052C29.0011 34.0957 28.9405 34.0853 28.8533 34.0739C28.7662 34.0607 28.6791 34.0541 28.592 34.0541C28.3912 34.0541 28.2122 34.0967 28.055 34.1819C27.8997 34.2652 27.7766 34.3817 27.6857 34.5313C27.5948 34.6791 27.5494 34.8476 27.5494 35.037V37.7018H26.6999ZM29.7382 37.7018V33.3381H30.5877V37.7018H29.7382ZM30.1672 32.6649C30.0195 32.6649 29.8926 32.6156 29.7865 32.5171C29.6824 32.4167 29.6303 32.2974 29.6303 32.1592C29.6303 32.019 29.6824 31.8997 29.7865 31.8012C29.8926 31.7008 30.0195 31.6506 30.1672 31.6506C30.3149 31.6506 30.4409 31.7008 30.5451 31.8012C30.6511 31.8997 30.7042 32.019 30.7042 32.1592C30.7042 32.2974 30.6511 32.4167 30.5451 32.5171C30.4409 32.6156 30.3149 32.6649 30.1672 32.6649ZM33.7354 33.3381V34.02H31.3518V33.3381H33.7354ZM31.991 32.2927H32.8405V36.4205C32.8405 36.5853 32.8651 36.7094 32.9143 36.7927C32.9636 36.8741 33.027 36.93 33.1047 36.9603C33.1842 36.9887 33.2704 37.0029 33.3632 37.0029C33.4314 37.0029 33.491 36.9982 33.5422 36.9887C33.5933 36.9792 33.6331 36.9717 33.6615 36.966L33.8149 37.6677C33.7657 37.6866 33.6956 37.7056 33.6047 37.7245C33.5138 37.7453 33.4001 37.7567 33.2638 37.7586C33.0403 37.7624 32.832 37.7226 32.6388 37.6393C32.4456 37.5559 32.2893 37.4272 32.17 37.2529C32.0507 37.0787 31.991 36.8599 31.991 36.5967V32.2927ZM34.643 37.7018V33.3381H35.4924V37.7018H34.643ZM35.072 32.6649C34.9242 32.6649 34.7973 32.6156 34.6913 32.5171C34.5871 32.4167 34.535 32.2974 34.535 32.1592C34.535 32.019 34.5871 31.8997 34.6913 31.8012C34.7973 31.7008 34.9242 31.6506 35.072 31.6506C35.2197 31.6506 35.3456 31.7008 35.4498 31.8012C35.5559 31.8997 35.6089 32.019 35.6089 32.1592C35.6089 32.2974 35.5559 32.4167 35.4498 32.5171C35.3456 32.6156 35.2197 32.6649 35.072 32.6649ZM38.4839 37.7899C38.0539 37.7899 37.6837 37.698 37.3731 37.5143C37.0644 37.3287 36.8257 37.0683 36.6572 36.733C36.4905 36.3959 36.4072 36.001 36.4072 35.5484C36.4072 35.1014 36.4905 34.7075 36.6572 34.3666C36.8257 34.0256 37.0606 33.7595 37.3617 33.5683C37.6647 33.377 38.0189 33.2813 38.4242 33.2813C38.6704 33.2813 38.9091 33.322 39.1401 33.4035C39.3712 33.4849 39.5786 33.6128 39.7623 33.787C39.946 33.9613 40.0909 34.1876 40.1969 34.466C40.303 34.7425 40.356 35.0787 40.356 35.4745V35.7756H36.8873V35.1393H39.5236C39.5236 34.9158 39.4782 34.7179 39.3873 34.5455C39.2964 34.3713 39.1685 34.234 39.0037 34.1336C38.8409 34.0332 38.6496 33.983 38.4299 33.983C38.1912 33.983 37.9829 34.0417 37.8049 34.1592C37.6287 34.2747 37.4924 34.4262 37.3958 34.6137C37.3011 34.7993 37.2537 35.001 37.2537 35.2188V35.716C37.2537 36.0077 37.3049 36.2558 37.4072 36.4603C37.5113 36.6649 37.6562 36.8211 37.8418 36.9291C38.0274 37.0351 38.2443 37.0881 38.4924 37.0881C38.6534 37.0881 38.8002 37.0654 38.9327 37.02C39.0653 36.9726 39.1799 36.9025 39.2765 36.8097C39.3731 36.7169 39.4469 36.6024 39.4981 36.466L40.302 36.6109C40.2377 36.8476 40.1221 37.055 39.9555 37.233C39.7907 37.4092 39.5833 37.5465 39.3333 37.645C39.0852 37.7416 38.802 37.7899 38.4839 37.7899ZM44.5364 34.4035L43.7665 34.5399C43.7343 34.4414 43.6832 34.3476 43.6131 34.2586C43.5449 34.1696 43.4521 34.0967 43.3347 34.0399C43.2172 33.983 43.0705 33.9546 42.8943 33.9546C42.6538 33.9546 42.453 34.0086 42.2921 34.1166C42.1311 34.2226 42.0506 34.3599 42.0506 34.5285C42.0506 34.6743 42.1046 34.7917 42.2125 34.8808C42.3205 34.9698 42.4947 35.0427 42.7352 35.0995L43.4284 35.2586C43.8299 35.3514 44.1292 35.4944 44.3262 35.6876C44.5231 35.8808 44.6216 36.1317 44.6216 36.4404C44.6216 36.7018 44.5458 36.9347 44.3943 37.1393C44.2447 37.3419 44.0354 37.501 43.7665 37.6166C43.4994 37.7321 43.1898 37.7899 42.8375 37.7899C42.3489 37.7899 41.9502 37.6857 41.6415 37.4774C41.3328 37.2671 41.1434 36.9688 41.0733 36.5825L41.8943 36.4575C41.9455 36.6715 42.0506 36.8334 42.2097 36.9433C42.3688 37.0512 42.5762 37.1052 42.8318 37.1052C43.1102 37.1052 43.3328 37.0474 43.4994 36.9319C43.6661 36.8145 43.7494 36.6715 43.7494 36.5029C43.7494 36.3666 43.6983 36.252 43.596 36.1592C43.4957 36.0664 43.3413 35.9963 43.133 35.9489L42.3943 35.787C41.9871 35.6942 41.686 35.5465 41.4909 35.3438C41.2977 35.1412 41.2012 34.8845 41.2012 34.5739C41.2012 34.3164 41.2731 34.091 41.4171 33.8978C41.561 33.7046 41.7599 33.5541 42.0137 33.4461C42.2674 33.3363 42.5582 33.2813 42.8858 33.2813C43.3574 33.2813 43.7286 33.3836 43.9994 33.5881C44.2703 33.7908 44.4493 34.0626 44.5364 34.4035Z" fill="black"/>
<path d="M20.2959 15.6881C20.2566 15.5276 20.2209 15.3884 20.1889 15.2703C19.8892 14.1616 19.5894 13.0531 19.2892 11.9448C19.2708 11.8766 19.2606 11.812 19.2588 11.7509C19.2422 11.1891 19.4074 10.5657 19.7768 10.1325C20.1604 9.68304 20.7386 9.45517 21.3258 9.41034C21.3992 9.40481 21.473 9.4085 21.547 9.4214C21.8454 9.47327 22.1265 9.56305 22.3901 9.69074C23.3777 10.1694 23.5946 11.1214 23.3842 12.1235C23.3647 12.2159 23.3448 12.3083 23.3243 12.4007C23.3095 12.4677 23.2887 12.526 23.2621 12.5755C23.0606 12.9509 22.6957 13.2534 22.3643 13.5079C21.6994 14.0184 21.0359 14.5308 20.3736 15.0452C20.3708 15.0474 20.3686 15.0502 20.3672 15.0534C20.3657 15.0566 20.3651 15.06 20.3653 15.0635C20.367 15.0924 20.374 15.1251 20.3862 15.1617C20.5151 15.5469 20.6325 15.9342 20.7382 16.3237C20.7387 16.3253 20.7394 16.3267 20.7405 16.3278C20.7416 16.329 20.743 16.3298 20.7445 16.3304C20.746 16.3309 20.7476 16.331 20.7492 16.3307C20.7507 16.3305 20.7522 16.3298 20.7535 16.3289C21.6994 15.61 22.646 14.8929 23.593 14.1775C23.6365 14.1446 23.6669 14.119 23.6843 14.1007C23.8859 13.887 24.0596 13.6526 24.2054 13.3973C24.8314 12.3012 24.8488 11.0833 24.3384 9.92612C24.304 9.84819 24.2622 9.77512 24.2129 9.70693C23.9705 9.37151 23.6907 9.08124 23.3737 8.83612C22.4248 8.10274 21.3745 7.94391 20.2228 8.35964C20.051 8.42164 19.8698 8.50241 19.6792 8.60193C19.4781 8.70698 19.3366 8.84086 19.177 9.00298C18.4941 9.69686 18.0042 10.6147 18 11.5973C17.999 11.8202 18.0306 12.0583 18.1 12.2777C18.1496 12.4347 18.1984 12.5905 18.2434 12.752C18.8515 14.9293 19.4469 17.1098 20.0298 19.2938C20.0595 19.4048 20.099 19.476 20.1681 19.5594C20.7169 20.2217 21.418 20.4378 22.2714 20.2078C22.3356 20.1905 22.3765 20.1753 22.3943 20.1622C23.4881 19.3558 24.6422 18.638 25.7206 17.8102C26.2057 17.4378 26.6609 17.0322 27.0863 16.5935C28.6829 14.9468 29.232 12.6302 28.8846 10.403C28.4612 7.68668 26.7739 5.24485 24.1671 4.21745C23.6169 4.00043 22.9138 3.88768 22.3607 4.16077C22.1011 4.28873 21.8854 4.49212 21.724 4.73144C21.7168 4.74224 21.6489 4.85506 21.5203 5.0699C20.8887 6.12606 20.2591 7.18197 19.6314 8.23761C19.6307 8.23871 19.6304 8.24001 19.6305 8.2413C19.6307 8.24259 19.6313 8.24379 19.6322 8.24471C19.6331 8.24563 19.6343 8.24621 19.6356 8.24635C19.6369 8.2465 19.6382 8.2462 19.6393 8.24551C19.9156 8.0799 20.2076 7.95313 20.5154 7.86519C20.7943 7.78542 21.0775 7.76251 21.3649 7.79647C21.37 7.79707 21.3752 7.7962 21.3798 7.79396C21.3845 7.79172 21.3884 7.78821 21.3911 7.78384C21.8657 7.01583 22.3407 6.24875 22.8163 5.4826C22.8546 5.42072 22.8872 5.3811 22.914 5.36372C23.3364 5.09201 25.2998 6.75446 25.661 7.05895C26.0464 7.3841 26.3618 7.73875 26.607 8.12288C27.1981 9.04839 27.5128 10.1554 27.571 11.247C27.6305 12.361 27.4444 13.4643 26.9083 14.4364C26.593 15.0082 26.2122 15.5408 25.766 16.0341C25.6047 16.2123 25.4591 16.3513 25.3293 16.4511C24.2298 17.2955 23.1309 18.1405 22.0324 18.9861C21.9958 19.0143 21.9451 19.0317 21.8803 19.0383C21.4954 19.0778 21.1606 18.9472 21.0705 18.5391C21.0442 18.4201 21.0308 18.3598 21.0304 18.3582C20.8711 17.7699 20.712 17.1815 20.5531 16.5931C20.4714 16.2906 20.3698 15.9888 20.2959 15.6881Z" fill="#161615"/>
<path d="M22.7705 22.488C22.1376 23.4688 21.6109 24.5387 21.2881 25.6626C21.2742 25.7112 21.2814 25.7146 21.3099 25.6727C22.0756 24.5441 22.929 23.4714 23.8703 22.4546C23.9653 22.352 24.0567 22.2572 24.1445 22.1705C25.0019 21.3242 25.9754 20.5866 26.959 19.9168C27.6763 19.4281 28.7367 18.739 29.6237 18.0873C29.8912 17.8909 30.1857 17.71 30.4574 17.5046C30.6587 17.3526 30.9174 17.1322 30.9992 16.8565C30.9999 16.8543 31.0001 16.852 30.9998 16.8497C30.9995 16.8473 30.9986 16.8451 30.9974 16.8431C30.9961 16.8412 30.9945 16.8395 30.9925 16.8382C30.9905 16.8369 30.9883 16.836 30.986 16.8356C30.4747 16.7543 29.9341 16.8178 29.4343 16.9409C28.0674 17.2773 26.8262 18.0427 25.7391 18.9179C25.6385 18.9988 25.5406 19.0868 25.4454 19.1817C24.4354 20.1874 23.5438 21.2895 22.7705 22.488Z" fill="#161615"/>
</svg>
