<svg width="21" height="21" viewBox="0 0 21 21" fill="none" xmlns="http://www.w3.org/2000/svg">
<path fill-rule="evenodd" clip-rule="evenodd" d="M11.46 2.33691C9.71855 2.33651 8.02344 2.89777 6.62637 3.93735C5.2293 4.97692 4.20477 6.43936 3.70493 8.1075C3.20509 9.77563 3.25659 11.5605 3.85179 13.197C4.44699 14.8336 5.55415 16.2345 7.00884 17.1918C7.0817 17.2388 7.14451 17.2998 7.19365 17.3713C7.24278 17.4428 7.27726 17.5233 7.2951 17.6081C7.31294 17.693 7.31377 17.7806 7.29756 17.8658C7.28135 17.951 7.24842 18.0321 7.20066 18.1045C7.1529 18.1769 7.09126 18.2391 7.01932 18.2875C6.94737 18.336 6.86654 18.3696 6.78149 18.3866C6.69645 18.4036 6.60888 18.4036 6.52385 18.3866C6.43881 18.3695 6.358 18.3358 6.28609 18.2873C4.98478 17.431 3.9167 16.2648 3.17792 14.8934C2.43914 13.5219 2.05282 11.9884 2.05371 10.4307C2.05371 5.23579 6.26509 1.02441 11.46 1.02441C12.4977 1.02441 13.4987 1.19329 14.4341 1.50479C14.5497 1.54332 14.6523 1.61327 14.7304 1.70682C14.8085 1.80036 14.859 1.9138 14.8762 2.03443C14.8935 2.15505 14.8768 2.2781 14.8281 2.38979C14.7794 2.50147 14.7005 2.59739 14.6003 2.66679C13.4117 3.48929 12.517 4.67009 12.0467 6.03692C11.5764 7.40375 11.5552 8.88508 11.9861 10.2648C12.4171 11.6446 13.2776 12.8505 14.4422 13.7067C15.6068 14.5629 17.0145 15.0246 18.46 15.0244C18.5818 15.0244 18.7013 15.0584 18.805 15.1224C18.9086 15.1865 18.9924 15.2782 19.0469 15.3872C19.1014 15.4962 19.1245 15.6182 19.1136 15.7396C19.1026 15.861 19.0581 15.9769 18.985 16.0744C18.1095 17.2434 16.9735 18.1921 15.6673 18.8453C14.361 19.4984 12.9204 19.8379 11.46 19.8369C10.9805 19.8369 10.5097 19.801 10.0495 19.7319C9.88027 19.7028 9.7292 19.6086 9.62866 19.4695C9.52811 19.3303 9.4861 19.1573 9.51163 18.9876C9.53716 18.8178 9.62819 18.6648 9.76521 18.5614C9.90223 18.4579 10.0743 18.4123 10.2446 18.4343C10.641 18.4938 11.0461 18.5244 11.46 18.5244C13.572 18.5273 15.6008 17.7017 17.1107 16.2249C13.2835 15.5827 10.3662 12.2533 10.3662 8.24316C10.3648 7.16308 10.5802 6.0937 10.9997 5.09841C11.4192 4.10311 12.0342 3.20215 12.8083 2.44891C12.3628 2.3743 11.9117 2.33683 11.46 2.33691Z" fill="black"/>
</svg>
