<svg width="14" height="12" viewBox="0 0 14 12" fill="none" xmlns="http://www.w3.org/2000/svg">
<path d="M1.21849 0.0137994C1.22401 0.0220791 1.25437 0.0593376 1.28335 0.0952162C1.49448 0.346366 1.65317 0.75483 1.73873 1.26955C1.79531 1.60764 1.79807 1.71389 1.79807 3.00276V4.20331H1.22125C0.694112 4.20331 0.633395 4.20055 0.529899 4.17985C0.367065 4.14535 0.198712 4.0529 0.0855566 3.93422C-0.00413984 3.83901 -0.00137994 3.83349 0.00413983 4.1219C0.0110396 4.36063 0.0137994 4.38684 0.0482981 4.51656C0.103496 4.72217 0.179393 4.87535 0.293928 5.01196C0.449862 5.19963 0.608556 5.30451 0.834867 5.37489C0.883165 5.38868 0.985281 5.3942 1.34683 5.39696L1.79807 5.40386V6.00138V6.60028L1.16191 6.59614L0.522999 6.592L0.412604 6.54784C0.281509 6.4954 0.222171 6.45676 0.0938363 6.34223L0 6.25805L0.00551978 6.52162C0.0124195 6.76587 0.0137994 6.79347 0.0482981 6.91766C0.168353 7.35649 0.458142 7.66973 0.840386 7.77185C0.935603 7.79807 0.972861 7.79945 1.37167 7.80497L1.79807 7.81049V9.04692C1.79807 9.79347 1.79393 10.3441 1.78703 10.4379C1.78013 10.5235 1.75805 10.6835 1.73873 10.7953C1.64903 11.31 1.48758 11.6978 1.25575 11.9489L1.20883 12H3.54232C4.93744 12 5.98068 11.9945 6.13385 11.9876C6.40294 11.9738 7.00322 11.9144 7.13845 11.8855C7.18123 11.8772 7.26127 11.8648 7.31371 11.8565C7.42548 11.8399 7.6104 11.8013 7.87673 11.7337C8.25207 11.6398 8.5943 11.5225 8.92962 11.3735C9.0345 11.3266 9.33533 11.1734 9.41536 11.1251C9.45814 11.1003 9.5092 11.0699 9.52852 11.0603C9.58234 11.0313 9.67203 10.9733 9.80313 10.8795C9.86799 10.8326 9.93284 10.787 9.94664 10.7774C10.0046 10.7387 10.2047 10.5718 10.2958 10.4876C10.6421 10.1688 10.9319 9.81417 11.1569 9.43468C11.1886 9.37949 11.23 9.31049 11.2479 9.28151C11.2935 9.20423 11.4811 8.81785 11.4991 8.75989C11.5074 8.73367 11.5184 8.70607 11.5239 8.70055C11.5598 8.65363 11.7668 8.0023 11.7916 7.86017C11.7999 7.81463 11.804 7.80773 11.8385 7.80083C11.8606 7.79669 12.1822 7.79669 12.5534 7.79945C13.2958 7.80497 13.2958 7.80497 13.46 7.88086C13.5524 7.92364 13.58 7.94296 13.6822 8.03542C13.816 8.15547 13.8036 8.17479 13.7953 7.87396C13.7898 7.69733 13.7829 7.58832 13.7705 7.54416C13.7236 7.37443 13.7125 7.33855 13.6711 7.25299C13.5359 6.95768 13.3096 6.74655 13.0198 6.64581L12.9066 6.60442L12.4457 6.5989L11.9862 6.592L11.9917 6.43054C11.9972 6.21803 11.9972 5.79715 11.9903 5.5805L11.9848 5.40662L12.6003 5.40386C13.1274 5.4011 13.2254 5.40386 13.2833 5.41904C13.4572 5.46734 13.5745 5.53358 13.718 5.66467L13.7981 5.73919V5.53496C13.7981 5.29209 13.7856 5.18445 13.736 5.02438C13.638 4.70009 13.4448 4.4586 13.1688 4.30957C12.9894 4.21297 12.9784 4.21021 12.3615 4.20607C12 4.20331 11.8109 4.19779 11.8013 4.18951C11.793 4.18123 11.7861 4.16743 11.7861 4.15639C11.7861 4.14535 11.7654 4.05842 11.7378 3.96458C11.4149 2.82337 10.8119 1.91674 9.93008 1.24471C9.81003 1.15225 9.5161 0.957682 9.39742 0.891444C9.35189 0.865225 9.30221 0.837627 9.28979 0.829347C9.23183 0.797608 8.89926 0.634775 8.81647 0.600276C8.76679 0.578197 8.70193 0.550598 8.67295 0.539558C8.18583 0.328427 7.36891 0.128335 6.74517 0.0662374C6.64305 0.0565777 6.50782 0.0413983 6.44572 0.0358786C6.16421 0.00413983 5.77369 0 3.55612 0C1.68215 0 1.21159 0.00413983 1.21849 0.0137994ZM5.78197 0.611316C6.24839 0.638914 6.53542 0.674793 6.87075 0.75621C7.89466 0.99908 8.615 1.51242 9.13799 2.37075C9.18629 2.45078 9.39052 2.86753 9.42088 2.9517C9.56578 3.34223 9.63615 3.57406 9.69825 3.88041C9.71343 3.95492 9.73413 4.05428 9.74379 4.1012C9.75345 4.14673 9.75759 4.18951 9.75345 4.19365C9.74655 4.19917 8.36109 4.20193 6.67203 4.20055L3.60166 4.19779L3.59752 2.42456C3.59614 1.45032 3.59752 0.640294 3.60166 0.625115L3.60718 0.598896H4.58832C5.1265 0.598896 5.66467 0.604416 5.78197 0.611316ZM9.8873 5.44526C9.89696 5.5046 9.89696 6.51196 9.8873 6.56164L9.87903 6.5989L6.73965 6.59614L3.60166 6.592L3.5989 6.0069C3.59614 5.68537 3.5989 5.41766 3.60166 5.41214C3.6058 5.40524 4.94296 5.4011 6.74379 5.4011H9.87903L9.8873 5.44526ZM9.74655 7.81463C9.75345 7.83533 9.72033 8.00506 9.65271 8.28105C9.57544 8.59154 9.47056 8.90478 9.36431 9.13661C9.31187 9.25529 9.18077 9.51196 9.14903 9.56026C9.13385 9.58234 9.0897 9.65271 9.05106 9.71481C8.80267 10.104 8.44802 10.4586 8.0437 10.7208C7.89604 10.8146 7.59246 10.9747 7.51104 10.9995C7.49448 11.0037 7.47654 11.012 7.46964 11.0175C7.45998 11.0258 7.33441 11.0727 7.18813 11.1251C6.91904 11.2203 6.40708 11.3238 5.99586 11.3666C5.72953 11.3928 5.68675 11.3942 4.66145 11.3942H3.60028V9.60442V7.81325L6.64857 7.80773C8.32521 7.80497 9.70653 7.80083 9.71757 7.79807C9.72999 7.79669 9.74241 7.80497 9.74655 7.81463Z" fill="black"/>
</svg>
