<svg width="32" height="32" viewBox="0 0 32 32" fill="none" xmlns="http://www.w3.org/2000/svg">
<path fill-rule="evenodd" clip-rule="evenodd" d="M12 15.75H14.5471C14.7107 14.8829 15.1605 13.4295 15.5 12.789C15.8404 13.4295 16.242 14.6668 16.4529 15.75H19C18.5546 14.6755 17.8966 13.2983 17.25 12.25C17.4633 12.2497 17.7112 12.2505 17.9574 12.2513C18.3644 12.2526 18.7666 12.2538 19 12.25C20.8384 12.2194 21.6136 10.6698 21.625 9.62502C21.639 8.28277 20.5715 6.9939 19 7.00002C17.6884 7.00527 16.5378 7.76302 15.5 9.0239C14.4622 7.76302 13.3116 7.00527 12 7.00002C10.4294 6.9939 9.361 8.28277 9.375 9.62502C9.38637 10.6698 10.1616 12.2194 12 12.25C12.2334 12.2538 12.6356 12.2526 13.0426 12.2513C13.2888 12.2505 13.5367 12.2497 13.75 12.25C13.1331 13.272 12.511 14.5626 12 15.75ZM12.4182 10.5C10.9946 10.43 11.3236 8.75177 12.3132 8.75177C13.0439 8.75177 13.4665 9.24002 14.3739 10.5C14.3739 10.5 12.6256 10.5105 12.4182 10.5ZM18.5704 10.5C19.994 10.43 19.665 8.75177 18.6754 8.75177C17.9447 8.75177 17.5335 9.24002 16.6261 10.5C16.6261 10.5 18.363 10.5105 18.5704 10.5Z" fill="black"/>
<path fill-rule="evenodd" clip-rule="evenodd" d="M24.25 24.5H6.75C5.784 24.5 5 23.716 5 22.75V12.25C5 11.284 5.784 10.5 6.75 10.5H8.17275L8.241 10.7476C8.41075 11.2998 8.69425 11.816 9.07225 12.25H7.1875C6.946 12.25 6.75 12.446 6.75 12.6875V17.5H24.25V12.6875C24.25 12.446 24.054 12.25 23.8125 12.25H21.9277C22.3626 11.7521 22.6741 11.144 22.8281 10.5H24.25C25.216 10.5 26 11.284 26 12.25V22.75C26 23.716 25.216 24.5 24.25 24.5ZM6.75 22.3125V20.125H24.25V22.3125C24.25 22.554 24.054 22.75 23.8125 22.75H7.1875C6.946 22.75 6.75 22.554 6.75 22.3125Z" fill="black"/>
</svg>
