<svg width="21" height="21" viewBox="0 0 21 21" fill="none" xmlns="http://www.w3.org/2000/svg">
<path d="M17.9375 3.5H3.0625C1.85631 3.5 0.875 4.48131 0.875 5.6875V15.3125C0.875 16.5187 1.85631 17.5 3.0625 17.5H17.9375C19.1437 17.5 20.125 16.5187 20.125 15.3125V5.6875C20.125 4.48131 19.1437 3.5 17.9375 3.5ZM19.25 5.6875V8.96875H12.25V7.4375C12.25 7.29925 12.1846 7.16887 12.0737 7.08663C11.9623 7.00416 11.8191 6.979 11.6867 7.01837L8.95781 7.83694C8.66381 7.55191 8.29106 7.34759 7.87478 7.26272V4.375H17.9373C18.6613 4.375 19.25 4.96366 19.25 5.6875ZM10.7288 13.3438H9.48369L8.63909 11.2322C8.7535 11.1567 8.86003 11.0705 8.95803 10.9756L9.89384 11.2562L10.7288 13.3438ZM7.4375 8.09375C8.16134 8.09375 8.75 8.68241 8.75 9.40625C8.75 10.1301 8.16134 10.7188 7.4375 10.7188C6.71366 10.7188 6.125 10.1301 6.125 9.40625C6.125 8.68241 6.71366 8.09375 7.4375 8.09375ZM5.40684 10.215L3.5 10.787V8.0255L5.40684 8.59753C5.30666 8.848 5.25 9.12056 5.25 9.40625C5.25 9.69194 5.30666 9.9645 5.40684 10.215ZM4.98116 11.2562L5.91697 10.9756C6.01497 11.0705 6.1215 11.1567 6.23591 11.2322L5.39131 13.3438H4.14619L4.98116 11.2562ZM9.46816 10.215C9.56834 9.9645 9.625 9.69194 9.625 9.40625C9.625 9.12056 9.56834 8.848 9.46816 8.59753L11.375 8.0255V10.7868L9.46816 10.215ZM3.0625 4.375H7V7.26294C6.58372 7.34781 6.21097 7.55212 5.91697 7.83716L3.18828 7.01859C3.05616 6.979 2.91222 7.00437 2.80131 7.08684C2.69041 7.16887 2.625 7.29925 2.625 7.4375V8.96875H1.75V5.6875C1.75 4.96366 2.33866 4.375 3.0625 4.375ZM1.75 15.3125V9.84375H2.625V11.375C2.625 11.5133 2.69041 11.6436 2.80131 11.7259C2.87766 11.7828 2.96953 11.8125 3.0625 11.8125C3.1045 11.8125 3.14694 11.8066 3.18828 11.7941L3.91037 11.5776L3.094 13.6187C3.03997 13.7535 3.05659 13.9062 3.13797 14.0265C3.21934 14.1468 3.35475 14.2188 3.5 14.2188H5.6875C5.86644 14.2188 6.02722 14.1098 6.09372 13.9438L7 11.678V16.625H3.0625C2.33866 16.625 1.75 16.0363 1.75 15.3125ZM17.9375 16.625H7.875V11.678L8.78128 13.9438C8.84778 14.1098 9.00856 14.2188 9.1875 14.2188H11.375C11.5203 14.2188 11.6559 14.1468 11.7372 14.0265C11.8186 13.9062 11.835 13.7535 11.7812 13.6187L10.9646 11.5776L11.6867 11.7941C11.7281 11.8066 11.7705 11.8125 11.8125 11.8125C11.9055 11.8125 11.9973 11.7828 12.0737 11.7259C12.1846 11.6436 12.25 11.5133 12.25 11.375V9.84375H19.25V15.3125C19.25 16.0363 18.6613 16.625 17.9375 16.625Z" fill="black"/>
</svg>
