<svg width="21" height="21" viewBox="0 0 21 21" fill="none" xmlns="http://www.w3.org/2000/svg">
<g clip-path="url(#clip0_253_6506)">
<path d="M20.7824 11.5261C20.5808 11.1834 20.2553 10.9312 19.8732 10.8213C19.491 10.7114 19.0813 10.7523 18.7284 10.9355L14.8204 12.9633C14.5522 12.7158 14.201 12.5776 13.836 12.5761H13.6687C13.0223 12.6188 12.1396 12.4941 11.5129 12.3793C10.9879 12.2841 10.4793 11.9986 10.0429 11.5557C9.5901 11.0897 9.00604 10.7583 8.29729 10.5746C7.29322 10.3121 6.18088 10.4072 5.16041 10.8404L3.02104 11.7394L2.95541 11.7657L2.91932 11.6672C2.87463 11.5509 2.78571 11.4569 2.67197 11.4059C2.55823 11.3548 2.42892 11.3509 2.31229 11.3949L0.30088 12.166C0.100724 12.2414 -0.0206825 12.4449 0.00228627 12.6549L0.671661 18.8368C0.688067 18.9811 0.770099 19.1124 0.894786 19.1879C0.970255 19.2338 1.05557 19.2568 1.14088 19.2568C1.19666 19.2568 1.25572 19.2469 1.30822 19.2272L4.80276 17.8918C5.04557 17.7999 5.16697 17.5275 5.0751 17.2847L4.98651 17.0518L5.50494 16.8844C5.51807 16.8811 5.53119 16.8746 5.54104 16.8713C6.46963 16.4775 7.92979 17.0747 8.35635 17.2716C8.52697 17.3471 8.69432 17.4488 8.86822 17.5538C9.67213 18.0427 10.4826 18.21 11.2143 18.21C12.7729 18.21 13.9837 17.4554 14.0493 17.4127L20.2509 13.6524C20.7135 13.3735 21.0023 12.8649 21.0023 12.3235C20.999 12.038 20.9235 11.7657 20.7824 11.5261ZM1.53791 18.128L0.973536 12.9108L2.20729 12.4383L2.24666 12.5433C2.24666 12.5466 2.24994 12.5499 2.24994 12.5532C2.24994 12.5564 2.25322 12.5564 2.25322 12.5597L3.91354 16.8943V16.8975C3.91354 16.9008 3.91682 16.9041 3.91682 16.9074L4.01854 17.1732L1.53791 18.128ZM19.762 12.8386L13.5506 16.6055C13.462 16.6613 11.3587 17.9607 9.35385 16.7466C9.16354 16.6285 8.95682 16.5038 8.73369 16.4086C7.91994 16.0411 6.38432 15.4997 5.18666 15.9919L4.64197 16.1691L3.2901 12.6352L5.52463 11.7033C6.35479 11.3522 7.25713 11.2735 8.05775 11.4835C8.59588 11.6246 9.03557 11.8674 9.36697 12.2086C9.94119 12.796 10.6237 13.1733 11.3423 13.3013C12.0149 13.4227 12.9698 13.5605 13.7113 13.5146H13.8295C14.0165 13.5146 14.1904 13.6163 14.2823 13.7836C14.3249 13.8591 14.3479 13.9444 14.3479 14.033C14.3479 14.1708 14.2921 14.3054 14.197 14.4005C14.0985 14.4989 13.9706 14.5514 13.8295 14.5514H11.7918C11.6146 14.5383 10.0626 14.4071 8.91088 14.0855C8.6615 14.0166 8.40229 14.161 8.3301 14.4136C8.26119 14.663 8.40557 14.9222 8.65822 14.9944C9.96744 15.3586 11.6671 15.4866 11.7393 15.4932H13.8262C14.2167 15.4932 14.5842 15.3422 14.8565 15.0666C15.1321 14.791 15.2831 14.4268 15.2831 14.0363C15.2831 13.9543 15.2732 13.8722 15.2601 13.7902L19.1517 11.7722C19.2908 11.6993 19.4526 11.6828 19.6036 11.7262C19.7546 11.7696 19.883 11.8695 19.9621 12.0052C20.0179 12.1036 20.0507 12.2119 20.0507 12.3169C20.0573 12.5302 19.949 12.7271 19.762 12.8386ZM12.0084 10.3744C14.3742 10.3744 16.3003 8.4516 16.3003 6.08582C16.3003 3.72004 14.3774 1.79395 12.0117 1.79395C9.64916 1.79395 7.72307 3.71676 7.72307 6.08254C7.71979 8.44832 9.6426 10.3744 12.0084 10.3744ZM12.0084 2.73566C13.859 2.73566 15.3585 4.23848 15.3585 6.08582C15.3585 7.93316 13.8557 9.4327 12.0084 9.4327C10.161 9.4327 8.6615 7.92988 8.6615 6.08582C8.6615 4.2352 10.161 2.73566 12.0084 2.73566Z" fill="black" stroke="black" stroke-width="0.1"/>
<path d="M11.8465 5.42297C11.5872 5.42297 11.3772 5.63297 11.3772 5.89219V7.96922C11.3772 8.09366 11.4267 8.21301 11.5147 8.30101C11.6027 8.389 11.722 8.43844 11.8465 8.43844C11.9709 8.43844 12.0903 8.389 12.1783 8.30101C12.2662 8.21301 12.3157 8.09366 12.3157 7.96922V5.89219C12.3157 5.63297 12.1057 5.42297 11.8465 5.42297ZM11.8465 5.11125C12.1615 5.11125 12.4174 4.85531 12.4174 4.54031C12.4174 4.22531 12.1647 3.97266 11.8465 3.97266C11.5315 3.97266 11.2788 4.22531 11.2788 4.54031C11.2788 4.85531 11.5315 5.11125 11.8465 5.11125Z" fill="black"/>
</g>
<defs>
<clipPath id="clip0_253_6506">
<rect width="21" height="21" fill="white"/>
</clipPath>
</defs>
</svg>
