<svg width="22" height="21" viewBox="0 0 22 21" fill="none" xmlns="http://www.w3.org/2000/svg">
<path fill-rule="evenodd" clip-rule="evenodd" d="M8.53356 18.1681V15.4848C8.53354 14.8022 9.08997 14.2476 9.77938 14.2431H12.3047C12.9974 14.2431 13.5589 14.799 13.5589 15.4848V18.1765C13.5588 18.756 14.026 19.2296 14.6112 19.2432H16.2947C17.973 19.2432 19.3335 17.8963 19.3335 16.2348V8.60127C19.3245 7.94764 19.0145 7.33384 18.4917 6.93457L12.734 2.3428C11.7253 1.54328 10.2914 1.54328 9.28274 2.3428L3.55027 6.9429C3.02547 7.34056 2.71496 7.95537 2.7085 8.6096V16.2348C2.7085 17.8963 4.06901 19.2432 5.74729 19.2432H7.43084C8.03056 19.2432 8.51672 18.7619 8.51672 18.1681" fill="black"/>
<path d="M8.53356 18.1681V15.4848C8.53354 14.8022 9.08997 14.2476 9.77938 14.2431H12.3047C12.9974 14.2431 13.5589 14.799 13.5589 15.4848V18.1765C13.5588 18.756 14.026 19.2296 14.6112 19.2432H16.2947C17.973 19.2432 19.3335 17.8963 19.3335 16.2348V8.60127C19.3245 7.94764 19.0145 7.33384 18.4917 6.93457L12.734 2.3428C11.7253 1.54328 10.2914 1.54328 9.28274 2.3428L3.55027 6.9429C3.02547 7.34056 2.71496 7.95537 2.7085 8.6096V16.2348C2.7085 17.8963 4.06901 19.2432 5.74729 19.2432H7.43084C8.03056 19.2432 8.51672 18.7619 8.51672 18.1681" stroke="black" stroke-width="1.5" stroke-linecap="round" stroke-linejoin="round"/>
</svg>
