<svg width="21" height="15" viewBox="0 0 21 15" fill="none" xmlns="http://www.w3.org/2000/svg">
<path d="M7.35 14.7C3.29071 14.7 0 11.4093 0 7.35C0 3.29071 3.29071 0 7.35 0C8.47728 0 9.54528 0.253776 10.5 0.707313C11.4547 0.253776 12.5227 0 13.65 0C17.7093 0 21 3.29071 21 7.35C21 11.4093 17.7093 14.7 13.65 14.7C12.5227 14.7 11.4547 14.4462 10.5 13.9927C9.54528 14.4462 8.47728 14.7 7.35 14.7ZM7.35 2.1C4.4505 2.1 2.1 4.4505 2.1 7.35C2.1 10.2495 4.4505 12.6 7.35 12.6C7.70989 12.6 8.06133 12.5638 8.40086 12.4948C7.10131 11.1691 6.3 9.35311 6.3 7.35C6.3 5.34689 7.10131 3.53093 8.40086 2.20519C8.06133 2.13621 7.70989 2.1 7.35 2.1ZM14.7009 7.35C14.7009 9.35311 13.8996 11.1691 12.6 12.4948C12.9395 12.5638 13.291 12.6 13.6509 12.6C16.5504 12.6 18.9009 10.2495 18.9009 7.35C18.9009 4.4505 16.5504 2.1 13.6509 2.1C13.291 2.1 12.9395 2.13621 12.6 2.20519C13.8996 3.53093 14.7009 5.34689 14.7009 7.35Z" fill="black"/>
</svg>
