<svg width="18" height="18" viewBox="0 0 18 18" fill="none" xmlns="http://www.w3.org/2000/svg">
<path d="M0.711766 2.67578H6.5852C6.44083 4.32953 5.7452 5.85859 4.64927 7.04641C3.9602 6.29828 3.42208 5.40578 3.08739 4.42797C2.96927 4.08672 2.5952 3.90297 2.25395 4.02109C1.9127 4.13922 1.72895 4.51328 1.84708 4.85453C2.24083 6.00297 2.87083 7.04641 3.68458 7.92578C3.23833 8.26703 2.74614 8.56234 2.21458 8.79859L1.10552 9.29078C0.777391 9.43516 0.626453 9.82234 0.770828 10.157C0.875828 10.4064 1.11864 10.5508 1.36802 10.5508C1.45989 10.5508 1.5452 10.5311 1.63708 10.4917L2.74614 9.99953C3.44177 9.69109 4.07833 9.29078 4.65583 8.83141C5.23333 9.29734 5.86989 9.69766 6.55895 9.99953L7.66802 10.4917C7.75333 10.5311 7.83864 10.5508 7.93052 10.5508C8.17989 10.5508 8.4227 10.4064 8.5277 10.1636C8.67208 9.83547 8.5277 9.44172 8.19302 9.29734L7.08395 8.80516C6.55895 8.56891 6.06677 8.27359 5.62052 7.93234C6.93302 6.50828 7.75333 4.66422 7.90427 2.68234H8.58677C8.9477 2.68234 9.24302 2.38703 9.24302 2.02609C9.24302 1.66516 8.9477 1.36984 8.58677 1.36984H5.30552V0.707031C5.30552 0.346094 5.0102 0.0507812 4.64927 0.0507812C4.28833 0.0507812 3.99302 0.346094 3.99302 0.707031V1.36328H0.711766C0.350828 1.36328 0.0555156 1.65859 0.0555156 2.01953C0.0555156 2.38047 0.350828 2.67578 0.711766 2.67578ZM16.4618 17.1133C16.5405 17.1133 16.6193 17.1002 16.698 17.0673C17.0393 16.9361 17.2033 16.5555 17.0721 16.2208L14.0271 8.29984C13.7908 7.68297 13.1871 7.26953 12.5243 7.26953C11.8615 7.26953 11.2577 7.68297 11.0215 8.29984L7.97645 16.2208C7.8452 16.562 8.01583 16.9361 8.35052 17.0673C8.69177 17.1986 9.06583 17.028 9.19708 16.6933L10.2996 13.832H14.749L15.8515 16.6933C15.9499 16.9558 16.1993 17.1133 16.4618 17.1133ZM10.8049 12.5195L12.2486 8.77234C12.334 8.54266 12.7211 8.54266 12.8065 8.77234L14.2502 12.5195H10.8049ZM15.9958 4.17859L15.8055 4.37547V3.33203C15.8055 2.24922 14.9196 1.36328 13.8368 1.36328H11.868C11.5071 1.36328 11.2118 1.65859 11.2118 2.01953C11.2118 2.38047 11.5071 2.67578 11.868 2.67578H13.8368C14.1977 2.67578 14.493 2.97109 14.493 3.33203V4.37547L14.3027 4.18516C14.0468 3.92922 13.6333 3.92922 13.3774 4.18516C13.1215 4.44109 13.1215 4.85453 13.3774 5.11047L14.6899 6.42297C14.8146 6.54766 14.9786 6.61328 15.1493 6.61328C15.3199 6.61328 15.484 6.54766 15.6152 6.42297L16.9277 5.11047C17.1836 4.85453 17.1836 4.44109 16.9277 4.18516C16.6718 3.92922 16.2518 3.92266 15.9958 4.17859ZM0.245828 14.298C0.501766 14.5539 0.915203 14.5539 1.17114 14.298L1.36802 14.1011V15.1445C1.36802 16.2273 2.25395 17.1133 3.33677 17.1133H5.30552C5.66645 17.1133 5.96177 16.818 5.96177 16.457C5.96177 16.0961 5.66645 15.8008 5.30552 15.8008H3.33677C2.97583 15.8008 2.68052 15.5055 2.68052 15.1445V14.1011L2.87083 14.2914C3.00208 14.4227 3.16614 14.4883 3.33677 14.4883C3.50739 14.4883 3.67145 14.4227 3.8027 14.298C4.05864 14.042 4.05864 13.6286 3.8027 13.3727L2.4902 12.0602C2.23427 11.8042 1.82083 11.8042 1.56489 12.0602L0.252391 13.3727C-0.0101094 13.622 -0.0101094 14.042 0.245828 14.298Z" fill="black"/>
</svg>
