<svg width="32" height="32" viewBox="0 0 32 32" fill="none" xmlns="http://www.w3.org/2000/svg">
<rect width="32" height="32" fill="white"/>
<path d="M15.6985 7.68167C12.5711 7.67347 9.81893 9.29154 8.24598 11.7361C8.17625 11.8448 8.25418 11.9883 8.38338 11.9883H9.82508C9.92352 11.9883 10.0158 11.9452 10.0773 11.8694C10.2209 11.6951 10.3747 11.5269 10.5367 11.3669C11.2053 10.7004 11.9825 10.1754 12.8479 9.81038C13.7421 9.43304 14.6936 9.24027 15.676 9.24027C16.6583 9.24027 17.6098 9.43099 18.504 9.81038C19.3694 10.1754 20.1467 10.7004 20.8152 11.3669C21.4838 12.0334 22.0067 12.8107 22.3738 13.6741C22.7532 14.5682 22.9439 15.5177 22.9439 16.5C22.9439 17.4824 22.7512 18.4319 22.3738 19.326C22.0088 20.1894 21.4838 20.9666 20.8152 21.6331C20.1467 22.2996 19.3694 22.8246 18.504 23.1897C17.6091 23.5676 16.6473 23.7615 15.676 23.7598C14.6936 23.7598 13.7421 23.567 12.8479 23.1897C11.9842 22.825 11.1993 22.2964 10.5367 21.6331C10.3747 21.4711 10.2229 21.303 10.0773 21.1307C10.0158 21.0548 9.92146 21.0118 9.82508 21.0118H8.38338C8.25418 21.0118 8.1742 21.1553 8.24598 21.264C9.81688 23.7024 12.5567 25.3184 15.676 25.3184C20.5199 25.3184 24.4533 21.4199 24.5025 16.5903C24.5517 11.6827 20.6122 7.69398 15.6985 7.68167ZM13.1006 18.7969V17.2383H6.66113C6.5709 17.2383 6.49707 17.1645 6.49707 17.0743V15.9258C6.49707 15.8356 6.5709 15.7618 6.66113 15.7618H13.1006V14.2032C13.1006 14.0658 13.2605 13.9878 13.3672 14.074L16.2772 16.3708C16.2969 16.3862 16.3127 16.4058 16.3236 16.4282C16.3345 16.4506 16.3402 16.4751 16.3402 16.5C16.3402 16.5249 16.3345 16.5495 16.3236 16.5719C16.3127 16.5943 16.2969 16.6139 16.2772 16.6292L13.3672 18.9261C13.2605 19.0102 13.1006 18.9343 13.1006 18.7969Z" fill="black"/>
</svg>
