<svg width="21" height="21" viewBox="0 0 21 21" fill="none" xmlns="http://www.w3.org/2000/svg">
<path d="M16.9775 13.672L19.0863 10.9552C19.2094 10.7966 19.2757 10.6013 19.2744 10.4005C19.2731 10.1998 19.2044 10.0053 19.0793 9.84829L17.0362 7.28804M18.9297 10.3987L8.11204 10.4127M13.4469 17.2272C12.2557 17.8642 10.9201 18.1825 9.56959 18.151C8.21911 18.1195 6.89973 17.7393 5.73956 17.0473C4.5794 16.3554 3.61787 15.3752 2.94835 14.2019C2.27883 13.0287 1.92407 11.7022 1.91852 10.3514C1.91297 9.00057 2.25682 7.67126 2.91668 6.49255C3.57654 5.31383 4.52998 4.32578 5.68442 3.62432C6.83887 2.92287 8.15508 2.53186 9.50525 2.48925C10.8554 2.44664 12.1937 2.7539 13.39 3.38117" stroke="black" stroke-width="1.5" stroke-miterlimit="10" stroke-linecap="square"/>
</svg>
