<svg width="512" height="512" viewBox="0 0 28 29" fill="none" xmlns="http://www.w3.org/2000/svg">
    <path
        d="M27.8932 8.29965V20.0419C27.8932 22.2381 27.0158 24.3444 25.4541 25.8973C23.8923 27.4503 21.7741 28.3227 19.5654 28.3227H8.44016C6.23147 28.3227 4.11325 27.4503 2.55148 25.8973C0.989701 24.3444 0.112305 22.2381 0.112305 20.0419V8.29943C0.112305 6.1032 0.989701 3.99693 2.55148 2.44397C4.11325 0.891002 6.23147 0.0185547 8.44016 0.0185547L19.5654 0.0187734C21.7741 0.0187734 23.8923 0.89122 25.4541 2.44419C27.0158 3.99715 27.8932 6.10342 27.8932 8.29965ZM9.32129 15.0891C9.27745 14.9114 9.23771 14.7571 9.20208 14.6263C8.86848 13.3983 8.53459 12.1706 8.20041 10.943C8.17988 10.8675 8.16859 10.7959 8.16654 10.7282C8.14806 10.106 8.33194 9.41552 8.74325 8.93566C9.1704 8.43787 9.81421 8.18548 10.4679 8.13583C10.5497 8.12971 10.6318 8.13379 10.7143 8.14808C11.0465 8.20553 11.3594 8.30497 11.653 8.4464C12.7526 8.97656 12.9941 10.031 12.7598 11.1409C12.7381 11.2433 12.7159 11.3457 12.6932 11.448C12.6766 11.5222 12.6535 11.5867 12.6239 11.6416C12.3995 12.0573 11.9933 12.3924 11.6242 12.6743C10.884 13.2398 10.1452 13.8073 9.40773 14.377C9.40467 14.3794 9.40223 14.3825 9.40063 14.3861C9.39902 14.3896 9.39829 14.3935 9.39849 14.3973C9.4004 14.4293 9.40817 14.4655 9.42181 14.506C9.56536 14.9327 9.69602 15.3617 9.81377 15.7932C9.81423 15.7949 9.81511 15.7964 9.81632 15.7977C9.81753 15.799 9.81904 15.7999 9.82071 15.8005C9.82238 15.801 9.82417 15.8012 9.82591 15.8009C9.82765 15.8006 9.8293 15.7999 9.8307 15.7988C10.884 15.0026 11.9378 14.2083 12.9923 13.416C13.0407 13.3795 13.0746 13.3512 13.0939 13.3309C13.3184 13.0943 13.5118 12.8346 13.6742 12.5518C14.3712 11.3378 14.3905 9.98876 13.8222 8.70711C13.7839 8.62079 13.7374 8.53987 13.6825 8.46434C13.4126 8.09282 13.1011 7.77131 12.7482 7.49982C11.6916 6.68752 10.5222 6.5116 9.23991 6.97207C9.04855 7.04074 8.84678 7.13019 8.6346 7.24043C8.41069 7.35678 8.2532 7.50507 8.07548 7.68463C7.3151 8.45318 6.76962 9.46976 6.765 10.5581C6.7639 10.805 6.79909 11.0688 6.87629 11.3118C6.9315 11.4856 6.98583 11.6582 7.03598 11.8371C7.713 14.2486 8.37601 16.6639 9.02501 19.0828C9.05801 19.2057 9.102 19.2847 9.17898 19.377C9.79001 20.1105 10.5706 20.35 11.5208 20.0952C11.5922 20.076 11.6378 20.0591 11.6576 20.0447C12.8755 19.1515 14.1605 18.3565 15.3612 17.4396C15.9013 17.0271 16.4081 16.5779 16.8817 16.0919C18.6594 14.2681 19.2709 11.7022 18.884 9.2353C18.4126 6.2267 16.534 3.5221 13.6315 2.38414C13.0189 2.14378 12.2361 2.01889 11.6202 2.32137C11.3312 2.4631 11.091 2.68837 10.9113 2.95345C10.9033 2.96541 10.8277 3.09036 10.6846 3.32832C9.9813 4.49814 9.28023 5.66767 8.58137 6.8369C8.5806 6.83812 8.58026 6.83956 8.58043 6.84099C8.58059 6.84242 8.58123 6.84375 8.58225 6.84477C8.58328 6.84579 8.58462 6.84643 8.58606 6.84659C8.58749 6.84675 8.58894 6.84642 8.59017 6.84565C8.89781 6.66222 9.22297 6.52181 9.56566 6.42441C9.87623 6.33605 10.1915 6.31068 10.5115 6.3483C10.5172 6.34896 10.5229 6.34799 10.5281 6.34552C10.5333 6.34304 10.5377 6.33915 10.5407 6.3343C11.069 5.48366 11.5979 4.63403 12.1274 3.78543C12.1701 3.7169 12.2064 3.67301 12.2363 3.65377C12.7066 3.35282 14.8927 5.19416 15.2948 5.53141C15.724 5.89156 16.0751 6.28436 16.3481 6.70983C17.0062 7.73493 17.3566 8.96103 17.4215 10.1701C17.4877 11.404 17.2805 12.626 16.6836 13.7027C16.3325 14.3361 15.9086 14.926 15.4118 15.4723C15.2322 15.6697 15.0701 15.8237 14.9255 15.9342C13.7014 16.8694 12.4778 17.8054 11.2547 18.7421C11.2139 18.7733 11.1575 18.7925 11.0853 18.7998C10.6568 18.8435 10.284 18.699 10.1837 18.2469C10.1544 18.1151 10.1395 18.0483 10.1391 18.0465C9.96165 17.3949 9.78451 16.7432 9.60767 16.0915C9.51661 15.7564 9.40355 15.4222 9.32129 15.0891ZM12.0769 22.6209C11.3721 23.7073 10.7857 24.8922 10.4263 26.1371C10.4108 26.1909 10.4189 26.1947 10.4505 26.1483C11.3031 24.8983 12.2533 23.7102 13.3013 22.5839C13.4071 22.4702 13.5088 22.3653 13.6066 22.2692C14.5612 21.3318 15.6452 20.5149 16.7403 19.7731C17.5389 19.2318 18.7197 18.4684 19.7072 17.7467C20.0051 17.5291 20.333 17.3287 20.6354 17.1013C20.8596 16.9329 21.1477 16.6888 21.2388 16.3835C21.2395 16.381 21.2397 16.3784 21.2394 16.3758C21.239 16.3733 21.2381 16.3708 21.2367 16.3686C21.2353 16.3664 21.2335 16.3645 21.2313 16.3631C21.2291 16.3617 21.2266 16.3607 21.224 16.3603C20.6548 16.2702 20.0528 16.3406 19.4963 16.4769C17.9745 16.8495 16.5925 17.6973 15.3821 18.6666C15.2701 18.7563 15.161 18.8537 15.055 18.9588C13.9305 20.0728 12.9378 21.2935 12.0769 22.6209Z"
        fill="#F3A195" />
</svg>
