<svg width="20" height="22" viewBox="0 0 20 22" fill="none" xmlns="http://www.w3.org/2000/svg">
<path d="M7.55689 19.8508C8.05616 20.4775 8.78935 20.883 9.59418 20.9777C10.399 21.0725 11.2091 20.8485 11.8452 20.3554C12.0409 20.2096 12.2169 20.04 12.3691 19.8508M1.50278 12.7861V12.5672C1.5349 11.9193 1.74255 11.2915 2.10431 10.7486C2.70646 10.0965 3.11866 9.29733 3.29767 8.435C3.29767 7.76852 3.29767 7.09253 3.35588 6.42605C3.65664 3.21744 6.82923 0.999023 9.96301 0.999023H10.0406C13.1744 0.999023 16.347 3.21744 16.6575 6.42605C16.7157 7.09253 16.6575 7.76852 16.706 8.435C16.8874 9.29933 17.2992 10.101 17.8993 10.7582C18.2638 11.2962 18.4718 11.9217 18.5009 12.5672V12.7766C18.5225 13.6471 18.2227 14.4958 17.6568 15.1664C16.9089 15.9505 15.8941 16.4383 14.8044 16.5375C11.6089 16.8802 8.38499 16.8802 5.18958 16.5375C4.1011 16.434 3.08771 15.9469 2.33716 15.1664C1.77995 14.4953 1.48419 13.6516 1.50278 12.7861Z" stroke="black" stroke-width="1.54" stroke-linecap="round" stroke-linejoin="round"/>
</svg>
