<svg width="21" height="24" viewBox="0 0 21 24" fill="none" xmlns="http://www.w3.org/2000/svg">
<path d="M7.86105 21.2944C8.40167 21.9524 9.19557 22.3782 10.0671 22.4777C10.9385 22.5771 11.8157 22.3419 12.5045 21.8242C12.7163 21.6711 12.907 21.4931 13.0718 21.2944M1.30558 13.8765V13.6465C1.34037 12.9663 1.56521 12.3071 1.95693 11.7371C2.60894 11.0523 3.05527 10.2132 3.24911 9.30778C3.24911 8.60798 3.24911 7.89818 3.31214 7.19838C3.63781 3.82934 7.07313 1.5 10.4664 1.5H10.5505C13.9438 1.5 17.3791 3.82934 17.7153 7.19838C17.7783 7.89818 17.7153 8.60798 17.7678 9.30778C17.9642 10.2153 18.4101 11.057 19.06 11.7471C19.4546 12.3121 19.6798 12.9688 19.7113 13.6465V13.8665C19.7348 14.7804 19.4101 15.6717 18.7973 16.3758C17.9875 17.199 16.8886 17.7112 15.7087 17.8154C12.2487 18.1753 8.75772 18.1753 5.29769 17.8154C4.11907 17.7067 3.02177 17.1953 2.20906 16.3758C1.60571 15.6711 1.28546 14.7852 1.30558 13.8765Z" stroke="black" stroke-width="1.21275" stroke-linecap="round" stroke-linejoin="round"/>
</svg>
