<svg width="21" height="21" viewBox="0 0 21 21" fill="none" xmlns="http://www.w3.org/2000/svg">
<path d="M8.37912 18.2482C8.81599 18.7966 9.45753 19.1514 10.1618 19.2343C10.866 19.3172 11.5748 19.1212 12.1314 18.6898C12.3026 18.5622 12.4566 18.4138 12.5898 18.2482M3.08178 12.0667V11.875C3.10989 11.3081 3.29158 10.7589 3.60812 10.2838C4.13499 9.71321 4.49567 9.01395 4.6523 8.25941C4.6523 7.67624 4.6523 7.08474 4.70324 6.50158C4.96641 3.69404 7.74242 1.75293 10.4845 1.75293H10.5524C13.2944 1.75293 16.0705 3.69404 16.3421 6.50158C16.3931 7.08474 16.3421 7.67624 16.3846 8.25941C16.5433 9.0157 16.9036 9.71713 17.4288 10.2922C17.7477 10.763 17.9296 11.3103 17.9551 11.875V12.0583C17.974 12.82 17.7117 13.5626 17.2165 14.1494C16.5621 14.8355 15.6742 15.2623 14.7207 15.3491C11.9247 15.649 9.10371 15.649 6.30773 15.3491C5.35531 15.2585 4.46859 14.8323 3.81186 14.1494C3.3243 13.5622 3.06552 12.8239 3.08178 12.0667Z" stroke="black" stroke-width="1.5" stroke-linecap="round" stroke-linejoin="round"/>
</svg>
