<svg width="24" height="28" viewBox="0 0 24 28" fill="none" xmlns="http://www.w3.org/2000/svg">
<path d="M20.5113 6.49891C19.4026 6.2243 18.323 5.93837 17.3015 5.64868C17.014 5.56576 16.7173 5.73322 16.6365 6.01914C16.5558 6.3056 16.7211 6.60337 17.007 6.68414C17.9159 6.94207 18.8695 7.19676 19.8479 7.44283C19.8495 8.35176 19.8005 9.27199 19.7014 10.1852C19.6691 10.4808 19.8829 10.7468 20.1785 10.7791C20.1984 10.7813 20.2178 10.7824 20.2378 10.7824C20.5091 10.7824 20.7428 10.5778 20.7724 10.3021C20.892 9.20576 20.9415 8.09868 20.9205 7.01099C20.9157 6.7676 20.7482 6.55707 20.5113 6.49891ZM15.2699 11.3208H9.34683C8.45621 11.3208 7.73145 12.0456 7.73145 12.9362V17.2439C7.73145 18.1345 8.45621 18.8593 9.34683 18.8593H15.2699C16.1605 18.8593 16.8853 18.1345 16.8853 17.2439V12.9362C16.8853 12.0456 16.1605 11.3208 15.2699 11.3208ZM15.8084 17.2439C15.8084 17.5411 15.5671 17.7824 15.2699 17.7824H9.34683C9.0496 17.7824 8.80837 17.5411 8.80837 17.2439V12.9362C8.80837 12.639 9.0496 12.3978 9.34683 12.3978H15.2699C15.5671 12.3978 15.8084 12.639 15.8084 12.9362V17.2439ZM9.61606 10.7824C9.91383 10.7824 10.1545 10.5417 10.1545 10.2439C10.1545 9.05607 11.1205 8.09007 12.3084 8.09007C13.4962 8.09007 14.4622 9.05607 14.4622 10.2439C14.4622 10.5417 14.7029 10.7824 15.0007 10.7824C15.2984 10.7824 15.5391 10.5417 15.5391 10.2439C15.5391 8.46214 14.0901 7.01314 12.3084 7.01314C10.5266 7.01314 9.0776 8.46214 9.0776 10.2439C9.0776 10.5417 9.31829 10.7824 9.61606 10.7824Z" fill="black"/>
<path d="M23.4602 4.67702C23.423 4.46217 23.2593 4.2904 23.0461 4.24302C22.974 4.2274 15.7871 2.62333 12.5418 1.05371C12.3937 0.982096 12.2209 0.982096 12.0728 1.05371C8.82697 2.62333 1.64012 4.2274 1.56796 4.24302C1.35473 4.2904 1.19104 4.46217 1.15389 4.67702C1.14689 4.71633 0.543811 8.95133 1.7742 13.98C3.27004 20.091 6.83789 24.5242 12.0927 26.8019C12.1611 26.8315 12.2338 26.846 12.307 26.846C12.3803 26.846 12.453 26.8315 12.5208 26.8019C17.7757 24.5247 21.3435 20.091 22.8393 13.98C24.0703 8.95133 23.4672 4.71633 23.4602 4.67702ZM21.7931 13.7242C20.3813 19.4939 17.1898 23.528 12.307 25.719C7.42427 23.528 4.23281 19.4933 2.82096 13.7242C1.85604 9.78271 2.07196 6.29617 2.17643 5.2101C3.68735 4.86225 9.2825 3.52579 12.307 2.13333C15.3316 3.52579 20.9267 4.86171 22.4377 5.20956C22.5421 6.29617 22.758 9.78271 21.7931 13.7242Z" fill="black" stroke="black" stroke-width="0.5"/>
</svg>
