<svg width="21" height="21" viewBox="0 0 21 21" fill="none" xmlns="http://www.w3.org/2000/svg">
<path d="M19.0561 3.54487C19.0282 3.38374 18.9054 3.25491 18.7455 3.21937C18.6914 3.20766 13.3013 2.0046 10.8673 0.827393C10.7562 0.773681 10.6266 0.773681 10.5155 0.827393C8.08116 2.0046 2.69103 3.20766 2.63691 3.21937C2.47699 3.25491 2.35422 3.38374 2.32635 3.54487C2.3211 3.57435 1.8688 6.75061 2.79158 10.5221C3.91347 15.1054 6.58935 18.4302 10.5305 20.1385C10.5818 20.1607 10.6363 20.1716 10.6912 20.1716C10.7461 20.1716 10.8007 20.1607 10.8515 20.1385C14.7927 18.4306 17.4686 15.1054 18.5904 10.5221C19.5136 6.75061 19.0613 3.57435 19.0561 3.54487ZM17.8058 10.3303C16.7469 14.6575 14.3533 17.6831 10.6912 19.3264C7.02914 17.6831 4.63555 14.6571 3.57666 10.3303C2.85297 7.37414 3.01491 4.75924 3.09326 3.94468C4.22645 3.6838 8.42282 2.68145 10.6912 1.6371C12.9596 2.68145 17.156 3.68339 18.2892 3.94428C18.3675 4.75924 18.5295 7.37414 17.8058 10.3303Z" fill="black" stroke="black" stroke-width="0.5"/>
<path d="M16.8437 4.91141C16.0122 4.70545 15.2024 4.49101 14.4363 4.27374C14.2207 4.21155 13.9982 4.33715 13.9376 4.55159C13.877 4.76643 14.001 4.98976 14.2154 5.05034C14.8971 5.24378 15.6123 5.4348 16.3461 5.61936C16.3473 6.30105 16.3106 6.99122 16.2363 7.67615C16.2121 7.89786 16.3724 8.09736 16.5941 8.12159C16.609 8.1232 16.6236 8.12401 16.6385 8.12401C16.8421 8.12401 17.0173 7.97055 17.0395 7.76378C17.1292 6.94155 17.1663 6.11124 17.1506 5.29547C17.147 5.11293 17.0214 4.95503 16.8437 4.91141ZM12.9126 8.52786H8.47033C7.80237 8.52786 7.25879 9.07143 7.25879 9.7394V12.9702C7.25879 13.6381 7.80237 14.1817 8.47033 14.1817H12.9126C13.5806 14.1817 14.1242 13.6381 14.1242 12.9702V9.7394C14.1242 9.07143 13.5806 8.52786 12.9126 8.52786ZM13.3165 12.9702C13.3165 13.1931 13.1356 13.374 12.9126 13.374H8.47033C8.2474 13.374 8.06648 13.1931 8.06648 12.9702V9.7394C8.06648 9.51647 8.2474 9.33555 8.47033 9.33555H12.9126C13.1356 9.33555 13.3165 9.51647 13.3165 9.7394V12.9702ZM8.67225 8.12401C8.89558 8.12401 9.0761 7.94349 9.0761 7.72017C9.0761 6.82928 9.8006 6.10478 10.6915 6.10478C11.5824 6.10478 12.3069 6.82928 12.3069 7.72017C12.3069 7.94349 12.4874 8.12401 12.7107 8.12401C12.934 8.12401 13.1146 7.94349 13.1146 7.72017C13.1146 6.38384 12.0278 5.29709 10.6915 5.29709C9.35515 5.29709 8.2684 6.38384 8.2684 7.72017C8.2684 7.94349 8.44892 8.12401 8.67225 8.12401Z" fill="black"/>
</svg>
