<svg width="24" height="28" viewBox="0 0 24 28" fill="none" xmlns="http://www.w3.org/2000/svg">
<path d="M23.4602 4.75417C23.423 4.53932 23.2593 4.36755 23.0461 4.32017C22.974 4.30455 15.7871 2.70048 12.5418 1.13086C12.3937 1.05924 12.2209 1.05924 12.0728 1.13086C8.82697 2.70048 1.64012 4.30455 1.56796 4.32017C1.35473 4.36755 1.19104 4.53932 1.15389 4.75417C1.14689 4.79348 0.543811 9.02848 1.7742 14.0572C3.27004 20.1682 6.83789 24.6013 12.0927 26.879C12.1611 26.9086 12.2338 26.9232 12.307 26.9232C12.3803 26.9232 12.453 26.9086 12.5208 26.879C17.7757 24.6019 21.3435 20.1682 22.8393 14.0572C24.0703 9.02848 23.4672 4.79348 23.4602 4.75417ZM21.7931 13.8014C20.3813 19.571 17.1898 23.6052 12.307 25.7962C7.42427 23.6052 4.23281 19.5705 2.82096 13.8014C1.85604 9.85986 2.07196 6.37332 2.17643 5.28724C3.68735 4.9394 9.2825 3.60294 12.307 2.21048C15.3316 3.60294 20.9267 4.93886 22.4377 5.28671C22.5421 6.37332 22.758 9.85986 21.7931 13.8014Z" fill="white" stroke="white" stroke-width="0.5"/>
</svg>
