<svg width="22" height="21" viewBox="0 0 22 21" fill="none" xmlns="http://www.w3.org/2000/svg">
<path d="M10.5821 10.5558C12.8911 10.5558 14.7629 8.68405 14.7629 6.37509C14.7629 4.06612 12.8911 2.19434 10.5821 2.19434C8.27315 2.19434 6.40137 4.06612 6.40137 6.37509C6.40137 8.68405 8.27315 10.5558 10.5821 10.5558Z" stroke="black" stroke-width="1.5" stroke-linecap="round" stroke-linejoin="round"/>
<path fill-rule="evenodd" clip-rule="evenodd" d="M3.96388 16.3685C3.96277 16.0746 4.0285 15.7843 4.15611 15.5195C4.55657 14.7186 5.68586 14.2941 6.62293 14.1019C7.29875 13.9577 7.9839 13.8613 8.67328 13.8136C9.94961 13.7015 11.2333 13.7015 12.5097 13.8136C13.199 13.8619 13.8841 13.9582 14.56 14.1019C15.4971 14.2941 16.6264 14.6786 17.0268 15.5195C17.2835 16.0592 17.2835 16.6858 17.0268 17.2255C16.6264 18.0664 15.4971 18.4509 14.56 18.6351C13.885 18.7853 13.1996 18.8843 12.5097 18.9314C11.4708 19.0195 10.4271 19.0355 9.38609 18.9795C9.14582 18.9795 8.91355 18.9795 8.67328 18.9314C7.98593 18.8849 7.30316 18.7859 6.63094 18.6351C5.68586 18.4509 4.56458 18.0664 4.15611 17.2255C4.02915 16.9577 3.96349 16.6649 3.96388 16.3685Z" stroke="black" stroke-width="1.5" stroke-linecap="round" stroke-linejoin="round"/>
</svg>
