<svg width="21" height="21" viewBox="0 0 21 21" fill="none" xmlns="http://www.w3.org/2000/svg">
<path d="M10.0821 10.5558C12.3911 10.5558 14.2629 8.68405 14.2629 6.37509C14.2629 4.06612 12.3911 2.19434 10.0821 2.19434C7.77315 2.19434 5.90137 4.06612 5.90137 6.37509C5.90137 8.68405 7.77315 10.5558 10.0821 10.5558Z" stroke="black" stroke-width="1.5" stroke-linecap="round" stroke-linejoin="round"/>
<path fill-rule="evenodd" clip-rule="evenodd" d="M3.46388 16.3685C3.46277 16.0746 3.5285 15.7843 3.65611 15.5195C4.05657 14.7186 5.18586 14.2941 6.12293 14.1019C6.79875 13.9577 7.4839 13.8613 8.17328 13.8136C9.44961 13.7015 10.7333 13.7015 12.0097 13.8136C12.699 13.8619 13.3841 13.9582 14.06 14.1019C14.9971 14.2941 16.1264 14.6786 16.5268 15.5195C16.7835 16.0592 16.7835 16.6858 16.5268 17.2255C16.1264 18.0664 14.9971 18.4509 14.06 18.6351C13.385 18.7853 12.6996 18.8843 12.0097 18.9314C10.9708 19.0195 9.92714 19.0355 8.88609 18.9795C8.64582 18.9795 8.41355 18.9795 8.17328 18.9314C7.48593 18.8849 6.80316 18.7859 6.13094 18.6351C5.18586 18.4509 4.06458 18.0664 3.65611 17.2255C3.52915 16.9577 3.46349 16.6649 3.46388 16.3685Z" stroke="black" stroke-width="1.5" stroke-linecap="round" stroke-linejoin="round"/>
</svg>
