<svg width="32" height="32" viewBox="0 0 32 32" fill="none" xmlns="http://www.w3.org/2000/svg">
<path d="M17 27.25C17.4142 27.25 17.75 26.9142 17.75 26.5C17.75 26.0858 17.4142 25.75 17 25.75V27.25ZM21.75 19C21.75 19.4142 22.0858 19.75 22.5 19.75C22.9142 19.75 23.25 19.4142 23.25 19H21.75ZM8 7V7.25H9.5V7H8ZM8 7.25L8 26.5H9.5L9.5 7.25L8 7.25ZM8 26.5V27H9.5V26.5H8ZM8 27.25H8.75V25.75H8V27.25ZM8.75 27.25H17V25.75H8.75V27.25ZM8 8H8.75V6.5H8V8ZM8.75 8H17V6.5H8.75V8ZM21.75 13V19H23.25V13H21.75Z" fill="black"/>
<path d="M18.9378 25.8001L18.6723 26.9504L19.6832 26.3406L20.9983 25.5474L21.6477 25.9443L21.2583 25.7094L21 25.5536L20.7417 25.7094L18.6659 26.9616L19.2121 24.6002L19.28 24.3069L19.0525 24.1097L17.22 22.521L17.2401 22.5192L18.121 23.289L19.283 24.3044L18.9378 25.8001ZM23.0624 25.8133L22.717 24.3065L23.8771 23.3032L24.1561 23.0618L22.9475 24.1097L22.72 24.3069L22.7879 24.6002L23.3341 26.9616L23.3241 26.9556L23.0624 25.8133ZM24.78 22.521L24.7679 22.5315L23.5943 22.427L22.0675 22.291L22.0651 22.2853L22.3568 22.3106L24.78 22.521ZM21.0017 19.7919L20.7015 20.4906L21 19.7844L21.1677 20.1812L21.0017 19.7919ZM17.5 12.5V7.74083L22.079 12.5H17.5Z" stroke="black"/>
</svg>
