<svg width="33" height="36" viewBox="0 0 33 36" fill="none" xmlns="http://www.w3.org/2000/svg">
<g clip-path="url(#clip0_253_6716)">
<path d="M13.861 28.7944C14.4017 29.4524 15.1956 29.8782 16.0671 29.9777C16.9385 30.0771 17.8157 29.8419 18.5045 29.3242C18.7163 29.1711 18.907 28.9931 19.0718 28.7944M7.30558 21.3765V21.1465C7.34037 20.4663 7.56521 19.8071 7.95693 19.2371C8.60894 18.5523 9.05527 17.7132 9.24911 16.8078C9.24911 16.108 9.24911 15.3982 9.31214 14.6984C9.63781 11.3293 13.0731 9 16.4664 9H16.5505C19.9438 9 23.3791 11.3293 23.7153 14.6984C23.7783 15.3982 23.7153 16.108 23.7678 16.8078C23.9642 17.7153 24.4101 18.557 25.06 19.2471C25.4546 19.8121 25.6798 20.4688 25.7113 21.1465V21.3665C25.7348 22.2804 25.4101 23.1717 24.7973 23.8758C23.9875 24.699 22.8886 25.2112 21.7087 25.3154C18.2487 25.6753 14.7577 25.6753 11.2977 25.3154C10.1191 25.2067 9.02177 24.6953 8.20906 23.8758C7.60571 23.1711 7.28546 22.2852 7.30558 21.3765Z" stroke="black" stroke-width="1.21275" stroke-linecap="round" stroke-linejoin="round"/>
<rect x="17" y="1.5" width="14.4" height="14.4" rx="7.2" fill="#FF0000"/>
<path d="M20.482 9.30859V8.31982H21.2554C21.5572 8.31982 21.8004 8.23926 21.9849 8.07812C22.1724 7.91699 22.2662 7.70752 22.2662 7.44971C22.2662 7.19482 22.1739 6.99268 21.9893 6.84326C21.8077 6.69092 21.5616 6.61475 21.2511 6.61475C20.9434 6.61475 20.6944 6.69531 20.504 6.85645C20.3136 7.01758 20.2096 7.23584 20.192 7.51123H18.9659C18.9893 6.91064 19.2091 6.43457 19.6251 6.08301C20.0411 5.73145 20.5948 5.55566 21.2862 5.55566C21.9366 5.55566 22.4713 5.7168 22.8902 6.03906C23.3121 6.3584 23.523 6.76709 23.523 7.26514C23.523 7.63135 23.4161 7.94629 23.2022 8.20996C22.9913 8.47363 22.7086 8.64209 22.3541 8.71533V8.79443C22.7906 8.84424 23.1348 9.00537 23.3868 9.27783C23.6417 9.54736 23.7691 9.89014 23.7691 10.3062C23.7691 10.6724 23.6622 11.002 23.4483 11.2949C23.2374 11.585 22.9415 11.812 22.5606 11.9761C22.1798 12.1401 21.752 12.2222 21.2774 12.2222C20.5714 12.2222 19.9971 12.042 19.5548 11.6816C19.1124 11.3213 18.8765 10.8423 18.8472 10.2446H20.1173C20.1378 10.5142 20.2535 10.728 20.4644 10.8862C20.6754 11.0415 20.9508 11.1191 21.2906 11.1191C21.6217 11.1191 21.8912 11.0342 22.0992 10.8643C22.3101 10.6943 22.4156 10.4746 22.4156 10.2051C22.4156 9.92676 22.3131 9.7085 22.108 9.55029C21.9029 9.38916 21.6231 9.30859 21.2686 9.30859H20.482ZM24.8809 7.6167C24.8809 7.00439 25.0948 6.50781 25.5225 6.12695C25.9503 5.74609 26.5069 5.55566 27.1925 5.55566C27.8546 5.55566 28.3936 5.72852 28.8096 6.07422C29.2286 6.41699 29.4381 6.86084 29.4381 7.40576C29.4381 7.75146 29.3297 8.0957 29.1129 8.43848C28.8961 8.77832 28.5138 9.20605 27.9659 9.72168L26.753 10.8774V10.9565H29.5304V12.0596H24.9556V11.1323L27.0255 9.10645C27.4708 8.67285 27.7681 8.34766 27.9176 8.13086C28.067 7.91406 28.1417 7.70166 28.1417 7.49365C28.1417 7.23877 28.0479 7.03076 27.8604 6.86963C27.6759 6.70557 27.4386 6.62354 27.1485 6.62354C26.8409 6.62354 26.5904 6.71582 26.3971 6.90039C26.2066 7.08203 26.1114 7.31934 26.1114 7.6123V7.63867H24.8809V7.6167Z" fill="white"/>
</g>
<defs>
<clipPath id="clip0_253_6716">
<rect width="33" height="35" fill="white" transform="translate(0 0.5)"/>
</clipPath>
</defs>
</svg>
