<svg width="56" height="55" viewBox="0 0 56 55" fill="none" xmlns="http://www.w3.org/2000/svg">
<path d="M8.16667 53H47.8333C50.9629 53 53.5 50.4629 53.5 47.3333V7.66667C53.5 4.53705 50.9629 2 47.8333 2H8.16667C5.03705 2 2.5 4.53705 2.5 7.66667V47.3333C2.5 50.4629 5.03705 53 8.16667 53ZM8.16667 53L39.3333 21.8333L53.5 36M22.3333 17.5833C22.3333 19.9305 20.4305 21.8333 18.0833 21.8333C15.7361 21.8333 13.8333 19.9305 13.8333 17.5833C13.8333 15.2361 15.7361 13.3333 18.0833 13.3333C20.4305 13.3333 22.3333 15.2361 22.3333 17.5833Z" stroke="#1E1E1E" stroke-width="4" stroke-linecap="round" stroke-linejoin="round"/>
</svg>
