<svg width="22" height="18" viewBox="0 0 22 18" fill="none" xmlns="http://www.w3.org/2000/svg">
<rect width="22" height="20" transform="translate(0 -1.5)" fill="#FF3B30"/>
<path d="M10.0977 13.5254C10.2051 13.5254 10.2913 13.4945 10.3564 13.4326C10.4215 13.3708 10.4525 13.2894 10.4492 13.1885L10.2393 6.14258C10.2393 6.04167 10.2051 5.96191 10.1367 5.90332C10.0716 5.84473 9.99023 5.81543 9.89258 5.81543C9.7819 5.81543 9.69401 5.84635 9.62891 5.9082C9.56706 5.9668 9.53776 6.04655 9.54102 6.14746L9.74121 13.1934C9.74772 13.2943 9.7819 13.374 9.84375 13.4326C9.90885 13.4945 9.99349 13.5254 10.0977 13.5254ZM12.0215 13.5254C12.1289 13.5254 12.2152 13.4945 12.2803 13.4326C12.3486 13.3708 12.3828 13.2894 12.3828 13.1885V6.14746C12.3828 6.04655 12.3486 5.9668 12.2803 5.9082C12.2152 5.84635 12.1289 5.81543 12.0215 5.81543C11.9141 5.81543 11.8262 5.84635 11.7578 5.9082C11.6927 5.9668 11.6602 6.04655 11.6602 6.14746V13.1885C11.6602 13.2894 11.6927 13.3708 11.7578 13.4326C11.8262 13.4945 11.9141 13.5254 12.0215 13.5254ZM13.9404 13.5254C14.0479 13.5254 14.1325 13.4961 14.1943 13.4375C14.2594 13.3789 14.2936 13.2975 14.2969 13.1934L14.4971 6.15234C14.5003 6.05143 14.4694 5.97005 14.4043 5.9082C14.3424 5.84635 14.2578 5.81543 14.1504 5.81543C14.0495 5.81543 13.9665 5.84473 13.9014 5.90332C13.8363 5.96191 13.8021 6.04329 13.7988 6.14746L13.5938 13.1934C13.5905 13.291 13.6198 13.3708 13.6816 13.4326C13.7467 13.4945 13.833 13.5254 13.9404 13.5254ZM9.30176 4.2627V2.87109C9.30176 2.4349 9.43359 2.0931 9.69727 1.8457C9.96419 1.59505 10.3304 1.46973 10.7959 1.46973H13.2324C13.6979 1.46973 14.0625 1.59505 14.3262 1.8457C14.5931 2.0931 14.7266 2.4349 14.7266 2.87109V4.2627H13.8721V2.91992C13.8721 2.72461 13.8102 2.56836 13.6865 2.45117C13.5628 2.33398 13.3952 2.27539 13.1836 2.27539H10.8447C10.6331 2.27539 10.4655 2.33398 10.3418 2.45117C10.2181 2.56836 10.1562 2.72461 10.1562 2.91992V4.2627H9.30176ZM6.37207 4.6875C6.26465 4.6875 6.17025 4.64844 6.08887 4.57031C6.00749 4.48893 5.9668 4.3929 5.9668 4.28223C5.9668 4.17155 6.00749 4.07552 6.08887 3.99414C6.17025 3.91276 6.26465 3.87207 6.37207 3.87207H17.666C17.7767 3.87207 17.8711 3.91276 17.9492 3.99414C18.0306 4.07227 18.0713 4.16829 18.0713 4.28223C18.0713 4.3929 18.0322 4.48893 17.9541 4.57031C17.876 4.64844 17.7799 4.6875 17.666 4.6875H6.37207ZM9.15527 15.415C8.86882 15.415 8.61654 15.3564 8.39844 15.2393C8.18359 15.1221 8.0127 14.9577 7.88574 14.7461C7.75879 14.5345 7.6888 14.2887 7.67578 14.0088L7.21191 4.56055H16.8311L16.3672 14.0039C16.3542 14.2839 16.2826 14.5296 16.1523 14.7412C16.0254 14.9528 15.8529 15.1172 15.6348 15.2344C15.4199 15.3548 15.1725 15.415 14.8926 15.415H9.15527Z" fill="white"/>
</svg>
