<svg width="22" height="18" viewBox="0 0 22 18" fill="none" xmlns="http://www.w3.org/2000/svg">
<rect width="22" height="20" transform="translate(0 -1.5)" fill="#FF9500"/>
<g clip-path="url(#clip0_1114_10529)">
<path d="M10.417 3.83314H6.33366C6.02424 3.83314 5.72749 3.95606 5.5087 4.17485C5.28991 4.39364 5.16699 4.69039 5.16699 4.99981V13.1665C5.16699 13.4759 5.28991 13.7726 5.5087 13.9914C5.72749 14.2102 6.02424 14.3331 6.33366 14.3331H14.5003C14.8097 14.3331 15.1065 14.2102 15.3253 13.9914C15.5441 13.7726 15.667 13.4759 15.667 13.1665V9.08314M14.792 2.95814C15.0241 2.72608 15.3388 2.5957 15.667 2.5957C15.9952 2.5957 16.3099 2.72608 16.542 2.95814C16.7741 3.1902 16.9044 3.50495 16.9044 3.83314C16.9044 4.16133 16.7741 4.47608 16.542 4.70814L11.0003 10.2498L8.66699 10.8331L9.25033 8.49981L14.792 2.95814Z" stroke="white" stroke-width="1.6" stroke-linecap="round" stroke-linejoin="round"/>
</g>
<defs>
<clipPath id="clip0_1114_10529">
<rect width="14" height="14" fill="white" transform="translate(4 1.5)"/>
</clipPath>
</defs>
</svg>
